<svg width="30" height="30" viewBox="0 0 30 30" fill="none" xmlns="http://www.w3.org/2000/svg">
<g clip-path="url(#clip0)">
<path d="M28.8123 6.61942L15.1912 0.0436816C15.0704 -0.0145605 14.9298 -0.0145605 14.8091 0.0436816L1.18783 6.61942C1.03596 6.69272 0.939453 6.84653 0.939453 7.01517V22.9848C0.939453 23.1535 1.03596 23.3073 1.18783 23.3806L14.809 29.9563C14.8694 29.9854 14.9347 30 15.0001 30C15.0654 30 15.1307 29.9854 15.1912 29.9563L28.8123 23.3806C28.9642 23.3073 29.0607 23.1535 29.0607 22.9848V7.01522C29.0607 6.84647 28.9641 6.69278 28.8123 6.61942ZM15.0001 0.927451L27.6104 7.01517L23.955 8.77989C23.9318 8.76226 23.9074 8.74597 23.8805 8.73302L11.3558 2.68673L15.0001 0.927451ZM10.3634 3.1836L22.9554 9.26247L20.3764 10.5075L7.78959 4.43112L10.3634 3.1836ZM23.25 10.0961V14.6984L20.8411 15.8614V11.2591L23.25 10.0961ZM28.1818 22.7091L15.4395 28.8604V13.8667L18.479 12.3994C18.6975 12.2939 18.7892 12.0312 18.6836 11.8126C18.5781 11.5941 18.3154 11.5023 18.0968 11.6079L15.0001 13.1029L13.7816 12.5147C13.5629 12.409 13.3003 12.5008 13.1947 12.7193C13.0892 12.9379 13.1809 13.2006 13.3994 13.3061L14.5606 13.8667V28.8604L1.81836 22.709V7.7153L11.5215 12.3996C11.5831 12.4293 11.6482 12.4434 11.7122 12.4434C11.8756 12.4434 12.0325 12.3519 12.1082 12.1949C12.2138 11.9764 12.1221 11.7136 11.9036 11.6081L2.38971 7.01517L6.75523 4.90767L19.9561 11.2805C19.958 11.2832 19.9602 11.2856 19.9621 11.2882V16.5616C19.9621 16.7128 20.0399 16.8534 20.168 16.9339C20.2391 16.9785 20.3203 17.0011 20.4017 17.0011C20.4668 17.0011 20.5321 16.9866 20.5927 16.9574L23.8805 15.3701C24.0324 15.2968 24.1289 15.1431 24.1289 14.9744V9.67192L28.1818 7.71536V22.7091Z" fill="#232230"/>
<path d="M5.44475 21.0044L3.44582 20.0395C3.22714 19.9338 2.96453 20.0256 2.859 20.2441C2.75347 20.4627 2.84511 20.7254 3.06367 20.8309L5.0626 21.7959C5.12418 21.8257 5.18928 21.8397 5.25332 21.8397C5.41668 21.8397 5.57359 21.7482 5.64936 21.5913C5.75494 21.3726 5.6633 21.11 5.44475 21.0044Z" fill="black"/>
<path d="M7.28455 19.8072L3.44871 17.9554C3.23009 17.8499 2.96742 17.9415 2.86189 18.1602C2.75642 18.3787 2.84806 18.6414 3.06662 18.747L6.90246 20.5988C6.96404 20.6285 7.02914 20.6426 7.09318 20.6426C7.25654 20.6426 7.41345 20.5511 7.48922 20.3941C7.59474 20.1754 7.5031 19.9127 7.28455 19.8072Z" fill="black"/>
</g>
<defs>
<clipPath id="clip0">
<rect width="30" height="30" fill="white"/>
</clipPath>
</defs>
</svg>
