<svg width="24" height="24" viewBox="0 0 24 24" fill="none" xmlns="http://www.w3.org/2000/svg">
<path d="M5.39387 5.39387C5.72861 5.05914 6.27132 5.05914 6.60606 5.39387L12 10.7871L17.3939 5.39387C17.7029 5.08489 18.1891 5.06112 18.5253 5.32257L18.6061 5.39387C18.9408 5.72861 18.9408 6.27132 18.6061 6.60606L13.2128 12L18.6061 17.3939C18.915 17.7029 18.9388 18.1891 18.6774 18.5253L18.6061 18.6061C18.2713 18.9408 17.7286 18.9408 17.3939 18.6061L12 13.2128L6.60606 18.6061C6.29707 18.915 5.81087 18.9388 5.47462 18.6774L5.39387 18.6061C5.05914 18.2713 5.05914 17.7286 5.39387 17.3939L10.7871 12L5.39387 6.60606C5.08489 6.29707 5.06112 5.81087 5.32257 5.47462L5.39387 5.39387Z" fill="#1E1A46"/>
</svg>
