<svg width="25" height="25" viewBox="0 0 25 25" fill="none" xmlns="http://www.w3.org/2000/svg">
<path d="M15.2587 9.74609C15 9.74609 14.7903 9.95577 14.7903 10.2145V19.0669C14.7903 19.3255 15 19.5353 15.2587 19.5353C15.5174 19.5353 15.7271 19.3255 15.7271 19.0669V10.2145C15.7271 9.95577 15.5174 9.74609 15.2587 9.74609Z" fill="#FB7575"/>
<path d="M9.73169 9.74609C9.47298 9.74609 9.26331 9.95577 9.26331 10.2145V19.0669C9.26331 19.3255 9.47298 19.5353 9.73169 19.5353C9.9904 19.5353 10.2001 19.3255 10.2001 19.0669V10.2145C10.2001 9.95577 9.9904 9.74609 9.73169 9.74609Z" fill="#FB7575"/>
<path d="M5.70376 8.45389V19.9938C5.70376 20.6759 5.95387 21.3165 6.39078 21.7761C6.82568 22.237 7.43092 22.4986 8.06433 22.4997H16.9263C17.5599 22.4986 18.1651 22.237 18.5998 21.7761C19.0367 21.3165 19.2869 20.6759 19.2869 19.9938V8.45389C20.1554 8.22336 20.7182 7.38429 20.602 6.49308C20.4856 5.60206 19.7265 4.93553 18.8278 4.93535H16.4297V4.34987C16.4325 3.85752 16.2378 3.38474 15.8892 3.03693C15.5407 2.6893 15.0672 2.49573 14.5749 2.49976H10.4158C9.92341 2.49573 9.4499 2.6893 9.10136 3.03693C8.75282 3.38474 8.55815 3.85752 8.56089 4.34987V4.93535H6.16281C5.2641 4.93553 4.50499 5.60206 4.38863 6.49308C4.27245 7.38429 4.83524 8.22336 5.70376 8.45389ZM16.9263 21.5629H8.06433C7.26351 21.5629 6.64052 20.875 6.64052 19.9938V8.49505H18.3501V19.9938C18.3501 20.875 17.7271 21.5629 16.9263 21.5629ZM9.49766 4.34987C9.49455 4.10598 9.59042 3.87124 9.7635 3.69907C9.9364 3.5269 10.1717 3.43231 10.4158 3.43652H14.5749C14.8189 3.43231 15.0542 3.5269 15.2271 3.69907C15.4002 3.87106 15.4961 4.10598 15.493 4.34987V4.93535H9.49766V4.34987ZM6.16281 5.87211H18.8278C19.2934 5.87211 19.6709 6.24956 19.6709 6.7152C19.6709 7.18084 19.2934 7.55829 18.8278 7.55829H6.16281C5.69717 7.55829 5.31972 7.18084 5.31972 6.7152C5.31972 6.24956 5.69717 5.87211 6.16281 5.87211Z" fill="#FB7575"/>
<path d="M12.4954 9.74609C12.2366 9.74609 12.027 9.95577 12.027 10.2145V19.0669C12.027 19.3255 12.2366 19.5353 12.4954 19.5353C12.7541 19.5353 12.9637 19.3255 12.9637 19.0669V10.2145C12.9637 9.95577 12.7541 9.74609 12.4954 9.74609Z" fill="#FB7575"/>
</svg>
