<svg width="18" height="18" viewBox="0 0 18 18" fill="none" xmlns="http://www.w3.org/2000/svg">
<g clip-path="url(#clip0)">
<path d="M4.98687 17.1151C6.08866 17.9567 7.39971 18.2039 8.77886 17.8308C8.87492 17.8138 8.97245 17.8063 9.07012 17.8085H9.21261C9.31013 17.8063 9.40766 17.8136 9.50372 17.8306C9.90408 17.9412 10.3175 17.9981 10.7329 18C11.7201 18 12.6438 17.6586 13.4508 16.9868C14.4149 16.1844 15.1676 14.9363 15.5699 13.4728C15.5964 13.3761 15.5832 13.2728 15.5331 13.1861C15.4829 13.0992 15.4002 13.0361 15.3032 13.0106C14.9292 12.9125 14.6252 12.6406 14.486 12.2799C14.3467 11.9191 14.3893 11.5135 14.6003 11.1895C14.7053 11.029 14.6724 10.8152 14.524 10.6939C14.1717 10.4067 14.0115 9.94527 14.1102 9.50156C14.2088 9.05786 14.5492 8.70773 14.99 8.59658C15.0985 8.56905 15.1892 8.49451 15.2369 8.39318C15.2846 8.29184 15.2846 8.17455 15.2367 8.07321C14.7623 7.06851 14.0584 6.34804 13.1447 5.93157C12.1513 5.47878 10.9513 5.41216 9.57811 5.73373C9.57372 5.73476 9.56918 5.73578 9.56479 5.7371C9.42743 5.78001 9.28524 5.80534 9.14158 5.81237H9.12884C8.9909 5.8071 8.85413 5.78337 8.72248 5.74179C8.71662 5.74017 8.71077 5.73856 8.70491 5.73725C6.93404 5.32297 5.41475 5.56665 4.3112 6.44176C3.08201 7.41673 2.40503 9.12068 2.40503 11.2396C2.40796 12.364 2.63376 13.4767 3.06912 14.5135C3.53069 15.6098 4.19376 16.5093 4.98687 17.1151ZM4.77717 7.02926C5.40099 6.53445 6.17403 6.28653 7.08648 6.28653C7.57148 6.29107 8.05429 6.35111 8.52567 6.46533C8.72146 6.52522 8.92456 6.55788 9.12914 6.56213H9.14188C9.35011 6.55656 9.55673 6.52288 9.75603 6.46211C12.3787 5.8503 13.7041 6.90157 14.371 8.0369C13.8419 8.31674 13.4704 8.82414 13.3634 9.41311C13.2565 10.0022 13.4258 10.6077 13.8226 11.0558C13.3981 12.0156 13.8074 13.1392 14.7497 13.6009C14.3719 14.7752 13.7476 15.7644 12.9712 16.4106C12.0172 17.2046 10.9135 17.4382 9.69102 17.1046C9.68501 17.103 9.67886 17.1015 9.67271 17.1C9.52144 17.0697 9.3671 17.0558 9.21275 17.0589H9.07027C8.91592 17.056 8.76173 17.0697 8.61046 17.1C8.60431 17.1015 8.59816 17.103 8.592 17.1046C7.42666 17.4225 6.36704 17.2255 5.44214 16.5193C4.07412 15.4746 3.15508 13.3527 3.15508 11.2396C3.15479 9.35425 3.73087 7.85912 4.77717 7.02926Z" fill="#FF453A"/>
<path d="M7.41994 5.14727L9.07527 5.50369C9.1725 5.52478 9.27398 5.50633 9.3576 5.4523C9.44107 5.39841 9.49979 5.31347 9.52058 5.21624L9.87716 3.56076C9.87745 3.55945 9.87774 3.55813 9.87804 3.55681C10.174 2.10606 9.25246 0.68576 7.80697 0.364916L6.15164 0.00834117C5.94912 -0.0351507 5.74982 0.0935677 5.70618 0.295944L5.34961 1.95127C5.34931 1.95259 5.34902 1.95405 5.34873 1.95537C5.05278 3.40613 5.97431 4.82642 7.41994 5.14727ZM6.08296 2.10693L6.36017 0.82019L7.64648 1.0971C8.69087 1.33008 9.35672 2.35617 9.1438 3.40481L8.86674 4.69185L7.58043 4.41479C6.53604 4.18195 5.87019 3.15586 6.08311 2.10708L6.08296 2.10693Z" fill="#FF453A"/>
</g>
<defs>
<clipPath id="clip0">
<rect width="18" height="18" fill="white"/>
</clipPath>
</defs>
</svg>
