<svg width="20" height="20" viewBox="0 0 20 20" fill="none" xmlns="http://www.w3.org/2000/svg">
<path fill-rule="evenodd" clip-rule="evenodd" d="M13.7726 4C13.606 4 13.4326 4.06667 13.306 4.19333L12.086 5.41333L14.586 7.91333L15.806 6.69333C16.066 6.43333 16.066 6.01333 15.806 5.75333L14.246 4.19333C14.1126 4.06 13.946 4 13.7726 4ZM11.3726 8.01333L11.9859 8.62666L5.94593 14.6667H5.3326V14.0533L11.3726 8.01333ZM3.99927 13.5L11.3726 6.12669L13.8726 8.62669L6.49927 16H3.99927V13.5Z" fill="#232230"/>
<rect width="20" height="20" rx="5" fill="#6977DF"/>
<path fill-rule="evenodd" clip-rule="evenodd" d="M13.7726 4C13.606 4 13.4326 4.06667 13.306 4.19333L12.086 5.41333L14.586 7.91333L15.806 6.69333C16.066 6.43333 16.066 6.01333 15.806 5.75333L14.246 4.19333C14.1126 4.06 13.946 4 13.7726 4ZM11.3726 8.01333L11.9859 8.62666L5.94593 14.6667H5.3326V14.0533L11.3726 8.01333ZM3.99927 13.5L11.3726 6.12669L13.8726 8.62669L6.49927 16H3.99927V13.5Z" fill="white"/>
</svg>
