<svg width="20" height="20" viewBox="0 0 20 20" fill="none" xmlns="http://www.w3.org/2000/svg">
<path d="M17.9027 4.764L15.236 2.09734C15.1733 2.03534 15.0887 2 15 2H3C2.44866 2 2 2.44866 2 3V17C2 17.5513 2.44866 18 3 18H17C17.5513 18 18 17.5513 18 17V5C18 4.91134 17.9647 4.82666 17.9027 4.764ZM17.3333 17C17.3333 17.184 17.1833 17.3333 17 17.3333H3C2.81666 17.3333 2.66666 17.184 2.66666 17V3C2.66666 2.816 2.81666 2.66666 3 2.66666H14.862L17.3333 5.138V17Z" fill="black"/>
<path d="M13.6667 2H6.33334C6.14934 2 6 2.14934 6 2.33334V6.33334C6 6.88469 6.44866 7.33334 7 7.33334H13C13.5513 7.33334 14 6.88469 14 6.33334V2.33334C14 2.14934 13.8507 2 13.6667 2ZM13.3333 6.33334C13.3333 6.51734 13.1833 6.66669 13 6.66669H7C6.81666 6.66669 6.66666 6.51734 6.66666 6.33334V2.66666H13.3333V6.33334H13.3333Z" fill="black"/>
<path d="M14.3333 8H5.66666C4.74734 8 4 8.748 4 9.66666V17.6667C4 17.8507 4.14934 18 4.33334 18H15.6667C15.8507 18 16 17.8507 16 17.6667V9.66666C16 8.748 15.2527 8 14.3333 8ZM15.3333 17.3333H4.66666V9.66666C4.66666 9.11531 5.11531 8.66666 5.66666 8.66666H14.3333C14.8847 8.66666 15.3333 9.11531 15.3333 9.66666V17.3333H15.3333Z" fill="black"/>
<path d="M12.3334 3.33334H11.0001C10.8161 3.33334 10.6667 3.48269 10.6667 3.66669V5.66668C10.6667 5.85068 10.8161 6.00002 11.0001 6.00002H12.3334C12.5174 6.00002 12.6668 5.85068 12.6668 5.66668V3.66669C12.6667 3.48266 12.5174 3.33334 12.3334 3.33334ZM12.0001 5.33334H11.3334V4H12.0001V5.33334Z" fill="black"/>
<path d="M13.6667 10.6667H6.33334C6.14934 10.6667 6 10.816 6 11C6 11.184 6.14934 11.3333 6.33334 11.3333H13.6667C13.8507 11.3333 14 11.184 14 11C14 10.816 13.8507 10.6667 13.6667 10.6667Z" fill="black"/>
<path d="M13.6667 12.6667H6.33334C6.14934 12.6667 6 12.816 6 13C6 13.184 6.14934 13.3333 6.33334 13.3333H13.6667C13.8507 13.3333 14 13.184 14 13C14 12.816 13.8507 12.6667 13.6667 12.6667Z" fill="black"/>
<path d="M13.6667 14.6667H6.33334C6.14934 14.6667 6 14.816 6 15C6 15.184 6.14934 15.3333 6.33334 15.3333H13.6667C13.8507 15.3333 14 15.184 14 15C14 14.816 13.8507 14.6667 13.6667 14.6667Z" fill="black"/>
</svg>
