<svg width="16" height="16" viewBox="0 0 16 16" fill="none" xmlns="http://www.w3.org/2000/svg">
<rect width="16" height="16" fill="#C590EF"/>
<path d="M10.3333 2.66663C10.2919 2.66663 6.33325 2.66663 6.33325 2.66663C5.62791 2.66663 4.99992 3.31363 4.99992 3.99997L4.61459 4.00896C3.90959 4.00896 3.33325 4.64696 3.33325 5.33329V12C3.33325 12.6863 3.96125 13.3333 4.66659 13.3333H9.6666C10.3719 13.3333 10.9999 12.6863 10.9999 12H11.3333C12.0386 12 12.6666 11.353 12.6666 10.6666V5.3413L10.3333 2.66663ZM9.6666 12.6666H4.66659C4.31659 12.6666 3.99993 12.3397 3.99993 12V5.33329C3.99993 4.99363 4.28493 4.67763 4.63493 4.67763L4.99992 4.66663V10.6666C4.99992 11.353 5.62791 12 6.33325 12H10.3333C10.3333 12.3396 10.0166 12.6666 9.6666 12.6666ZM11.9999 10.6666C11.9999 11.0063 11.6833 11.3333 11.3333 11.3333H6.33325C5.98325 11.3333 5.66659 11.0063 5.66659 10.6666V3.99997C5.66659 3.66031 5.98325 3.3333 6.33325 3.3333H9.6666C9.66124 4.10097 9.6666 4.67497 9.6666 4.67497C9.6666 5.36764 10.2899 5.99997 10.9999 5.99997C10.9999 5.99997 11.3539 5.99997 11.9999 5.99997V10.6666ZM10.9999 5.33329C10.6449 5.33329 10.3333 4.6883 10.3333 4.3423C10.3333 4.3423 10.3333 3.99162 10.3333 3.34363V3.34296L11.9999 5.33329H10.9999ZM10.3333 7.33931H7.33326C7.14926 7.33931 6.99993 7.4883 6.99993 7.6723C6.99993 7.8563 7.14926 8.0053 7.33326 8.0053H10.3333C10.5173 8.0053 10.6666 7.85628 10.6666 7.6723C10.6666 7.4883 10.5173 7.33931 10.3333 7.33931ZM10.3333 9.0043H7.33326C7.14926 9.0043 6.99993 9.1533 6.99993 9.33728C6.99993 9.52129 7.14926 9.67029 7.33326 9.67029H10.3333C10.5173 9.67029 10.6666 9.52129 10.6666 9.33728C10.6666 9.1533 10.5173 9.0043 10.3333 9.0043Z" fill="black"/>
</svg>
