<svg width="14" height="14" viewBox="0 0 14 14" fill="none" xmlns="http://www.w3.org/2000/svg">
<path d="M5.83435 0.845093H8.17416V1.2388H9.01915V0.789978C9.01926 0.354401 8.66507 0 8.22971 0H5.77881C5.34344 0 4.98926 0.354401 4.98926 0.789978V1.2388H5.83435V0.845093Z" fill="black"/>
<path d="M10.9706 4.58691H3.03796C2.8206 4.58691 2.64949 4.77234 2.66701 4.98906L3.3302 13.1896C3.36716 13.6474 3.74901 14 4.20776 14H9.80073C10.2595 14 10.6413 13.6474 10.6783 13.1895L11.3415 4.98906C11.3591 4.77234 11.188 4.58691 10.9706 4.58691ZM4.95875 13.1253C4.94989 13.1259 4.94102 13.1262 4.93226 13.1262C4.71074 13.1262 4.52478 12.9537 4.511 12.7296L4.0954 5.99736C4.08108 5.7644 4.25828 5.56392 4.49113 5.54961C4.72323 5.53551 4.92457 5.71228 4.93889 5.94534L5.35438 12.6776C5.3688 12.9105 5.1916 13.1109 4.95875 13.1253ZM7.43155 12.7036C7.43155 12.9369 7.24238 13.1261 7.009 13.1261C6.77562 13.1261 6.58645 12.9369 6.58645 12.7036V5.9713C6.58645 5.73792 6.77562 5.54875 7.009 5.54875C7.24228 5.54875 7.43155 5.73792 7.43155 5.9713V12.7036ZM9.91321 5.99619L9.5164 12.7284C9.50326 12.9529 9.31698 13.1261 9.09503 13.1261C9.0867 13.1261 9.07826 13.1259 9.06982 13.1254C8.83687 13.1116 8.65913 12.9117 8.67291 12.6787L9.06961 5.94641C9.08328 5.71346 9.28259 5.53572 9.51619 5.5495C9.74914 5.56317 9.92688 5.76323 9.91321 5.99619Z" fill="black"/>
<path d="M12.4318 3.28293L12.1543 2.45108C12.0811 2.2318 11.8758 2.08386 11.6446 2.08386H2.36383C2.13269 2.08386 1.92729 2.2318 1.85423 2.45108L1.57674 3.28293C1.52322 3.44336 1.59287 3.60699 1.72286 3.6886C1.77583 3.72182 1.83853 3.74179 1.90743 3.74179H12.1011C12.17 3.74179 12.2328 3.72182 12.2857 3.68849C12.4157 3.60689 12.4853 3.44325 12.4318 3.28293Z" fill="black"/>
</svg>
