<svg width="16" height="16" viewBox="0 0 16 16" fill="none" xmlns="http://www.w3.org/2000/svg" >
<rect width="16" height="16" fill="#C590EF"/>
<g clip-path="url(#clip0)">
<path d="M7.1119 3.31054H8.89461V3.6105H9.53841V3.26854C9.53849 2.93668 9.26864 2.66666 8.93693 2.66666H7.06958C6.73787 2.66666 6.46802 2.93668 6.46802 3.26854V3.6105H7.1119V3.31054Z" fill="black"/>
<path d="M11.0253 6.16144H4.98133C4.81572 6.16144 4.68535 6.30271 4.69869 6.46783L5.20398 12.7159C5.23214 13.0647 5.52308 13.3333 5.8726 13.3333H10.1339C10.4834 13.3333 10.7744 13.0647 10.8025 12.7158L11.3078 6.46783C11.3213 6.30271 11.1909 6.16144 11.0253 6.16144V6.16144ZM6.44479 12.6669C6.43803 12.6673 6.43128 12.6675 6.42461 12.6675C6.25582 12.6675 6.11414 12.5361 6.10364 12.3654L5.78699 7.23606C5.77609 7.05857 5.9111 6.90582 6.08851 6.89492C6.26534 6.88418 6.41875 7.01886 6.42965 7.19643L6.74622 12.3257C6.75721 12.5032 6.6222 12.6559 6.44479 12.6669V12.6669ZM8.32882 12.3456C8.32882 12.5233 8.1847 12.6675 8.00688 12.6675C7.82907 12.6675 7.68494 12.5233 7.68494 12.3456V7.21621C7.68494 7.03839 7.82907 6.89427 8.00688 6.89427C8.18462 6.89427 8.32882 7.03839 8.32882 7.21621V12.3456ZM10.2196 7.23517L9.91728 12.3645C9.90727 12.5355 9.76534 12.6675 9.59624 12.6675C9.58989 12.6675 9.58346 12.6673 9.57703 12.667C9.39954 12.6565 9.26412 12.5041 9.27462 12.3266L9.57687 7.19725C9.58728 7.01975 9.73914 6.88434 9.91712 6.89484C10.0946 6.90525 10.23 7.05768 10.2196 7.23517V7.23517Z" fill="black"/>
<path d="M12.1386 5.16797L11.9272 4.53418C11.8714 4.36711 11.715 4.25439 11.5388 4.25439H4.46776C4.29166 4.25439 4.13516 4.36711 4.0795 4.53418L3.86807 5.16797C3.8273 5.2902 3.88036 5.41488 3.9794 5.47705C4.01976 5.50236 4.06753 5.51758 4.12002 5.51758H11.8866C11.9391 5.51758 11.987 5.50236 12.0273 5.47697C12.1263 5.41479 12.1794 5.29012 12.1386 5.16797Z" fill="black"/>
</g>
<defs>
<clipPath id="clip0">
<rect width="10.6667" height="10.6667" fill="white" transform="translate(2.66675 2.66666)"/>
</clipPath>
</defs>
</svg>
