<svg width="16" height="16" viewBox="0 0 16 16" fill="none" xmlns="http://www.w3.org/2000/svg">
<rect width="16" height="16" fill="white"/>
<rect width="16" height="16" fill="#C590EF"/>
<path fill-rule="evenodd" clip-rule="evenodd" d="M11.501 7.99998C11.501 8.15865 11.487 8.30798 11.4684 8.45731L12.453 9.22731C12.5417 9.29731 12.565 9.42331 12.509 9.52598L11.5757 11.1406C11.5337 11.2153 11.4544 11.2573 11.375 11.2573C11.347 11.2573 11.319 11.2526 11.291 11.2433L10.129 10.7766C9.88638 10.9586 9.62505 11.1173 9.34038 11.234L9.16305 12.4706C9.14905 12.5826 9.05105 12.6666 8.93438 12.6666H7.06772C6.95105 12.6666 6.85305 12.5826 6.83905 12.4706L6.66172 11.234C6.37705 11.1173 6.11572 10.9633 5.87305 10.7766L4.71105 11.2433C4.68771 11.2526 4.65971 11.2573 4.63171 11.2573C4.54771 11.2573 4.46838 11.2153 4.42638 11.1406L3.49305 9.52598C3.43705 9.42331 3.46038 9.29731 3.54905 9.22731L4.53371 8.45731C4.51505 8.30798 4.50105 8.15398 4.50105 7.99998C4.50105 7.84598 4.51505 7.69198 4.53371 7.54265L3.54905 6.77265C3.46038 6.70265 3.43238 6.57665 3.49305 6.47398L4.42638 4.85931C4.46838 4.78465 4.54771 4.74265 4.62705 4.74265C4.65505 4.74265 4.68305 4.74731 4.71105 4.75665L5.87305 5.22331C6.11572 5.04131 6.37705 4.88265 6.66172 4.76598L6.83905 3.52931C6.85305 3.41731 6.95105 3.33331 7.06772 3.33331H8.93438C9.05105 3.33331 9.14905 3.41731 9.16305 3.52931L9.34038 4.76598C9.62505 4.88265 9.88638 5.03665 10.129 5.22331L11.291 4.75665C11.3144 4.74731 11.3424 4.74265 11.3704 4.74265C11.4544 4.74265 11.5337 4.78465 11.5757 4.85931L12.509 6.47398C12.565 6.57665 12.5417 6.70265 12.453 6.77265L11.4684 7.54265C11.487 7.69198 11.501 7.84131 11.501 7.99998ZM10.5677 7.99998C10.5677 7.90198 10.5631 7.80398 10.5444 7.65931L10.4791 7.13198L10.8944 6.80531L11.3937 6.40864L11.0671 5.84398L10.4744 6.08198L9.97972 6.28264L9.55505 5.95598C9.36839 5.81598 9.18172 5.70864 8.98105 5.62464L8.48639 5.42398L8.41172 4.89664L8.32305 4.26664H7.67439L7.58105 4.89664L7.50639 5.42398L7.01172 5.62464C6.82039 5.70398 6.62905 5.81598 6.42839 5.96531L6.00839 6.28264L5.52305 6.08664L4.93039 5.84864L4.60372 6.41331L5.10772 6.80531L5.52305 7.13198L5.45772 7.65931C5.44372 7.79931 5.43439 7.90664 5.43439 7.99998C5.43439 8.09331 5.44372 8.20064 5.45772 8.34531L5.52305 8.87264L5.10772 9.19931L4.60372 9.59131L4.93039 10.156L5.52305 9.91798L6.01772 9.71731L6.44239 10.044C6.62905 10.184 6.81572 10.2913 7.01639 10.3753L7.51105 10.576L7.58572 11.1033L7.67439 11.7333H8.32772L8.42105 11.1033L8.49572 10.576L8.99039 10.3753C9.18172 10.296 9.37305 10.184 9.57372 10.0346L9.99372 9.71731L10.4791 9.91331L11.0717 10.1513L11.3984 9.58664L10.8944 9.19464L10.4791 8.86798L10.5444 8.34064C10.5584 8.20064 10.5677 8.09798 10.5677 7.99998ZM8.00105 6.13331C6.96971 6.13331 6.13438 6.96865 6.13438 7.99998C6.13438 9.03131 6.96971 9.86665 8.00105 9.86665C9.03238 9.86665 9.86771 9.03131 9.86771 7.99998C9.86771 6.96865 9.03238 6.13331 8.00105 6.13331ZM7.06771 7.99998C7.06771 8.51331 7.48771 8.93331 8.00104 8.93331C8.51437 8.93331 8.93437 8.51331 8.93437 7.99998C8.93437 7.48664 8.51437 7.06664 8.00104 7.06664C7.48771 7.06664 7.06771 7.48664 7.06771 7.99998Z" fill="black"/>
</svg>
