<svg width="14" height="14" viewBox="0 0 14 14" fill="none" xmlns="http://www.w3.org/2000/svg">
<path d="M11.8819 9.04199C11.4445 8.68804 10.8538 8.74968 10.4763 9.19003L8.63744 11.3611C8.71442 11.1856 8.75781 10.9869 8.75781 10.7766C8.75781 10.0664 8.26256 9.48867 7.65413 9.48867L4.15111 9.48368C3.66072 9.48368 3.33717 9.59122 3.1329 9.82218C2.93323 10.0479 2.89689 10.3344 2.86768 10.5646C2.86451 10.5896 2.86136 10.6142 2.85811 10.6384H2.68274C2.65091 10.503 2.54492 10.4036 2.41908 10.4036H0.273209C0.122181 10.4036 -0.000244141 10.5468 -0.000244141 10.7235V13.3557C-0.000244141 13.5324 0.122181 13.6756 0.273209 13.6756H2.41905C2.54922 13.6756 2.65816 13.5692 2.68575 13.4266H3.04529C3.24157 13.781 3.57973 14.0005 3.95037 14.0005H9.13474C9.36206 14.0005 9.5758 13.8973 9.73773 13.7087L12.0325 11.0042C12.2637 10.7347 12.3797 10.3623 12.3506 9.98247C12.3216 9.60226 12.1507 9.25947 11.8819 9.04199ZM2.1456 13.0358H0.546663V11.0433H2.1456V13.0358ZM11.6454 10.5522L9.35069 13.2566C9.29313 13.3237 9.21642 13.3607 9.13474 13.3607H3.95034C3.7359 13.3607 3.54366 13.2121 3.46053 12.9821C3.41776 12.8637 3.31855 12.7868 3.20868 12.7868H2.69251V11.2781H3.07381C3.18899 11.2781 3.29181 11.1937 3.33097 11.067C3.3748 10.9253 3.39279 10.7836 3.40865 10.6585C3.43239 10.4715 3.45014 10.3532 3.51298 10.2822C3.57702 10.2097 3.73972 10.1234 4.15075 10.1234L7.6538 10.1284C7.96097 10.1284 8.21091 10.4191 8.21091 10.7765C8.21091 11.1339 7.96097 11.4247 7.6538 11.4247C7.65309 11.4247 7.65241 11.4247 7.65172 11.4247H5.37905C5.22802 11.4247 5.1056 11.5679 5.1056 11.7446C5.1056 11.9212 5.22802 12.0645 5.37905 12.0645L8.69741 12.0646H8.69744C8.77039 12.0646 8.84034 12.0305 8.89167 11.9698L10.8636 9.64167C11.053 9.42073 11.3504 9.38976 11.5708 9.5681C11.7056 9.67721 11.7913 9.84899 11.8059 10.0394C11.8204 10.2295 11.7623 10.4159 11.6454 10.5522Z" fill="#6D7189"/>
<path d="M13.7257 0.573837H12.551C12.3547 0.219503 12.0165 0 11.6459 0H10.1539C10.0029 0 9.88044 0.143211 9.88044 0.319882C9.88044 0.496553 10.0029 0.639765 10.1539 0.639765H11.6459C11.8603 0.639765 12.0526 0.78835 12.1357 1.01828C12.1785 1.13667 12.2777 1.21357 12.3876 1.21357H13.4523V2.72226H12.5224C12.4073 2.72226 12.3044 2.80668 12.2653 2.93335C12.2214 3.07512 12.2035 3.21683 12.1876 3.34187C12.1639 3.52891 12.1461 3.64711 12.0833 3.71822C12.0192 3.79064 11.8565 3.87697 11.4455 3.87697L7.94247 3.87198C7.63528 3.87198 7.38534 3.58124 7.38534 3.22384C7.38534 2.86646 7.63528 2.57572 7.94247 2.57572C7.94318 2.57572 7.94387 2.57569 7.94458 2.57569H10.2173C10.3683 2.57569 10.4907 2.43248 10.4907 2.25581C10.4907 2.07914 10.3683 1.93593 10.2173 1.93593L6.89892 1.9358H6.89889C6.82594 1.9358 6.75599 1.9699 6.70463 2.03055L4.73265 4.35872C4.5432 4.57966 4.24579 4.61065 4.02547 4.43229C3.89061 4.32318 3.8049 4.1514 3.79033 3.96104C3.77578 3.77096 3.83392 3.5845 3.95085 3.4482L6.24556 0.74379C6.30312 0.676711 6.37982 0.639765 6.46148 0.639765H7.67424C7.82524 0.639765 7.9477 0.496553 7.9477 0.319882C7.9477 0.143211 7.82524 0 7.67424 0H6.46148C6.23416 0 6.0204 0.103162 5.85849 0.291797L3.56377 2.99624C3.33251 3.26574 3.21654 3.63818 3.24561 4.01804C3.27468 4.39819 3.44553 4.74097 3.71434 4.95843C3.90425 5.11213 4.12304 5.18747 4.34076 5.18747C4.48146 5.18747 4.62168 5.15599 4.75338 5.0939C4.7533 5.10391 4.75324 5.11389 4.75324 5.12391C4.75324 6.92823 6.00795 8.39617 7.5502 8.39617C9.09245 8.39617 10.3472 6.92823 10.3472 5.12391C10.3472 4.91851 10.331 4.7149 10.2988 4.51511L11.4451 4.51674C11.9355 4.51674 12.259 4.40919 12.4633 4.17824C12.663 3.9525 12.6993 3.66601 12.7285 3.43582C12.7317 3.41084 12.7348 3.38621 12.7381 3.36203H13.7257C13.8767 3.36203 13.9992 3.21881 13.9992 3.04214V0.893719C13.9992 0.717048 13.8767 0.573837 13.7257 0.573837ZM7.94215 4.51178L8.37661 4.51239C8.47609 4.69504 8.52827 4.90427 8.52827 5.12391C8.52827 5.75487 8.08954 6.26822 7.55023 6.26822C7.01093 6.26822 6.57214 5.75487 6.57214 5.12391C6.57214 4.68125 6.79402 4.28018 7.12761 4.09203C7.32964 4.34982 7.62002 4.51178 7.94215 4.51178ZM7.55023 7.75644C6.30955 7.75644 5.30018 6.5755 5.30018 5.12394C5.30018 4.92318 5.31951 4.72351 5.35766 4.52982L6.95878 2.63944C6.88186 2.81493 6.83843 3.01361 6.83843 3.22387C6.83843 3.32853 6.84921 3.43032 6.8695 3.52782C6.36156 3.82611 6.02529 4.44348 6.02529 5.12394C6.02529 6.10767 6.70939 6.90802 7.55029 6.90802C8.39113 6.90802 9.07523 6.10767 9.07523 5.12394C9.07523 4.91221 9.04414 4.70668 8.98378 4.51328L9.73977 4.51437C9.78 4.71305 9.80034 4.91729 9.80034 5.12394C9.80032 6.5755 8.79095 7.75644 7.55023 7.75644Z" fill="#6D7189"/>
<path d="M8.65761 0.442207C8.70076 0.56533 8.80997 0.646356 8.92365 0.639415C9.03637 0.632537 9.13574 0.543354 9.17033 0.417736C9.20522 0.291127 9.16746 0.147116 9.0767 0.0663137C8.98425 -0.015992 8.85531 -0.0206943 8.75848 0.0541901C8.65121 0.1372 8.60817 0.30341 8.65761 0.442207Z" fill="#6D7189"/>
</svg>
