<svg width="14" height="12" viewBox="0 0 14 12" fill="none" xmlns="http://www.w3.org/2000/svg">
<path d="M12.3592 6.00494C12.2449 6.00494 12.1406 5.93128 12.102 5.82376C12.0635 5.7166 12.0973 5.59243 12.1857 5.52019C12.2755 5.44683 12.4049 5.43857 12.5034 5.49946C12.5988 5.55842 12.6497 5.67506 12.6274 5.7851C12.6019 5.91129 12.4879 6.00494 12.3592 6.00494Z" fill="#6D7189"/>
<path d="M12.3591 4.76393C12.5101 4.76393 12.6326 4.64151 12.6326 4.49049V1.78098C12.6326 1.62996 12.5101 1.50754 12.3591 1.50754H1.64038C1.48936 1.50754 1.36694 1.62996 1.36694 1.78098V10.2191C1.36694 10.3701 1.48936 10.4926 1.64038 10.4926H12.3591C12.5101 10.4926 12.6326 10.3701 12.6326 10.2191V6.96273C12.6326 6.81171 12.5101 6.68929 12.3591 6.68929C12.2081 6.68929 12.0857 6.81171 12.0857 6.96273V9.78416L8.71383 5.97233C8.66193 5.91365 8.58736 5.88005 8.50902 5.88005C8.43068 5.88005 8.35611 5.91365 8.30422 5.97233L6.48452 8.02946L5.24538 6.64051C5.19411 6.58303 5.12097 6.54983 5.04391 6.54912C4.96626 6.5477 4.89311 6.58019 4.84075 6.63671L1.91382 9.79554V2.05441H12.0857V4.49049C12.0857 4.64151 12.2081 4.76393 12.3591 4.76393ZM8.50899 6.56619L11.4984 9.94565H5.51958L8.50899 6.56619ZM5.03749 7.22897L6.11962 8.44194L4.78945 9.94565H2.52028L5.03749 7.22897Z" fill="#6D7189"/>
<path d="M5.92371 5.7923C5.11228 5.7923 4.45215 5.13217 4.45215 4.32074C4.45215 3.50932 5.11231 2.84918 5.92371 2.84918C6.73511 2.84918 7.39527 3.50934 7.39527 4.32074C7.39527 5.13214 6.73513 5.7923 5.92371 5.7923ZM5.92371 3.39606C5.41383 3.39606 4.99902 3.81086 4.99902 4.32074C4.99902 4.83059 5.41383 5.24542 5.92371 5.24542C6.43356 5.24542 6.84839 4.83062 6.84839 4.32074C6.84839 3.81086 6.43356 3.39606 5.92371 3.39606Z" fill="#6D7189"/>
<path d="M12.8589 11.8597H1.14062C0.511549 11.8597 -0.000244141 11.348 -0.000244141 10.7189V1.28121C-0.000244141 0.652143 0.511549 0.14035 1.14062 0.14035H12.8589C13.488 0.14035 13.9998 0.652143 13.9998 1.28121V10.7189C13.9998 11.348 13.488 11.8597 12.8589 11.8597ZM1.14062 0.687225C0.813096 0.687225 0.546631 0.95369 0.546631 1.28121V10.7189C0.546631 11.0464 0.813096 11.3128 1.14062 11.3128H12.8589C13.1864 11.3128 13.4529 11.0464 13.4529 10.7189V1.28121C13.4529 0.95369 13.1864 0.687225 12.8589 0.687225H1.14062Z" fill="#6D7189"/>
</svg>
