<svg width="16" height="16" viewBox="0 0 16 16" fill="none" xmlns="http://www.w3.org/2000/svg">
<g clip-path="url(#clip0)">
<path d="M14.052 5.83007C13.5186 5.82142 13.1561 5.70598 12.9119 5.4667C12.6451 5.20521 12.5076 4.77882 12.4917 4.15784C12.4886 4.05079 12.4004 3.96595 12.2934 3.96711H2.62505C2.518 3.96595 2.42967 4.05079 2.4267 4.15784C2.40927 4.83977 2.31953 5.2495 2.13603 5.48891C1.95835 5.7207 1.66264 5.82245 1.15813 5.83059C1.04915 5.83175 0.960691 5.9193 0.958496 6.02829V9.02991C0.960691 9.13916 1.04902 9.22684 1.15826 9.22826C2.0601 9.24285 2.38887 9.50369 2.42438 10.9085C2.42761 11.0177 2.5158 11.1052 2.62505 11.1075H12.2756C12.3842 11.1049 12.4716 11.0174 12.4739 10.9088C12.5039 9.73677 12.9614 9.24879 14.052 9.23123C14.1609 9.22813 14.2475 9.13903 14.2475 9.03004V6.02854C14.2474 5.92008 14.1604 5.83175 14.052 5.83007ZM13.8508 8.83996C12.7269 8.91757 12.1693 9.52073 12.0864 10.7108H2.81629C2.78362 10.0166 2.66689 9.61397 2.44607 9.32781C2.21906 9.03404 1.8841 8.87651 1.35518 8.83996V6.21837C1.8841 6.18143 2.21803 6.02971 2.44633 5.73155C2.66676 5.44384 2.78323 5.02495 2.81629 4.3638H12.1041C12.147 4.99189 12.3217 5.44604 12.6346 5.75259C12.9179 6.03022 13.322 6.18169 13.851 6.21862L13.8508 8.83996Z" fill="#6D7189"/>
<path d="M7.52877 4.75656C5.99755 4.75656 4.75623 5.99788 4.75623 7.5291C4.75623 9.06045 5.99755 10.3018 7.52877 10.3018C9.05998 10.3018 10.3013 9.06045 10.3013 7.5291C10.2996 5.99866 9.05934 4.75837 7.52877 4.75656ZM7.52877 9.90496C6.21668 9.90508 5.15291 8.84132 5.15291 7.5291C5.15291 6.21702 6.21668 5.15325 7.52877 5.15325C8.84098 5.15325 9.90462 6.21702 9.90462 7.5291C9.9032 8.84067 8.84033 9.90353 7.52877 9.90496Z" fill="#6D7189"/>
<path d="M15.809 3.9343H15.0738V3.19709C15.0738 3.08759 14.9767 3.00869 14.8672 3.00869H0.190235C0.139487 3.00676 0.0901595 3.02587 0.0541323 3.06164C0.017976 3.09728 -0.0016517 3.14635 -0.000231275 3.19709V11.8618C-0.00216822 11.9143 0.0168138 11.9653 0.0524536 12.0038C0.0882226 12.0421 0.137808 12.0647 0.190235 12.0664H0.92537V12.8036C0.92537 12.9131 1.02248 12.992 1.13211 12.992H15.809C15.8597 12.9939 15.9091 12.9748 15.9451 12.9392C15.9812 12.9034 16.0009 12.8543 15.9995 12.8036V4.13884C16.0015 4.08641 15.9825 4.03541 15.9468 3.99705C15.911 3.9587 15.8614 3.93611 15.809 3.9343ZM0.396455 3.40538H14.6772V11.6697H0.396455V3.40538ZM15.6028 12.5953H1.32206V12.0664H14.8672C14.9796 12.0642 15.0705 11.9742 15.0738 11.8618V4.33098H15.6028V12.5953Z" fill="#6D7189"/>
</g>
<defs>
<clipPath id="clip0">
<rect width="16" height="16" fill="white" transform="translate(-0.000244141)"/>
</clipPath>
</defs>
</svg>
