<svg width="14" height="14" viewBox="0 0 14 14" fill="none" xmlns="http://www.w3.org/2000/svg">
<g clip-path="url(#clip0)">
<path d="M9.51592 4.24237C9.3647 4.24237 9.24194 4.36456 9.24194 4.5157C9.24194 4.66673 9.3647 4.78914 9.51592 4.78914C9.66746 4.78914 9.78989 4.66673 9.78989 4.5157C9.78989 4.36456 9.66746 4.24237 9.51592 4.24237Z" fill="#6D7189"/>
<path d="M4.53789 9.21051C4.38635 9.21051 4.26392 9.33302 4.26392 9.48395C4.26392 9.63519 4.38635 9.75739 4.53789 9.75739C4.68911 9.75739 4.81186 9.63519 4.81186 9.48395C4.81186 9.33302 4.68911 9.21051 4.53789 9.21051Z" fill="#6D7189"/>
<path d="M13.699 1.68214C13.6065 1.66067 13.5094 1.68855 13.4426 1.75584L12.3068 2.8984H11.7622L11.1628 2.27858V1.72754L12.2824 0.593517C12.3486 0.526439 12.3756 0.429988 12.3536 0.338237C12.3318 0.246593 12.2642 0.172679 12.1747 0.142558C11.8935 0.0479233 11.5991 -3.50937e-05 11.2998 -3.50937e-05C10.4075 -3.50937e-05 9.59679 0.415248 9.0756 1.13932C8.5878 1.81715 8.43743 2.64782 8.65287 3.44282L6.63478 5.45697L3.27262 2.09369V1.43359C3.27262 1.33757 3.22211 1.24849 3.13959 1.19914L1.20241 0.0389511C1.09454 -0.0256699 0.956587 -0.00868683 0.86776 0.0800736L0.0929307 0.853283C0.00410355 0.942043 -0.0129127 1.07972 0.0517277 1.18739L1.21397 3.12079C1.26341 3.20314 1.35256 3.25345 1.44877 3.25355L2.10995 3.25377L5.47243 6.61705L3.46205 8.62351C2.66549 8.4086 1.83276 8.55888 1.15329 9.04605C0.428226 9.5659 0.0124512 10.3748 0.0124512 11.2654C0.0124512 11.564 0.0605034 11.8579 0.155324 12.1385C0.185611 12.2283 0.260418 12.2961 0.352884 12.3175C0.445457 12.3389 0.542524 12.3111 0.609412 12.2438L1.74511 11.1013H2.29263L2.91646 11.7239V12.2704L1.77176 13.4039C1.70434 13.4706 1.67641 13.5675 1.69792 13.6599C1.71932 13.7522 1.78728 13.8268 1.87729 13.8571C2.15843 13.9517 2.45284 13.9997 2.75207 13.9997C3.64441 13.9997 4.45477 13.5846 4.97575 12.8609C5.46387 12.1828 5.61444 11.3518 5.39912 10.5568L7.01374 8.94533L7.3836 9.3463L7.21387 9.5156C7.10685 9.62241 7.10685 9.79555 7.21387 9.90236C7.32089 10.0091 7.49426 10.0091 7.60139 9.90236L7.75507 9.74898L11.2253 13.5111C11.2279 13.5139 11.2306 13.5165 11.2332 13.5192C11.8754 14.1601 12.9157 14.1603 13.5582 13.5191C14.1988 12.8794 14.1988 11.8385 13.5582 11.1988C13.5554 11.1961 13.5525 11.1934 13.5496 11.1907L9.77423 7.73387L9.9262 7.5822C10.0332 7.47549 10.0332 7.30235 9.9262 7.19554C9.81918 7.08873 9.6458 7.08873 9.53868 7.19554L9.37012 7.36388L8.96761 6.99516L10.59 5.3759C10.8207 5.43742 11.0587 5.46861 11.2998 5.46861C12.8105 5.46861 14.0394 4.24199 14.0394 2.73434C14.0394 2.43559 13.9914 2.14186 13.8966 1.86116C13.8663 1.77133 13.7915 1.7035 13.699 1.68214ZM2.41753 2.78721C2.36616 2.73584 2.29648 2.70967 2.22371 2.70967L1.60406 2.70945L0.631672 1.08912L1.10395 0.617763L2.72467 1.58847V2.20691C2.72467 2.27932 2.75346 2.34875 2.80473 2.40002L6.24736 5.84373L5.85984 6.23039L2.41753 2.78721ZM9.38639 8.12096L13.1746 11.5894C13.5978 12.0163 13.5965 12.7073 13.1706 13.1326C12.7438 13.5585 12.0529 13.5598 11.6244 13.1363L8.14281 9.36189L9.38639 8.12096ZM8.98228 7.75085L7.77134 8.95922L7.40147 8.55824L8.57977 7.38214L8.98228 7.75085ZM11.2998 4.92174C11.0602 4.92174 10.8245 4.88339 10.5996 4.80777C10.501 4.77476 10.3921 4.80018 10.3184 4.87356C8.94493 6.24438 5.98538 9.19805 4.89559 10.2858C4.82196 10.3593 4.79638 10.468 4.82966 10.5665C5.0574 11.2415 4.94846 11.9614 4.53065 12.5419C4.11402 13.1207 3.46569 13.4528 2.75207 13.4528C2.67191 13.4528 2.59218 13.4484 2.5132 13.44L3.38339 12.5782C3.43518 12.5269 3.4644 12.4571 3.4644 12.3841V11.6106C3.4644 11.5381 3.43551 11.4685 3.38414 11.4173L2.59978 10.6344C2.54841 10.5832 2.47874 10.5543 2.40607 10.5543H1.63103C1.55794 10.5543 1.48794 10.5835 1.43647 10.6352L0.573132 11.5037C0.56457 11.4249 0.56029 11.3453 0.56029 11.2653C0.56029 10.553 0.89291 9.90599 1.47296 9.49018C2.05451 9.07318 2.77594 8.96434 3.45231 9.19174C3.55087 9.22496 3.65982 9.19943 3.73345 9.12595C3.74854 9.11099 9.15244 3.71754 9.15629 3.7137C9.22992 3.64021 9.25539 3.53158 9.22222 3.4331C8.99437 2.75816 9.1031 2.03846 9.52059 1.45837C9.93754 0.879024 10.586 0.54684 11.2997 0.54684C11.3823 0.54684 11.4644 0.551433 11.5457 0.560405L10.6936 1.42355C10.6431 1.47471 10.6149 1.54361 10.6149 1.61538V2.38891C10.6149 2.45984 10.6424 2.52787 10.6917 2.57882L11.4487 3.36165C11.5003 3.41505 11.5714 3.44517 11.6458 3.44517H12.4208C12.4938 3.44517 12.5638 3.41612 12.6153 3.36432L13.4786 2.49594C13.4872 2.57477 13.4915 2.65434 13.4915 2.73434C13.4915 3.94046 12.5083 4.92174 11.2998 4.92174Z" fill="#6D7189"/>
<path d="M8.54728 5.09567L5.11888 8.51738C5.01197 8.62408 5.01197 8.79723 5.11888 8.90404C5.2259 9.01085 5.39938 9.01085 5.5064 8.90404L8.93481 5.48233C9.04183 5.37563 9.04183 5.20248 8.93481 5.09567C8.82779 4.98886 8.65431 4.98886 8.54728 5.09567Z" fill="#6D7189"/>
<path d="M12.0095 12.3594C12.1165 12.4659 12.29 12.4659 12.397 12.3588C12.5038 12.2519 12.5035 12.0787 12.3964 11.9721L9.92688 9.51536C9.81976 9.40876 9.64617 9.40908 9.53947 9.516C9.43256 9.62302 9.43288 9.79606 9.54001 9.90266L12.0095 12.3594Z" fill="#6D7189"/>
</g>
<defs>
<clipPath id="clip0">
<rect width="14" height="14" fill="white" transform="translate(-0.000244141)"/>
</clipPath>
</defs>
</svg>
