<svg width="16" height="16" viewBox="0 0 16 16" fill="none" xmlns="http://www.w3.org/2000/svg">
<g clip-path="url(#clip0)">
<path d="M14.8143 1.70703H1.18572C0.531906 1.70703 0 2.23897 0 2.89275V5.17428C0 5.74947 0.306281 6.25444 0.764313 6.53472V13.9805C0.764313 14.1531 0.90425 14.293 1.07681 14.293H14.9232C15.0957 14.293 15.2357 14.1531 15.2357 13.9805V6.53472C15.6937 6.25444 16 5.74947 16 5.17428V2.89275C16 2.23897 15.4681 1.70703 14.8143 1.70703ZM12.8125 5.17428C12.8125 5.70844 12.3779 6.14303 11.8438 6.14303C11.3096 6.14303 10.875 5.70847 10.875 5.17428V2.33203H12.8125V5.17428ZM10.25 5.17428C10.25 5.70844 9.81544 6.14303 9.28125 6.14303C8.74706 6.14303 8.3125 5.70847 8.3125 5.17428V2.33203H10.25V5.17428ZM7.6875 5.17428C7.6875 5.70844 7.25294 6.14303 6.71875 6.14303C6.18456 6.14303 5.75 5.70847 5.75 5.17428V2.33203H7.6875V5.17428ZM5.125 5.17428C5.125 5.70844 4.69044 6.14303 4.15625 6.14303C3.62206 6.14303 3.1875 5.70847 3.1875 5.17428V2.33203H5.125V5.17428ZM0.625 2.89275C0.625 2.58356 0.876563 2.33203 1.18572 2.33203H2.5625V5.17428C2.5625 5.70844 2.12794 6.14303 1.59375 6.14303C1.05956 6.14303 0.625 5.70847 0.625 5.17428V2.89275ZM1.38931 8.76963H4.30653V11.4567H1.38931V8.76963ZM9.34391 13.668H6.65609V8.76963H9.34391V13.668ZM14.6107 11.4567H11.6935V8.76963H14.6107V11.4567ZM14.6107 8.14463H11.381C11.2084 8.14463 11.0685 8.28453 11.0685 8.45713V11.7692C11.0685 11.9418 11.2084 12.0817 11.381 12.0817H14.6107V13.668H9.96891V8.45713C9.96891 8.28453 9.82897 8.14463 9.65641 8.14463H6.34359C6.17103 8.14463 6.03109 8.28453 6.03109 8.45713V13.668H1.38931V12.0817H4.61903C4.79159 12.0817 4.93153 11.9418 4.93153 11.7692V8.45713C4.93153 8.28453 4.79159 8.14463 4.61903 8.14463H1.38931V6.75494C1.45625 6.76356 1.5245 6.768 1.59375 6.768C2.11825 6.768 2.58441 6.51331 2.875 6.12113C3.16559 6.51331 3.63175 6.768 4.15625 6.768C4.68075 6.768 5.14691 6.51331 5.4375 6.12113C5.72809 6.51331 6.19425 6.768 6.71875 6.768C7.24325 6.768 7.70941 6.51331 8 6.12113C8.29059 6.51331 8.75675 6.768 9.28125 6.768C9.80575 6.768 10.2719 6.51331 10.5625 6.12113C10.8531 6.51331 11.3193 6.768 11.8438 6.768C12.3682 6.768 12.8344 6.51331 13.125 6.12113C13.4156 6.51331 13.8818 6.768 14.4062 6.768C14.4755 6.768 14.5437 6.76356 14.6107 6.75494V8.14463ZM15.375 5.17428C15.375 5.70844 14.9404 6.14303 14.4062 6.14303C13.8721 6.14303 13.4375 5.70847 13.4375 5.17428V2.33203H14.8143C15.1235 2.33203 15.375 2.58356 15.375 2.89275V5.17428Z" fill="#6977DF"/>
</g>
<defs>
<clipPath id="clip0">
<rect width="16" height="16" fill="white"/>
</clipPath>
</defs>
</svg>
