<svg width="14" height="14" viewBox="0 0 14 14" fill="none" xmlns="http://www.w3.org/2000/svg">
<g clip-path="url(#clip0)">
<path d="M10.3752 0.0652842C10.3347 0.0235215 10.2791 0 10.221 0H4.81392C4.1864 0.000720046 3.6778 0.509193 3.6772 1.13671V2.15786H2.04894C1.42142 2.15858 0.912952 2.66705 0.912231 3.29457V12.8633C0.912952 13.4908 1.42142 13.9993 2.04894 14H9.20835C9.83587 13.9993 10.3443 13.4908 10.3451 12.8633V11.8413H11.9733C12.6008 11.8406 13.1093 11.332 13.11 10.7046V2.96947C13.11 2.91355 13.0882 2.8599 13.0492 2.8197L10.3752 0.0652842ZM10.4359 0.745368L12.3864 2.75454H10.7218C10.5641 2.7543 10.4363 2.62649 10.436 2.4688V0.745368H10.4359ZM9.91496 12.8633C9.91448 13.2534 9.59838 13.5695 9.20835 13.5699H2.04906C1.65892 13.5695 1.34282 13.2534 1.34246 12.8633V3.29445C1.34282 2.90443 1.65892 2.58833 2.04906 2.58785H3.67732V10.7047C3.67792 11.3321 4.18652 11.8407 4.81404 11.8414H9.91496V12.8633ZM11.9733 11.4112H4.81404C4.42389 11.4107 4.10779 11.0946 4.10743 10.7046V1.13659C4.10779 0.746568 4.42389 0.430468 4.81404 0.429988H10.006V2.46868C10.0064 2.86386 10.3267 3.18404 10.7218 3.18452H12.6799V10.7046C12.6794 11.0946 12.3633 11.4107 11.9733 11.4112Z" fill="#6D7189"/>
<path d="M11.1985 9.55905H5.43441C5.31573 9.55905 5.21936 9.65558 5.21936 9.77446C5.21936 9.89347 5.31573 9.98987 5.43441 9.98987H11.1985C11.3173 9.98987 11.4135 9.89347 11.4135 9.77446C11.4135 9.65558 11.3173 9.55905 11.1985 9.55905Z" fill="#6D7189"/>
<path d="M5.43441 8.64003H8.88511C9.00392 8.64003 9.10017 8.54363 9.10017 8.42463C9.10017 8.30575 9.00392 8.20923 8.88511 8.20923H5.43441C5.31573 8.20923 5.21936 8.30575 5.21936 8.42463C5.21936 8.54363 5.31573 8.64003 5.43441 8.64003Z" fill="#6D7189"/>
<path d="M6.22769 7.04775C6.22901 7.14856 6.31109 7.22968 6.41202 7.22968H6.41394L10.3978 7.18876C10.4468 7.18828 10.4935 7.16824 10.5278 7.1332C10.562 7.09815 10.5808 7.05099 10.5802 7.00203L10.5657 5.89855C10.5916 5.58377 10.4837 5.27271 10.2687 5.04146C10.0535 4.81032 9.75098 4.68035 9.43524 4.68347L9.20711 4.68575C9.12466 4.68659 9.05278 4.74204 9.03106 4.8216L8.79944 5.67066L8.67848 5.45969L8.8304 4.95673C8.84733 4.90093 8.83677 4.84044 8.80196 4.79352C8.76716 4.74672 8.71232 4.71912 8.65399 4.71912H8.65207L8.0752 4.725C8.01652 4.7256 7.96167 4.75404 7.92735 4.80168C7.89315 4.84932 7.88355 4.91041 7.90167 4.96621L8.06488 5.46905L7.97547 5.64594L7.75622 4.8408C7.73438 4.76064 7.66153 4.70495 7.57837 4.70495H7.31939C7.00353 4.70807 6.70352 4.84416 6.49314 5.07974C6.28265 5.31544 6.18112 5.62878 6.21341 5.94308L6.22769 7.04775ZM8.40486 5.09054L8.3685 5.21079L8.32961 5.09126L8.40486 5.09054ZM6.76568 5.32816C6.90669 5.16891 7.10842 5.0765 7.32119 5.07374H7.43736L7.74554 6.20565C7.76402 6.2737 7.81958 6.32518 7.88883 6.33838C7.95807 6.35158 8.02864 6.3241 8.07088 6.26782C8.07736 6.25918 8.08312 6.24994 8.08792 6.24034L8.37498 5.67234L8.7002 6.2395C8.73728 6.30406 8.80964 6.34006 8.88357 6.33058C8.95749 6.32122 9.01834 6.26818 9.03802 6.19629L9.3498 5.05322L9.43872 5.05226C9.65198 5.0501 9.85623 5.13842 10.0008 5.29515C10.1454 5.452 10.217 5.66262 10.1976 5.87515C10.197 5.88151 10.1968 5.88787 10.1969 5.89423L10.2089 6.82202L6.59371 6.85922L6.58171 5.93C6.58159 5.92388 6.58123 5.91788 6.58051 5.91188C6.55579 5.69982 6.62323 5.48729 6.76568 5.32816Z" fill="#6D7189"/>
<path d="M8.33399 4.66769H8.34515C8.94603 4.66157 9.4281 4.16966 9.4221 3.56879L9.41346 2.72465C9.40758 2.25411 9.0226 1.87692 8.55217 1.88064L7.58646 1.89048C7.38905 1.8924 7.23064 2.05417 7.23256 2.25159L7.24624 3.59099C7.25296 4.18719 7.73779 4.66697 8.33399 4.66769ZM7.73311 2.61317C7.68859 2.63669 7.64599 2.66369 7.60567 2.69393L7.60362 2.48968C7.64407 2.5312 7.68727 2.57261 7.73311 2.61317ZM8.84774 4.08314C8.64421 4.29099 8.33543 4.35568 8.06553 4.24707C7.79564 4.13846 7.61779 3.87805 7.61479 3.58715L7.61143 3.26373C7.71619 3.04363 7.88396 2.90983 8.09998 2.87442C8.30939 2.99563 8.54641 3.06128 8.78846 3.06536C8.87559 3.06536 8.96259 3.05588 9.0478 3.03703L9.0532 3.57251C9.05572 3.76332 8.98179 3.94717 8.84786 4.08314H8.84774ZM8.55577 2.24907C8.79578 2.24715 9.00099 2.42128 9.03832 2.65829C8.74322 2.74914 8.43744 2.68169 8.12794 2.45632C8.04525 2.39559 7.96737 2.32863 7.895 2.25579L8.55577 2.24907Z" fill="#6D7189"/>
</g>
<defs>
<clipPath id="clip0">
<rect width="14" height="14" fill="white" transform="translate(-0.000244141)"/>
</clipPath>
</defs>
</svg>
