<svg width="14" height="14" viewBox="0 0 14 14" fill="none" xmlns="http://www.w3.org/2000/svg">
<g clip-path="url(#clip0)">
<path d="M12.4383 11.411C12.3625 11.2797 12.1945 11.2347 12.063 11.3105L11.0644 11.887C10.933 11.9628 10.888 12.1309 10.9639 12.2623C11.0147 12.3504 11.1071 12.3997 11.2021 12.3997C11.2486 12.3997 11.2959 12.3878 11.3391 12.3628L12.3378 11.7863C12.4691 11.7105 12.5142 11.5425 12.4383 11.411Z" fill="#6D7189"/>
<path d="M14.0686 7.95832C14.0685 7.94713 14.0679 7.93595 14.0664 7.92477C14.0663 7.92403 14.0661 7.92329 14.066 7.92255C14.0646 7.91254 14.0625 7.90262 14.06 7.89272C14.0592 7.88993 14.0584 7.88725 14.0577 7.88452C14.0553 7.87653 14.0526 7.86863 14.0495 7.86078C14.0484 7.8581 14.0475 7.85534 14.0463 7.85269C14.042 7.8429 14.0374 7.83325 14.0319 7.82379C14.0317 7.82351 14.0315 7.82321 14.0314 7.82294C14.0259 7.81353 14.0198 7.80473 14.0134 7.79622C14.0116 7.7939 14.0097 7.79168 14.0079 7.78944C14.0026 7.78285 13.997 7.77656 13.9912 7.77055C13.9892 7.7685 13.9872 7.76645 13.9852 7.76448C13.9778 7.75731 13.9701 7.75056 13.962 7.74433C13.9615 7.74389 13.9609 7.74337 13.9604 7.74293C13.9513 7.73609 13.9419 7.72991 13.9322 7.72425C13.9314 7.72384 13.9308 7.7233 13.9301 7.72289L10.7074 5.88076V2.19615C10.7074 2.19535 10.7073 2.19462 10.7072 2.19382C10.7072 2.18258 10.7065 2.17135 10.705 2.16011C10.7049 2.15953 10.7048 2.15899 10.7047 2.15844C10.7033 2.14821 10.7011 2.1381 10.6985 2.12798C10.6978 2.12538 10.6971 2.12278 10.6963 2.12019C10.6939 2.11201 10.6911 2.10389 10.6879 2.09585C10.6869 2.09333 10.686 2.09076 10.685 2.0883C10.6806 2.07832 10.6759 2.06845 10.6703 2.0588C10.6647 2.04917 10.6584 2.0402 10.6519 2.03151C10.6502 2.02929 10.6484 2.02719 10.6466 2.02503C10.6412 2.01833 10.6356 2.01193 10.6297 2.00586C10.6278 2.00387 10.6258 2.00184 10.6238 1.9999C10.6164 1.99271 10.6087 1.98593 10.6006 1.97967C10.6001 1.97923 10.5995 1.97874 10.599 1.9783C10.5899 1.97144 10.5805 1.96526 10.5707 1.95957C10.57 1.95916 10.5694 1.95864 10.5687 1.95826L7.20748 0.0368024C7.12165 -0.0122525 7.01588 -0.0122799 6.93002 0.0368024L3.56885 1.95823C3.56819 1.95861 3.56764 1.95908 3.56698 1.95946C3.55715 1.96517 3.54765 1.97138 3.5385 1.97833C3.53806 1.97865 3.53768 1.97904 3.53723 1.97939C3.52903 1.98571 3.52119 1.99263 3.51368 1.9999C3.51172 2.00181 3.50978 2.00378 3.50788 2.00575C3.50197 2.01185 3.49633 2.01825 3.49095 2.02495C3.48921 2.02711 3.48736 2.02924 3.48567 2.03148C3.47913 2.04015 3.47292 2.04915 3.46731 2.05874C3.4617 2.06837 3.45695 2.07819 3.45265 2.08814C3.45154 2.09071 3.4506 2.09339 3.44955 2.09599C3.4464 2.10392 3.44364 2.1119 3.4413 2.11997C3.44052 2.12262 3.43975 2.1253 3.43903 2.12798C3.43646 2.13796 3.43434 2.14799 3.43293 2.15808C3.43285 2.15877 3.43265 2.1594 3.43257 2.16008C3.43108 2.17126 3.43042 2.1825 3.43033 2.19369C3.43033 2.19448 3.43017 2.19527 3.43017 2.19606V5.88062L0.207441 7.72281C0.20675 7.72319 0.20617 7.72371 0.205507 7.72409C0.195704 7.72978 0.186204 7.73599 0.177118 7.7429C0.176676 7.74323 0.176262 7.74364 0.17582 7.74397C0.167618 7.75029 0.159803 7.75718 0.152291 7.7645C0.150303 7.76642 0.148398 7.76841 0.146464 7.77038C0.140582 7.77645 0.134949 7.78282 0.129564 7.78952C0.127796 7.79171 0.125918 7.79387 0.124234 7.79611C0.117772 7.80467 0.111641 7.81356 0.10609 7.82305C0.106007 7.82318 0.105897 7.82332 0.105814 7.82349C0.100263 7.83306 0.0955131 7.84279 0.0912602 7.85269C0.0901279 7.85531 0.0891614 7.85805 0.0880844 7.86073C0.0849914 7.86858 0.0822298 7.87653 0.0798824 7.88452C0.0790816 7.88722 0.0783083 7.88993 0.0775903 7.89267C0.075022 7.90259 0.0729232 7.91254 0.0715148 7.92258C0.0714043 7.92329 0.0712386 7.924 0.0711282 7.92474C0.0696369 7.93592 0.0689741 7.94713 0.0688913 7.95835C0.0688913 7.95914 0.0687256 7.9599 0.0687256 7.9607V11.8038H0.0687532C0.0687532 11.902 0.121638 11.9927 0.207468 12.0418L3.56891 13.9632C3.56957 13.9635 3.57032 13.9638 3.57098 13.9642C3.58087 13.9697 3.591 13.9748 3.60158 13.9791C3.60221 13.9794 3.60285 13.9795 3.60348 13.9798C3.61301 13.9836 3.62282 13.9868 3.63284 13.9896C3.63557 13.9904 3.63834 13.991 3.64107 13.9917C3.64924 13.9937 3.65758 13.9953 3.66603 13.9966C3.66888 13.997 3.67172 13.9975 3.6746 13.9978C3.68542 13.9991 3.69641 13.9999 3.70757 13.9999C3.71873 13.9999 3.72972 13.9991 3.74054 13.9978C3.74341 13.9975 3.74626 13.997 3.7491 13.9966C3.75755 13.9953 3.76587 13.9937 3.77404 13.9917C3.7768 13.991 3.77956 13.9903 3.78233 13.9896C3.79229 13.9868 3.80204 13.9836 3.81152 13.9798C3.81221 13.9795 3.8129 13.9794 3.81359 13.9791C3.82414 13.9747 3.83427 13.9697 3.84407 13.9642C3.84477 13.9638 3.84551 13.9635 3.84623 13.9631L7.06865 12.121L10.2911 13.9631C10.2918 13.9635 10.2925 13.9638 10.2933 13.9642C10.3031 13.9697 10.3132 13.9747 10.3237 13.9791C10.3244 13.9794 10.3252 13.9795 10.3259 13.9798C10.3353 13.9836 10.3451 13.9868 10.355 13.9896C10.3578 13.9903 10.3606 13.991 10.3633 13.9917C10.3715 13.9937 10.3798 13.9953 10.3882 13.9966C10.3911 13.997 10.3939 13.9975 10.3968 13.9978C10.4076 13.9991 10.4186 13.9999 10.4298 13.9999C10.441 13.9999 10.4519 13.9991 10.4628 13.9978C10.4656 13.9975 10.4685 13.997 10.4714 13.9966C10.4798 13.9953 10.4881 13.9937 10.4963 13.9917C10.499 13.991 10.5018 13.9903 10.5046 13.9896C10.5145 13.9868 10.5242 13.9836 10.5337 13.9798C10.5344 13.9796 10.5351 13.9794 10.5359 13.9791C10.5464 13.9747 10.5565 13.9697 10.5663 13.9642C10.567 13.9638 10.5678 13.9635 10.5685 13.9631L13.9299 12.0417C14.0158 11.9927 14.0687 11.902 14.0687 11.8038V7.96075C14.0688 7.9599 14.0686 7.95914 14.0686 7.95832ZM11.5588 7.0018L8.75251 8.60604L7.62365 7.9607L10.4299 6.35651L11.5588 7.0018ZM10.1524 5.8807L7.34622 7.48489V4.27647L10.1524 2.67204V5.8807ZM7.06873 0.591937L8.19759 1.23725L5.39129 2.84152L4.26248 2.19615L7.06873 0.591937ZM3.70757 6.35654L4.83629 7.00178L2.02996 8.60598L0.901126 7.96072L3.70757 6.35654ZM3.43014 13.2495L0.623613 11.6453V8.43656L1.819 9.11986C1.85603 9.15806 1.90256 9.18417 1.9528 9.19634L3.43014 10.0408V13.2495ZM3.7076 9.56496L2.58493 8.92323L5.39118 7.31899L6.51382 7.96075L3.7076 9.56496ZM6.79128 11.6453L3.98505 13.2495V10.0408L6.79128 8.43656V11.6453ZM6.79128 7.48491L3.98505 5.88073V2.67201L5.17969 3.35506C5.21692 3.39364 5.26384 3.41995 5.31449 3.43212L6.7913 4.27647V7.48491H6.79128ZM5.94623 3.15881L8.75251 1.55447L9.87498 2.19615L7.06876 3.8006L5.94623 3.15881ZM10.1524 13.2494L7.34622 11.6453V8.43656L8.54158 9.11989C8.5785 9.15798 8.62498 9.18401 8.67513 9.19623L10.1524 10.0407V13.2494H10.1524ZM10.4299 9.56496L9.30742 8.92328L12.1137 7.31902L13.2363 7.96075L10.4299 9.56496ZM13.5139 11.6453L10.7074 13.2495V10.0408L13.5139 8.43656V11.6453Z" fill="#6D7189"/>
<path d="M12.8879 10.9148C12.5344 10.9148 12.5338 11.4643 12.8879 11.4643C13.2415 11.4643 13.2421 10.9148 12.8879 10.9148Z" fill="#6D7189"/>
</g>
<defs>
<clipPath id="clip0">
<rect width="14" height="14" fill="white" transform="translate(-0.000244141)"/>
</clipPath>
</defs>
</svg>
