<svg width="14" height="14" viewBox="0 0 14 14" fill="none" xmlns="http://www.w3.org/2000/svg">
<g clip-path="url(#clip0)">
<path d="M11.0867 14H2.89328C2.38336 14 1.96851 13.5851 1.96851 13.0751V0.924881C1.96851 0.414856 2.38336 0 2.89328 0H11.0867C11.5966 0 12.0115 0.414856 12.0115 0.924881V13.0751C12.0115 13.5851 11.5966 14 11.0867 14ZM2.89328 0.546875C2.68489 0.546875 2.51538 0.716385 2.51538 0.924881V13.0751C2.51538 13.2836 2.68489 13.4531 2.89328 13.4531H11.0867C11.2951 13.4531 11.4646 13.2836 11.4646 13.0751V0.924881C11.4646 0.716385 11.2951 0.546875 11.0867 0.546875H2.89328Z" fill="#6D7189"/>
<path d="M10.2729 5.00861C10.2552 5.00861 10.2372 5.00669 10.2197 5.00306C10.2021 4.99953 10.1849 4.9943 10.1685 4.98746C10.1518 4.98063 10.136 4.97219 10.1212 4.96236C10.1062 4.95254 10.0922 4.941 10.0796 4.9285C10.0288 4.87756 9.99951 4.80706 9.99951 4.73518C9.99951 4.71734 10.0014 4.69929 10.005 4.68156C10.0085 4.66436 10.0137 4.64706 10.0206 4.63039C10.0274 4.61405 10.0358 4.59814 10.0458 4.5834C10.0555 4.56834 10.067 4.55434 10.0796 4.54185C10.0922 4.52924 10.1061 4.51771 10.1212 4.50767C10.1359 4.49784 10.1518 4.48962 10.1685 4.48278C10.1849 4.47594 10.2021 4.4705 10.2195 4.46687C10.2549 4.45982 10.291 4.45982 10.3265 4.46687C10.3438 4.4705 10.361 4.47594 10.3776 4.48278C10.3941 4.48962 10.4099 4.49784 10.4246 4.50767C10.4398 4.51771 10.4537 4.52924 10.4663 4.54185C10.4789 4.55434 10.4903 4.56834 10.5005 4.5834C10.5103 4.59814 10.5187 4.61405 10.5256 4.63039C10.5324 4.64706 10.5376 4.66436 10.5412 4.68156C10.5448 4.69929 10.5464 4.71734 10.5464 4.73518C10.5464 4.80706 10.5171 4.87756 10.4663 4.9285C10.4537 4.941 10.4397 4.95254 10.4246 4.96236C10.4099 4.97219 10.3941 4.98063 10.3776 4.98746C10.361 4.9943 10.3437 4.99953 10.3265 5.00306C10.3087 5.00669 10.2907 5.00861 10.2729 5.00861Z" fill="#6D7189"/>
<path d="M9.14002 5.00848H3.70715C3.55612 5.00848 3.43372 4.88608 3.43372 4.73505C3.43372 4.58401 3.55612 4.46161 3.70715 4.46161H9.14002C9.29105 4.46161 9.41345 4.58401 9.41345 4.73505C9.41345 4.88608 9.29105 5.00848 9.14002 5.00848Z" fill="#6D7189"/>
<path d="M10.2868 3.82811H3.69324C3.54231 3.82811 3.4198 3.7057 3.4198 3.55467V1.4743C3.4198 1.32327 3.54231 1.20087 3.69324 1.20087H10.2868C10.4379 1.20087 10.5603 1.32327 10.5603 1.4743V3.55467C10.5603 3.7057 10.4379 3.82811 10.2868 3.82811ZM3.96667 3.28123H10.0134V1.74774H3.96667V3.28123Z" fill="#6D7189"/>
<path d="M6.41275 8.88609H3.70679C3.55576 8.88609 3.43335 8.76358 3.43335 8.61266V5.90669C3.43335 5.75566 3.55576 5.63326 3.70679 5.63326H6.41275C6.56367 5.63326 6.68619 5.75566 6.68619 5.90669V8.61266C6.68619 8.76358 6.56367 8.88609 6.41275 8.88609ZM3.98022 8.33922H6.13931V6.18013H3.98022V8.33922Z" fill="#6D7189"/>
<path d="M10.2732 8.88609H7.56738C7.41635 8.88609 7.29395 8.76358 7.29395 8.61266V5.90669C7.29395 5.75566 7.41635 5.63326 7.56738 5.63326H10.2732C10.4243 5.63326 10.5467 5.75566 10.5467 5.90669V8.61266C10.5467 8.76358 10.4243 8.88609 10.2732 8.88609ZM7.84082 8.33922H9.9998V6.18013H7.84082V8.33922Z" fill="#6D7189"/>
<path d="M6.41275 12.7466H3.70679C3.55576 12.7466 3.43335 12.6242 3.43335 12.4731V9.76727C3.43335 9.61624 3.55576 9.49384 3.70679 9.49384H6.41275C6.56367 9.49384 6.68619 9.61624 6.68619 9.76727V12.4731C6.68619 12.6242 6.56367 12.7466 6.41275 12.7466ZM3.98022 12.1997H6.13931V10.0407H3.98022V12.1997Z" fill="#6D7189"/>
<path d="M10.2732 12.7466H7.56738C7.41635 12.7466 7.29395 12.6242 7.29395 12.4731V9.76727C7.29395 9.61624 7.41635 9.49384 7.56738 9.49384H10.2732C10.4243 9.49384 10.5467 9.61624 10.5467 9.76727V12.4731C10.5467 12.6242 10.4243 12.7466 10.2732 12.7466ZM7.84082 12.1997H9.9998V10.0407H7.84082V12.1997Z" fill="#6D7189"/>
<path d="M5.5721 6.98622H5.33316V6.74718C5.33316 6.59615 5.21075 6.47374 5.05972 6.47374C4.90869 6.47374 4.78629 6.59615 4.78629 6.74718V6.98622H4.54724C4.39621 6.98622 4.2738 7.10863 4.2738 7.25966C4.2738 7.41069 4.39621 7.5331 4.54724 7.5331H4.78629V7.77203C4.78629 7.92307 4.90869 8.04547 5.05972 8.04547C5.21075 8.04547 5.33316 7.92307 5.33316 7.77203V7.5331H5.5721C5.72313 7.5331 5.84553 7.41069 5.84553 7.25966C5.84553 7.10863 5.72313 6.98622 5.5721 6.98622Z" fill="#6D7189"/>
<path d="M5.44633 11.1202L5.61531 10.9512C5.72212 10.8445 5.72212 10.6714 5.61531 10.5646C5.50861 10.4577 5.33546 10.4577 5.22865 10.5646L5.05968 10.7335L4.8907 10.5646C4.78389 10.4577 4.61075 10.4577 4.50394 10.5646C4.39713 10.6713 4.39713 10.8444 4.50394 10.9512L4.67291 11.1202L4.50394 11.2893C4.39713 11.396 4.39713 11.5691 4.50394 11.6759C4.55734 11.7293 4.6273 11.756 4.69727 11.756C4.76723 11.756 4.8373 11.7293 4.89059 11.6759L5.05957 11.507L5.22865 11.6759C5.28195 11.7293 5.35202 11.756 5.42198 11.756C5.49194 11.756 5.5619 11.7293 5.61531 11.6759C5.72212 11.5691 5.72212 11.396 5.61531 11.2893L5.44633 11.1202Z" fill="#6D7189"/>
<path d="M9.43269 7.53311H8.40784C8.25681 7.53311 8.1344 7.41071 8.1344 7.25967C8.1344 7.10864 8.25681 6.98624 8.40784 6.98624H9.43269C9.58372 6.98624 9.70613 7.10864 9.70613 7.25967C9.70613 7.41071 9.58372 7.53311 9.43269 7.53311Z" fill="#6D7189"/>
<path d="M9.43269 10.9512H8.40784C8.25681 10.9512 8.1344 10.8288 8.1344 10.6777C8.1344 10.5267 8.25681 10.4043 8.40784 10.4043H9.43269C9.58372 10.4043 9.70613 10.5267 9.70613 10.6777C9.70613 10.8288 9.58372 10.9512 9.43269 10.9512Z" fill="#6D7189"/>
<path d="M9.43269 11.7168H8.40784C8.25681 11.7168 8.1344 11.5944 8.1344 11.4434C8.1344 11.2923 8.25681 11.1699 8.40784 11.1699H9.43269C9.58372 11.1699 9.70613 11.2923 9.70613 11.4434C9.70613 11.5944 9.58372 11.7168 9.43269 11.7168Z" fill="#6D7189"/>
</g>
<defs>
<clipPath id="clip0">
<rect width="14" height="14" fill="white" transform="translate(-0.000244141)"/>
</clipPath>
</defs>
</svg>
