<svg width="14" height="14" viewBox="0 0 14 14" fill="none" xmlns="http://www.w3.org/2000/svg">
<g clip-path="url(#clip0)">
<path d="M6.35676 10.6729C6.25006 10.7795 6.25006 10.9526 6.35676 11.0595C6.46368 11.1662 6.63672 11.1662 6.74331 11.0595C6.85023 10.9526 6.85023 10.7795 6.74331 10.6729C6.63672 10.566 6.46368 10.566 6.35676 10.6729Z" fill="#6D7189"/>
<path d="M13.3696 10.1979L11.2936 8.43265C11.284 8.42453 11.2738 8.41706 11.2632 8.41033C10.7186 8.06362 10.0193 8.14042 9.56269 8.59693L8.43081 9.7287C8.35241 9.80721 8.23545 9.83039 8.13291 9.78809C6.8548 9.25937 5.80485 8.46341 5.0122 7.42253C4.40775 6.62882 4.18986 5.9981 4.16112 5.90923C4.15771 5.89022 4.15226 5.87131 4.14457 5.85283C4.10216 5.75029 4.12534 5.63355 4.20395 5.55515L5.33573 4.42305C5.79235 3.96643 5.86904 3.26714 5.52233 2.72251C5.51955 2.71813 5.51667 2.71386 5.51368 2.70958L4.01447 0.626224C3.54279 -0.105541 2.51537 -0.216091 1.89875 0.400425L1.67209 0.627079C1.67199 0.627292 1.67177 0.627506 1.67156 0.627613L0.862355 1.43682C-0.10258 2.40186 -0.260448 3.85193 0.40595 5.63056C0.97675 7.15412 2.11942 8.82155 3.62343 10.3256C5.16302 11.8651 6.87552 13.029 8.44544 13.6026C9.99934 14.1704 11.6522 14.2403 12.8222 13.0703L13.5853 12.3072C14.1992 11.6933 14.092 10.6726 13.3696 10.1979ZM10.9548 8.86225L13.0289 10.626C13.0384 10.6341 13.0486 10.6416 13.0592 10.6483C13.5022 10.9304 13.5693 11.5499 13.1986 11.9206L13.1419 11.9773L9.60424 9.32859L9.94935 8.98359C10.219 8.71378 10.6301 8.66497 10.9548 8.86225ZM3.55764 0.926685C3.56042 0.931064 3.5633 0.935444 3.56629 0.939609L5.06486 3.02222C5.26844 3.3481 5.22133 3.76413 4.94907 4.0364L4.61465 4.37093L2.22121 0.851276L2.28541 0.787082C2.65764 0.414844 3.27662 0.485233 3.55764 0.926685ZM8.633 13.089C7.13636 12.5421 5.49456 11.4234 4.01009 9.93891C2.56002 8.48894 1.46189 6.89072 0.917897 5.43872C0.509557 4.34882 0.235585 2.8369 1.24901 1.82358L1.82761 1.24488L4.22104 4.76453L3.8174 5.16838C3.58776 5.3976 3.51555 5.73684 3.63016 6.0389C3.71647 6.39309 4.11359 7.12827 4.51424 7.67002C5.10384 8.46726 6.17399 9.56945 7.92388 10.2934C8.23139 10.4206 8.58205 10.3508 8.81747 10.1155L9.21363 9.7192L12.7513 12.3679L12.4355 12.6836C11.3491 13.7701 9.76809 13.5037 8.633 13.089Z" fill="#6D7189"/>
<path d="M5.84354 10.0201C5.55472 9.76681 5.05517 9.33123 4.79209 9.06057C4.14695 8.39759 3.47008 7.59394 3.06762 7.01331C2.98164 6.8892 2.81127 6.85822 2.68716 6.94431C2.56304 7.0303 2.53217 7.20066 2.61816 7.32478C3.12572 8.05708 3.87148 8.89854 4.40009 9.44178C4.6778 9.72761 5.18163 10.167 5.48295 10.4312C5.59627 10.5305 5.76899 10.5196 5.86886 10.4059C5.9684 10.2924 5.95708 10.1196 5.84354 10.0201Z" fill="#6D7189"/>
</g>
<defs>
<clipPath id="clip0">
<rect width="14" height="14" fill="white" transform="translate(-0.000244141)"/>
</clipPath>
</defs>
</svg>
