<svg width="14" height="14" viewBox="0 0 14 14" fill="none" xmlns="http://www.w3.org/2000/svg">
<g clip-path="url(#clip0)">
<path d="M0.207211 5.8914L1.3435 5.60831C1.48391 5.03519 1.70955 4.49067 2.01604 3.98536L1.41282 2.98186C1.34812 2.87426 1.36505 2.73642 1.45383 2.64764L2.64713 1.45434C2.73589 1.36555 2.87375 1.34865 2.98135 1.41332L3.98486 2.01655C4.49017 1.71005 5.03466 1.48442 5.60781 1.34401L5.89084 0.207773C5.92119 0.0859305 6.03062 0.000427246 6.15615 0.000427246H7.84344C7.969 0.000427246 8.0784 0.0859305 8.10878 0.207773L8.39184 1.34406C8.96494 1.48447 9.50951 1.71016 10.0148 2.01663L11.0183 1.41338C11.1259 1.34868 11.2638 1.36558 11.3525 1.45439L12.5458 2.64766C12.6346 2.73645 12.6515 2.87429 12.5868 2.98188L11.9836 3.98539C12.2901 4.4907 12.5157 5.03519 12.6561 5.60834L13.7924 5.8914C13.9143 5.92175 13.9998 6.03118 13.9998 6.15671V7.844C13.9998 7.96956 13.9143 8.07896 13.7924 8.10934L12.6561 8.3924C12.5157 8.96552 12.2901 9.51004 11.9836 10.0154L12.5868 11.0189C12.6515 11.1265 12.6346 11.2643 12.5458 11.3531L11.3525 12.5464C11.2637 12.6352 11.1259 12.6521 11.0183 12.5874L10.0148 11.9841C9.50943 12.2906 8.96494 12.5163 8.39182 12.6567L8.10876 13.793C8.0784 13.9148 7.96898 14.0003 7.84341 14.0003H6.15613C6.03056 14.0003 5.92116 13.9148 5.89078 13.793L5.6077 12.6567C5.0346 12.5163 4.49008 12.2907 3.98475 11.9841L2.98124 12.5874C2.87364 12.6521 2.73581 12.6352 2.64702 12.5464L1.45372 11.3531C1.36494 11.2643 1.34804 11.1265 1.41271 11.0189L2.01593 10.0154C1.70944 9.51004 1.4838 8.96552 1.34339 8.3924L0.207103 8.10934C0.0852594 8.07899 -0.000244141 7.96956 -0.000244141 7.844V6.15671C-0.000135422 6.03118 0.0853691 5.92175 0.207211 5.8914ZM0.546737 7.63034L1.63854 7.90233C1.73987 7.92756 1.81796 8.00831 1.83981 8.11041C1.97369 8.73587 2.21816 9.32578 2.56641 9.86381C2.62315 9.95148 2.62501 10.0638 2.57122 10.1532L1.99162 11.1175L2.88272 12.0086L3.84694 11.429C3.93643 11.3751 4.04873 11.377 4.13637 11.4338C4.67443 11.782 5.26437 12.0265 5.88977 12.1604C5.99187 12.1822 6.07262 12.2603 6.09786 12.3616L6.36984 13.4534H7.62978L7.90176 12.3616C7.927 12.2603 8.00775 12.1822 8.10985 12.1604C8.73528 12.0265 9.32519 11.782 9.86325 11.4338C9.95094 11.377 10.0632 11.3752 10.1527 11.429L11.1169 12.0086L12.008 11.1175L11.4284 10.1533C11.3746 10.0638 11.3765 9.95148 11.4332 9.86384C11.7815 9.32578 12.026 8.73587 12.1598 8.11044C12.1817 8.00834 12.2598 7.92759 12.3611 7.90235L13.4529 7.63034V6.3704L12.3611 6.09842C12.2597 6.07318 12.1817 5.99243 12.1598 5.89033C12.0259 5.26488 11.7815 4.67497 11.4332 4.13693C11.3765 4.04927 11.3746 3.93697 11.4284 3.8475L12.008 2.88326L11.1169 1.99216L10.1527 2.57176C10.0632 2.62557 9.95092 2.62368 9.86325 2.56695C9.32524 2.2187 8.73533 1.97422 8.10985 1.84035C8.00775 1.8185 7.927 1.74041 7.90176 1.63907L7.62978 0.547298H6.36984L6.09786 1.6391C6.07262 1.74043 5.99187 1.81853 5.88977 1.84037C5.26432 1.97425 4.67441 2.21873 4.13637 2.56697C4.04873 2.62371 3.93641 2.62557 3.84694 2.57179L2.88272 1.99218L1.99162 2.88328L2.57122 3.8475C2.62501 3.93697 2.62315 4.04929 2.56641 4.13693C2.21816 4.67497 1.97369 5.26488 1.83981 5.89033C1.81796 5.99243 1.73987 6.07318 1.63854 6.09842L0.546737 6.3704V7.63034Z" fill="#6D7189"/>
<path d="M6.99979 2.89847C7.63749 2.89847 8.24868 3.04087 8.81638 3.32175C8.95173 3.38871 9.00719 3.55272 8.94019 3.68807C8.87323 3.82342 8.70925 3.8789 8.57387 3.81188C8.08224 3.56866 7.55262 3.44534 6.99979 3.44534C5.03975 3.44534 3.44513 5.03996 3.44513 7C3.44513 8.96004 5.03975 10.5547 6.99979 10.5547C8.95983 10.5547 10.5544 8.96004 10.5544 7C10.5544 6.36281 10.384 5.73788 10.0614 5.19275C9.98453 5.06279 10.0276 4.89509 10.1575 4.81818C10.2875 4.74131 10.4552 4.7843 10.5321 4.91426C10.9045 5.54365 11.1013 6.26487 11.1013 7C11.1013 9.26158 9.26137 11.1015 6.99979 11.1015C4.7382 11.1015 2.89826 9.26158 2.89826 7C2.89826 4.73841 4.7382 2.89847 6.99979 2.89847Z" fill="#6D7189"/>
<path d="M6.99977 5.03125C8.08534 5.03125 8.96851 5.91442 8.96851 6.99998C8.96851 8.08555 8.08534 8.96872 6.99977 8.96872C5.91421 8.96872 5.03104 8.08555 5.03104 6.99998C5.03104 5.91442 5.91421 5.03125 6.99977 5.03125ZM6.99977 8.42185C7.78379 8.42185 8.42164 7.78401 8.42164 6.99998C8.42164 6.21596 7.78379 5.57812 6.99977 5.57812C6.21575 5.57812 5.57791 6.21596 5.57791 6.99998C5.57791 7.78398 6.21575 8.42185 6.99977 8.42185Z" fill="#6D7189"/>
<path d="M9.41532 4.00559C9.46618 3.95473 9.53673 3.92548 9.60864 3.92548C9.68056 3.92548 9.7511 3.95473 9.80196 4.00559C9.85282 4.05645 9.88208 4.127 9.88208 4.19891C9.88208 4.27082 9.85282 4.34137 9.80196 4.39223C9.7511 4.44309 9.68056 4.47235 9.60864 4.47235C9.53673 4.47235 9.46618 4.44309 9.41532 4.39223C9.36447 4.34137 9.33521 4.27082 9.33521 4.19891C9.33521 4.127 9.36447 4.05645 9.41532 4.00559Z" fill="#6D7189"/>
</g>
<defs>
<clipPath id="clip0">
<rect width="14" height="14" fill="white" transform="matrix(-1 0 0 1 13.9998 0)"/>
</clipPath>
</defs>
</svg>
