<svg width="14" height="14" viewBox="0 0 14 14" fill="none" xmlns="http://www.w3.org/2000/svg">
<path d="M12.0217 2.49402L9.60937 0.0816758C9.55706 0.0293945 9.48613 0 9.41216 0H2.17512C2.02109 0 1.89624 0.124852 1.89624 0.278879V13.7211C1.89624 13.8751 2.02109 14 2.17512 14H11.8245C11.9785 14 12.1034 13.8751 12.1034 13.7211V2.69123C12.1034 2.61726 12.074 2.54633 12.0217 2.49402ZM9.69104 0.952191L11.1512 2.41235H9.69104V0.952191ZM11.5456 13.4422H2.454V0.557758H9.13328V2.69123C9.13328 2.84525 9.25816 2.97011 9.41216 2.97011H11.5456V13.4422Z" fill="#6D7189"/>
<path d="M7.71108 12.4382H3.26277C3.10874 12.4382 2.98389 12.5631 2.98389 12.7171C2.98389 12.8711 3.10874 12.996 3.26277 12.996H7.71108C7.86508 12.996 7.98996 12.8711 7.98996 12.7171C7.98996 12.5631 7.86508 12.4382 7.71108 12.4382Z" fill="#6D7189"/>
<path d="M9.13325 12.4382H8.83064C8.67664 12.4382 8.55176 12.5631 8.55176 12.7171C8.55176 12.8711 8.67664 12.996 8.83064 12.996H9.13325C9.28725 12.996 9.41213 12.8711 9.41213 12.7171C9.41213 12.5631 9.28725 12.4382 9.13325 12.4382Z" fill="#6D7189"/>
<path d="M8.52002 7.19517L10.591 4.6376C10.6586 4.55404 10.6722 4.43906 10.6259 4.34204C10.5796 4.245 10.4817 4.18323 10.3742 4.18323H8.0513C7.96713 4.18323 7.88751 4.22121 7.83457 4.28661L6.99971 5.31764L6.16485 4.28661C6.11191 4.22121 6.03226 4.18323 5.94812 4.18323H3.62522C3.51773 4.18323 3.41978 4.245 3.37349 4.34204C3.3272 4.43906 3.34084 4.55406 3.40846 4.6376L5.4794 7.19517L3.40846 9.75274C3.34081 9.8363 3.3272 9.95128 3.37349 10.0483C3.41978 10.1453 3.5177 10.2071 3.62522 10.2071H5.94812C6.03226 10.2071 6.11191 10.1691 6.16485 10.1037L6.99971 9.07273L7.83454 10.1037C7.88748 10.1692 7.96713 10.2071 8.05127 10.2071H10.3742C10.4817 10.2071 10.5796 10.1454 10.6259 10.0483C10.6722 9.95131 10.6586 9.8363 10.5909 9.75276L8.52002 7.19517ZM8.18432 4.74099H9.78957L8.16116 6.75198L7.35857 5.76077L8.18432 4.74099ZM5.8151 9.64935H4.20985L5.83823 7.63835L6.64082 8.62957L5.8151 9.64935ZM8.18432 9.64935L4.20985 4.74099H5.8151L9.78954 9.64935H8.18432Z" fill="#6D7189"/>
</svg>
