<svg width="14" height="14" viewBox="0 0 14 14" fill="none" xmlns="http://www.w3.org/2000/svg">
<path d="M9.35009 8.97859C9.01839 8.97859 8.74853 8.74502 8.74853 8.45794C8.74853 8.17083 9.01839 7.93726 9.35009 7.93726C9.6818 7.93726 9.95165 8.17083 9.95165 8.45794C9.95165 8.60893 10.0741 8.73138 10.2251 8.73138C10.3761 8.73138 10.4985 8.60893 10.4985 8.45794C10.4985 7.95687 10.1252 7.53556 9.62353 7.42121V7.27899C9.62353 7.128 9.50108 7.00555 9.35009 7.00555C9.1991 7.00555 9.07666 7.128 9.07666 7.27899V7.42121C8.57501 7.53556 8.20166 7.95687 8.20166 8.45794C8.20166 9.04657 8.71684 9.52547 9.35009 9.52547C9.6818 9.52547 9.95165 9.75904 9.95165 10.0461C9.95165 10.3333 9.6818 10.5668 9.35009 10.5668C9.01839 10.5668 8.74853 10.3333 8.74853 10.0461C8.74853 9.89516 8.62609 9.77271 8.4751 9.77271C8.32411 9.77271 8.20166 9.89516 8.20166 10.0461C8.20166 10.5472 8.57501 10.9685 9.07666 11.0829V11.201C9.07666 11.352 9.1991 11.4744 9.35009 11.4744C9.50108 11.4744 9.62353 11.352 9.62353 11.201V11.0829C10.1252 10.9685 10.4985 10.5472 10.4985 10.0461C10.4985 9.45749 9.98334 8.97859 9.35009 8.97859Z" fill="#6D7189"/>
<path d="M12.345 7.35207C11.9878 6.79549 11.4845 6.35012 10.8897 6.06415C10.7535 5.99869 10.5902 6.05601 10.5247 6.19212C10.4593 6.32824 10.5166 6.49159 10.6527 6.55703C11.6893 7.05534 12.3591 8.12007 12.3591 9.26955C12.3591 9.76141 12.2379 10.2492 12.0086 10.6802C11.9376 10.8135 11.9882 10.9791 12.1215 11.0501C12.1624 11.0718 12.2064 11.0822 12.2497 11.0822C12.3475 11.0822 12.4422 11.0295 12.4913 10.9371C12.7626 10.4273 12.906 9.85066 12.906 9.26955C12.906 8.58705 12.712 7.92399 12.345 7.35207Z" fill="#6D7189"/>
<path d="M9.77988 5.71489L9.76147 5.71486C9.61048 5.71486 9.48804 5.83728 9.48804 5.9883C9.48804 6.13931 9.61048 6.26173 9.76147 6.26173L9.77731 6.26176C9.77774 6.26176 9.77815 6.26176 9.77862 6.26176C9.92904 6.26176 10.0513 6.14019 10.052 5.98961C10.0527 5.83859 9.93087 5.7156 9.77988 5.71489Z" fill="#6D7189"/>
<path d="M8.04989 11.982C7.01329 11.4837 6.34351 10.419 6.34351 9.26952C6.34351 8.77766 6.46475 8.28987 6.69408 7.85883C6.76501 7.72553 6.71445 7.55993 6.58112 7.48901C6.44785 7.41808 6.2822 7.46863 6.2113 7.60196C5.94002 8.11178 5.79663 8.68841 5.79663 9.26952C5.79663 9.95202 5.99063 10.615 6.35767 11.187C6.71486 11.7436 7.21809 12.1889 7.81296 12.4749C7.85116 12.4933 7.89151 12.502 7.93125 12.502C8.03307 12.502 8.1308 12.4449 8.17789 12.347C8.24326 12.2108 8.18601 12.0475 8.04989 11.982Z" fill="#6D7189"/>
<path d="M8.94114 12.2774L8.92531 12.2773C8.7736 12.277 8.65132 12.3984 8.65064 12.5495C8.64993 12.7005 8.77183 12.8235 8.92282 12.8242L8.94114 12.8242C9.09213 12.8242 9.21457 12.7018 9.21457 12.5508C9.21457 12.3998 9.09213 12.2774 8.94114 12.2774Z" fill="#6D7189"/>
<path d="M9.18052 4.6961C9.15168 4.61838 9.11635 4.54514 9.07523 4.4772H9.69218C10.2933 4.4772 10.7823 3.92416 10.7823 3.24441C10.7823 2.56465 10.2933 2.01161 9.69218 2.01161H7.79446C7.91511 1.81324 7.98594 1.57324 7.98594 1.31481C7.98594 0.635059 7.49691 0.082016 6.89584 0.082016H1.08986C0.488785 0.082016 -0.000244141 0.635059 -0.000244141 1.31481C-0.000244141 1.99457 0.488785 2.54761 1.08986 2.54761H2.98758C2.86694 2.74598 2.7961 2.98597 2.7961 3.24441C2.7961 3.50284 2.86691 3.74283 2.98758 3.9412H2.36954C1.76847 3.9412 1.27944 4.49425 1.27944 5.174C1.27944 5.56439 1.44092 5.91277 1.69214 6.1388C1.44092 6.36483 1.27944 6.7132 1.27944 7.10359C1.27944 7.49399 1.44092 7.84236 1.69214 8.06839C1.44092 8.29442 1.27944 8.64279 1.27944 9.03319C1.27944 9.42358 1.44092 9.77195 1.69214 9.99798C1.44092 10.224 1.27944 10.5724 1.27944 10.9628C1.27944 11.6425 1.76847 12.1956 2.36954 12.1956H5.16234C5.89806 13.0855 6.9447 13.6428 8.10445 13.6428C10.3258 13.6428 12.1331 11.599 12.1331 9.08681C12.1331 6.99597 10.8811 5.22982 9.18052 4.6961ZM9.69218 2.54761C10.0319 2.54761 10.3083 2.8602 10.3083 3.24441C10.3083 3.62861 10.0319 3.9412 9.69218 3.9412H8.17552H3.88621C3.54645 3.9412 3.27006 3.62861 3.27006 3.24441C3.27006 2.8602 3.54645 2.54761 3.88621 2.54761H9.69218ZM1.08986 2.01161C0.750102 2.01161 0.473713 1.69902 0.473713 1.31481C0.473713 0.930608 0.750102 0.618014 1.08986 0.618014H6.89584C7.23559 0.618014 7.51198 0.930608 7.51198 1.31481C7.51198 1.69902 7.23559 2.01161 6.89584 2.01161H1.08986ZM2.36954 4.4772H8.17552C8.27098 4.4772 8.36238 4.50229 8.44437 4.5472C8.33228 4.53656 8.21896 4.53083 8.10445 4.53083C6.99195 4.53083 5.98337 5.04348 5.25362 5.8708H2.36954C2.02981 5.8708 1.7534 5.5582 1.7534 5.174C1.7534 4.7898 2.02981 4.4772 2.36954 4.4772ZM2.36954 6.4068H4.8487C4.57968 6.82361 4.37168 7.29374 4.23959 7.80039H2.36954C2.02979 7.80039 1.7534 7.48782 1.7534 7.10359C1.7534 6.71939 2.02979 6.4068 2.36954 6.4068ZM2.36954 8.33639H4.13077C4.09482 8.58062 4.07581 8.83122 4.07581 9.08681C4.07581 9.30513 4.08977 9.51979 4.11615 9.72999H2.36954C2.02979 9.72999 1.7534 9.41742 1.7534 9.03319C1.7534 8.64896 2.02979 8.33639 2.36954 8.33639ZM2.36954 11.6596C2.02979 11.6596 1.7534 11.347 1.7534 10.9628C1.7534 10.5786 2.02979 10.266 2.36954 10.266H4.21291C4.33248 10.7702 4.52674 11.2401 4.78149 11.6596H2.36954ZM8.10445 13.1068C6.1444 13.1068 4.54977 11.3034 4.54977 9.08681C4.54977 6.87019 6.1444 5.06683 8.10445 5.06683C10.0645 5.06683 11.6591 6.87019 11.6591 9.08681C11.6591 11.3034 10.0645 13.1068 8.10445 13.1068Z" fill="#6D7189"/>
</svg>
