<svg width="14" height="14" viewBox="0 0 14 14" fill="none" xmlns="http://www.w3.org/2000/svg">
<g clip-path="url(#clip0)">
<path d="M11.6333 2.35279C10.3939 1.11327 8.74579 0.430664 6.99293 0.430664C5.24007 0.430664 3.59199 1.11327 2.35255 2.35279C1.11303 3.59224 0.43042 5.24032 0.43042 6.99318C0.43042 8.74604 1.11303 10.394 2.35255 11.6336C3.59199 12.873 5.24007 13.5557 6.99293 13.5557C8.74579 13.5557 10.3939 12.873 11.6333 11.6336C12.8728 10.394 13.5554 8.74612 13.5554 6.99318C13.5554 5.24032 12.8728 3.59232 11.6333 2.35279ZM11.2666 11.2668C10.1251 12.4084 8.60728 13.0371 6.99293 13.0371C5.3785 13.0371 3.86076 12.4084 2.71921 11.2668C1.57766 10.1254 0.949044 8.60753 0.949044 6.99318C0.949044 5.37874 1.57766 3.861 2.71921 2.71945C3.86076 1.5779 5.3785 0.949288 6.99293 0.949288C8.60728 0.949288 10.1251 1.5779 11.2666 2.71945C12.4081 3.861 13.0368 5.37874 13.0368 6.99318C13.0368 8.60753 12.4081 10.1254 11.2666 11.2668Z" fill="#6D7189"/>
<path d="M6.99276 1.57844C4.0071 1.57844 1.57812 4.00742 1.57812 6.99307C1.57812 8.03328 1.87389 9.04361 2.43345 9.91504C2.51075 10.0355 2.67121 10.0705 2.79161 9.99314C2.91218 9.91576 2.94718 9.7553 2.86972 9.63482C2.36399 8.84719 2.09667 7.93371 2.09667 6.99307C2.09667 4.2934 4.29309 2.09698 6.99276 2.09698C9.69243 2.09698 11.8888 4.2934 11.8888 6.99307C11.8888 9.69282 9.69243 11.8891 6.99276 11.8891C6.01111 11.8891 5.06414 11.5998 4.25432 11.0523C4.13568 10.9722 3.97458 11.0033 3.89431 11.122C3.81412 11.2406 3.84528 11.4017 3.96393 11.482C4.85986 12.0876 5.9072 12.4077 6.99276 12.4077C9.97841 12.4077 12.4073 9.97872 12.4073 6.99315C12.4073 4.0075 9.97841 1.57844 6.99276 1.57844Z" fill="#6D7189"/>
<path d="M3.29636 10.3233C3.18821 10.3233 3.08928 10.3932 3.05267 10.4948C3.01597 10.5962 3.04786 10.7136 3.13125 10.7823C3.21489 10.8512 3.33505 10.8605 3.4283 10.8056C3.52131 10.7508 3.57154 10.6399 3.55103 10.534C3.52764 10.4134 3.41949 10.3233 3.29636 10.3233Z" fill="#6D7189"/>
<path d="M5.37634 6.13925V6.78765C5.37634 7.0569 5.59536 7.27591 5.86453 7.27591H6.52606V8.65587H5.88624C5.61699 8.65587 5.39797 8.87489 5.39797 9.14405V9.79253C5.39797 10.0617 5.61699 10.2808 5.88624 10.2808H8.56844C8.83768 10.2808 9.0567 10.0617 9.0567 9.79253V9.14405C9.0567 8.87489 8.83768 8.65587 8.56844 8.65587H8.15091V6.13925C8.15091 5.87 7.93181 5.65099 7.66265 5.65099H5.86453C5.59536 5.65099 5.37634 5.87008 5.37634 6.13925ZM5.89489 6.16961H7.63237V8.68615C7.63237 8.9554 7.85146 9.17441 8.12063 9.17441H8.53816V9.76217H5.9166V9.17441H6.55635C6.82567 9.17441 7.04461 8.9554 7.04461 8.68615V7.24555C7.04461 6.97639 6.82567 6.75737 6.55635 6.75737H5.89489V6.16961Z" fill="#6D7189"/>
<path d="M6.83246 5.26249C7.46571 5.26249 7.9808 4.74731 7.9808 4.11413C7.9808 3.48087 7.46571 2.96577 6.83246 2.96577C6.19929 2.96577 5.6842 3.48087 5.6842 4.11413C5.6842 4.74731 6.19929 5.26249 6.83246 5.26249ZM6.83246 3.48423C7.17981 3.48423 7.46227 3.76685 7.46227 4.11413C7.46227 4.4614 7.17981 4.74386 6.83246 4.74386C6.4852 4.74386 6.20266 4.4614 6.20266 4.11413C6.20266 3.76685 6.4852 3.48423 6.83246 3.48423Z" fill="#6D7189"/>
</g>
<defs>
<clipPath id="clip0">
<rect width="14" height="14" fill="white" transform="translate(-0.000244141)"/>
</clipPath>
</defs>
</svg>
