<svg width="16" height="16" viewBox="0 0 16 16" fill="none" xmlns="http://www.w3.org/2000/svg">
<g clip-path="url(#clip0)">
<path d="M15.8295 6.50201L8.24524 0.94898C8.09899 0.841917 7.90031 0.841917 7.75412 0.94898L0.169808 6.50201C-0.0154419 6.63767 -0.0556919 6.89779 0.0799643 7.08304C0.215621 7.26829 0.475777 7.30848 0.660995 7.17289L7.99965 1.79964L15.3383 7.17285C15.4123 7.22707 15.4983 7.25317 15.5836 7.25317C15.7116 7.25317 15.8379 7.19426 15.9193 7.08301C16.055 6.89779 16.0147 6.63767 15.8295 6.50201Z" fill="#6977DF"/>
<path d="M13.8202 7.26707C13.5907 7.26707 13.4045 7.4532 13.4045 7.68279V14.3H10.0788V10.6879C10.0788 9.54164 9.14625 8.60914 8.00007 8.60914C6.85388 8.60914 5.92132 9.5417 5.92132 10.6879V14.3H2.5956V7.68282C2.5956 7.45323 2.40944 7.26711 2.17988 7.26711C1.95032 7.26711 1.76416 7.45323 1.76416 7.68282V14.7157C1.76416 14.9453 1.95032 15.1315 2.17988 15.1315H6.33703C6.55566 15.1315 6.73457 14.9625 6.75113 14.7481C6.75213 14.7384 6.75275 14.7278 6.75275 14.7157V10.6879C6.75275 10.0001 7.31228 9.44061 8.00007 9.44061C8.68785 9.44061 9.24738 10.0002 9.24738 10.6879V14.7157C9.24738 14.7277 9.248 14.7381 9.249 14.7477C9.26538 14.9623 9.44435 15.1315 9.6631 15.1315H13.8203C14.0498 15.1315 14.236 14.9453 14.236 14.7157V7.68282C14.2359 7.4532 14.0498 7.26707 13.8202 7.26707Z" fill="#6977DF"/>
</g>
<defs>
<clipPath id="clip0">
<rect width="16" height="16" fill="white" transform="translate(-0.000244141)"/>
</clipPath>
</defs>
</svg>
