<svg width="14" height="14" viewBox="0 0 14 14" fill="none" xmlns="http://www.w3.org/2000/svg">
<path d="M13.1794 8.23774V2.15288C13.6506 2.03115 13.9998 1.60245 13.9998 1.09375C13.9998 0.490656 13.5091 0 12.906 0C12.3973 0 11.9686 0.349098 11.8469 0.820312H5.76204C5.64028 0.349098 5.21158 0 4.70288 0C4.09979 0 3.60913 0.490656 3.60913 1.09375C3.60913 1.60245 3.95826 2.03115 4.42944 2.15288V8.23774C3.95826 8.35948 3.60913 8.78817 3.60913 9.29688C3.60913 9.89997 4.09979 10.3906 4.70288 10.3906C5.21158 10.3906 5.64028 10.0415 5.76201 9.57031H7.57397C7.72497 9.57031 7.84741 9.44787 7.84741 9.29688C7.84741 9.14588 7.72497 9.02344 7.57397 9.02344H5.76201C5.66287 8.63967 5.36009 8.33689 4.97632 8.23774V2.15288C5.36009 2.05373 5.66287 1.75096 5.76201 1.36719H11.8468C11.946 1.75096 12.2488 2.05373 12.6325 2.15288V8.23774C12.2488 8.33689 11.946 8.63967 11.8468 9.02344H10.0349C9.88392 9.02344 9.76147 9.14588 9.76147 9.29688C9.76147 9.44787 9.88392 9.57031 10.0349 9.57031H11.8469C11.9686 10.0415 12.3973 10.3906 12.906 10.3906C13.5091 10.3906 13.9998 9.89997 13.9998 9.29688C13.9998 8.78817 13.6507 8.35948 13.1794 8.23774ZM5.24976 9.29688C5.24976 9.59842 5.00443 9.84375 4.70288 9.84375C4.40133 9.84375 4.15601 9.59842 4.15601 9.29688C4.15601 8.99533 4.40133 8.75 4.70288 8.75C5.00443 8.75 5.24976 8.99533 5.24976 9.29688ZM4.70288 1.64062C4.40133 1.64062 4.15601 1.3953 4.15601 1.09375C4.15601 0.792203 4.40133 0.546875 4.70288 0.546875C5.00443 0.546875 5.24976 0.792203 5.24976 1.09375C5.24976 1.3953 5.00446 1.64062 4.70288 1.64062ZM12.3591 1.09375C12.3591 0.792203 12.6045 0.546875 12.906 0.546875C13.2076 0.546875 13.4529 0.792203 13.4529 1.09375C13.4529 1.3953 13.2076 1.64062 12.906 1.64062C12.6045 1.64062 12.3591 1.3953 12.3591 1.09375ZM12.906 9.84375C12.6045 9.84375 12.3591 9.59842 12.3591 9.29688C12.3591 8.99533 12.6045 8.75 12.906 8.75C13.2076 8.75 13.4529 8.99533 13.4529 9.29688C13.4529 9.59842 13.2076 9.84375 12.906 9.84375Z" fill="#6D7189"/>
<path d="M8.80444 9.57031C8.95546 9.57031 9.07788 9.44789 9.07788 9.29688C9.07788 9.14586 8.95546 9.02344 8.80444 9.02344C8.65343 9.02344 8.53101 9.14586 8.53101 9.29688C8.53101 9.44789 8.65343 9.57031 8.80444 9.57031Z" fill="#6D7189"/>
<path d="M9.89819 5.19531C9.89819 5.04432 9.77575 4.92188 9.62476 4.92188H9.07788V4.375C9.07788 4.22401 8.95544 4.10156 8.80444 4.10156C8.65345 4.10156 8.53101 4.22401 8.53101 4.375V4.92188H7.98413C7.83314 4.92188 7.71069 5.04432 7.71069 5.19531C7.71069 5.3463 7.83314 5.46875 7.98413 5.46875H8.53101V6.01563C8.53101 6.16662 8.65345 6.28906 8.80444 6.28906C8.95544 6.28906 9.07788 6.16662 9.07788 6.01563V5.46875H9.62476C9.77577 5.46875 9.89819 5.34633 9.89819 5.19531Z" fill="#6D7189"/>
<path d="M2.45875 11.1543L0.0798389 13.5332C-0.0269385 13.64 -0.0269385 13.8131 0.0798389 13.9199C0.133241 13.9733 0.203214 14 0.273187 14C0.343159 14 0.413132 13.9733 0.466534 13.9199L2.84544 11.541C2.95222 11.4342 2.95222 11.2611 2.84544 11.1543C2.73864 11.0475 2.56555 11.0475 2.45875 11.1543Z" fill="#6D7189"/>
<path d="M5.74 11.1543L3.36109 13.5332C3.25431 13.64 3.25431 13.8132 3.36109 13.92C3.41449 13.9733 3.48446 14.0001 3.55444 14.0001C3.62441 14.0001 3.69438 13.9733 3.74778 13.92L6.12669 11.5411C6.23347 11.4343 6.23347 11.2611 6.12669 11.1543C6.01989 11.0476 5.8468 11.0476 5.74 11.1543Z" fill="#6D7189"/>
<path d="M2.45875 7.87303L0.0798389 10.2519C-0.0269385 10.3587 -0.0269385 10.5319 0.0798389 10.6387C0.133241 10.692 0.203214 10.7187 0.273187 10.7187C0.343159 10.7187 0.413132 10.692 0.466534 10.6386L2.84544 8.25973C2.95222 8.15295 2.95222 7.97981 2.84544 7.87301C2.73864 7.76629 2.56555 7.76628 2.45875 7.87303Z" fill="#6D7189"/>
</svg>
