<svg width="14" height="14" viewBox="0 0 14 14" fill="none" xmlns="http://www.w3.org/2000/svg">
<g clip-path="url(#clip0)">
<path d="M13.2452 9.00551L12.1342 8.50138L11.8163 7.98762C13.0557 7.20414 13.8071 5.84267 13.8071 4.37524V2.2656C13.8039 2.1468 13.7365 2.03762 13.6305 1.98303L10.7759 0.464226C10.6796 0.41285 10.564 0.41285 10.4709 0.467437L7.70618 1.98303C7.60343 2.04083 7.54242 2.1468 7.54563 2.2656V4.41698C7.54242 5.02707 7.66765 5.63395 7.9181 6.19267H5.60297C5.10526 6.19267 4.63324 6.42707 4.3282 6.82203L3.06627 8.4757L0.947004 9.05368C0.388288 9.20459 0.00296687 9.71193 -0.000244141 10.2899V11.0991C0.00296687 11.8087 0.580949 12.3835 1.29058 12.3899H1.44471C1.68232 13.2505 2.57499 13.7546 3.43554 13.5138C3.98141 13.3629 4.40847 12.9358 4.55939 12.3899H9.27957C9.51719 13.2505 10.4098 13.7546 11.2704 13.5138C11.8163 13.3629 12.2433 12.9358 12.3943 12.3899H12.7089C13.4186 12.3867 13.9965 11.8119 13.9998 11.0991V10.1711C13.9965 9.66698 13.7011 9.21423 13.2452 9.00551ZM8.18783 2.45505L10.6378 1.10964L13.1649 2.45826V4.37524C13.1617 5.84267 12.2819 7.16239 10.93 7.73074C10.93 7.73074 10.9268 7.73074 10.9236 7.73074L10.6154 7.86239L10.3649 7.75001C9.04196 7.16881 8.18783 5.86193 8.18783 4.41377V2.45505ZM3.00205 12.9197C2.4626 12.9197 2.02911 12.483 2.02911 11.9468C2.02911 11.4073 2.46581 10.9739 3.00205 10.9739C3.5415 10.9739 3.97499 11.4106 3.97499 11.9468C3.97499 12.483 3.53829 12.9165 3.00205 12.9197ZM10.8369 12.9197C10.2975 12.9197 9.86398 12.483 9.86398 11.9468C9.86398 11.4106 10.3007 10.9739 10.8369 10.9739C11.3764 10.9739 11.8098 11.4106 11.8098 11.9468C11.8131 12.483 11.3764 12.9165 10.8369 12.9197ZM13.3608 11.0959H13.3576C13.3543 11.4523 13.0654 11.7413 12.7089 11.7445H12.4392C12.3236 10.8583 11.5144 10.2353 10.6282 10.3509C9.90251 10.444 9.32774 11.0188 9.23462 11.7445H4.60434C4.48875 10.8583 3.67957 10.2353 2.79333 10.3509C2.06765 10.444 1.49288 11.0188 1.39976 11.7445H1.29058C0.93416 11.7413 0.645169 11.4523 0.641958 11.0959V10.2867C0.645169 9.99771 0.837829 9.74726 1.11719 9.67019L3.33921 9.06331C3.40664 9.04404 3.46765 9.00551 3.5126 8.94771L4.84196 7.20735C5.02499 6.96973 5.30755 6.83166 5.60618 6.83166H8.28416C8.74012 7.49313 9.37269 8.01652 10.108 8.34083L10.4933 8.5078C10.5736 8.54313 10.6667 8.54313 10.7502 8.5078L11.1837 8.32157C11.2062 8.31193 11.2287 8.3023 11.2479 8.29267L11.6429 8.92524C11.675 8.97982 11.7232 9.02157 11.7809 9.04725L12.9819 9.58992C13.2098 9.69267 13.3576 9.92065 13.3608 10.1711V11.0959Z" fill="#6D7189"/>
<path d="M12.2209 3.66881C12.1086 3.53073 11.9095 3.50826 11.7682 3.61743L11.765 3.62064L10.2622 4.84404L9.71636 4.20505C9.60076 4.07018 9.39847 4.05092 9.2636 4.16651C9.12874 4.28211 9.10948 4.4844 9.22507 4.61927L9.22828 4.62248L9.97645 5.49908C9.97966 5.5055 9.98287 5.50871 9.98608 5.51193C9.98929 5.51514 9.9925 5.52156 9.99893 5.52477C10.0021 5.52798 10.0086 5.5344 10.0118 5.53761C10.015 5.54082 10.0214 5.54404 10.0246 5.54725C10.0278 5.55046 10.0342 5.55367 10.0407 5.55688C10.0471 5.56009 10.0503 5.5633 10.0535 5.56651C10.0599 5.56972 10.0631 5.57293 10.0696 5.57615C10.0728 5.57936 10.0792 5.58257 10.0824 5.58257C10.0888 5.58578 10.0953 5.58899 10.1017 5.58899C10.1049 5.5922 10.1113 5.5922 10.1145 5.59541C10.1209 5.59862 10.1274 5.59862 10.1338 5.60183C10.137 5.60183 10.1434 5.60504 10.1466 5.60504C10.1531 5.60504 10.1595 5.60826 10.1659 5.60826C10.1691 5.60826 10.1755 5.61147 10.1787 5.61147C10.1884 5.61147 10.1948 5.61147 10.2044 5.61147C10.2076 5.61147 10.2109 5.61147 10.2141 5.61147C10.2237 5.61147 10.2333 5.61147 10.243 5.61147C10.2462 5.61147 10.2462 5.61147 10.2494 5.61147C10.2558 5.61147 10.2654 5.60826 10.2719 5.60826C10.2751 5.60826 10.2783 5.60826 10.2815 5.60504C10.2879 5.60504 10.2943 5.60183 10.3008 5.60183C10.304 5.60183 10.3072 5.59862 10.3104 5.59862C10.3168 5.59862 10.32 5.59541 10.3264 5.5922C10.3297 5.5922 10.3329 5.58899 10.3393 5.58899C10.3425 5.58578 10.3489 5.58578 10.3521 5.58257C10.3553 5.57936 10.3618 5.57936 10.365 5.57615C10.3682 5.57293 10.3746 5.57293 10.3778 5.56972C10.381 5.56651 10.3875 5.5633 10.3907 5.5633C10.3939 5.5633 10.3971 5.55688 10.4035 5.55688C10.4067 5.55367 10.4099 5.55046 10.4164 5.54725C10.4196 5.54404 10.4228 5.54404 10.426 5.54082L12.1696 4.12156C12.3076 4.00917 12.3301 3.81009 12.2209 3.66881Z" fill="#6D7189"/>
</g>
<defs>
<clipPath id="clip0">
<rect width="14" height="14" fill="white" transform="translate(-0.000244141)"/>
</clipPath>
</defs>
</svg>
