<svg width="14" height="14" viewBox="0 0 14 14" fill="none" xmlns="http://www.w3.org/2000/svg">
<path d="M0.372035 14H13.6275C13.8327 14 13.9998 13.8428 13.9998 13.6495V12.9927C13.9998 12.7994 13.8327 12.6422 13.6275 12.6422H13.291V3.44513C13.291 3.12709 13.1042 2.83945 12.8035 2.69445H12.8036L7.40827 0.0925121C7.15241 -0.0308374 6.84708 -0.0308374 6.59127 0.0925121L1.196 2.69447C0.895293 2.83948 0.708529 3.12711 0.708529 3.44515V12.6422H0.372035C0.166769 12.6422 -0.000244137 12.7994 -0.000244137 12.9927V13.6495C-0.000273183 13.8428 0.16674 14 0.372035 14ZM1.14421 3.44513C1.14421 3.28174 1.24018 3.134 1.39465 3.05952L6.78994 0.457557C6.92132 0.3942 7.07822 0.394173 7.2096 0.457557L12.6049 3.05952H12.6049C12.7594 3.134 12.8553 3.28174 12.8553 3.44513V12.6422H11.6895V5.26327C11.8195 5.20852 11.9104 5.08586 11.9104 4.94337V4.28651C11.9104 4.09326 11.7434 3.93603 11.5382 3.93603H7.50804C7.3877 3.93603 7.2902 4.02786 7.2902 4.14112C7.2902 4.25438 7.3877 4.3462 7.50804 4.3462H11.4748V4.88367H11.4717H2.52781H2.52476V4.34617H6.49144C6.61178 4.34617 6.70928 4.25435 6.70928 4.14109C6.70928 4.02783 6.61178 3.93601 6.49144 3.93601H2.46135C2.25608 3.93601 2.08907 4.09324 2.08907 4.28648V4.94334C2.08907 5.08583 2.18001 5.2085 2.30996 5.26324V6.70849H2.04742C1.80239 6.70849 1.60305 6.89615 1.60305 7.12683V9.66713C1.60305 9.74508 1.62623 9.81785 1.66582 9.88038C1.62623 9.94292 1.60305 10.0157 1.60305 10.0936V12.6339C1.60305 12.6367 1.60343 12.6394 1.60349 12.6421H1.14421V3.44513ZM10.2233 11.692C10.103 11.692 10.0054 11.7838 10.0054 11.8971V12.634C10.0054 12.6385 10.0015 12.6422 9.99674 12.6422H6.24862C6.24383 12.6422 6.23994 12.6385 6.23994 12.634V10.0937C6.23994 10.0892 6.24383 10.0855 6.24862 10.0855H7.37475V11.2874C7.37475 11.4728 7.535 11.6237 7.73195 11.6237H8.5134C8.71036 11.6237 8.8706 11.4728 8.8706 11.2874V10.0855H9.99674C10.0015 10.0855 10.0054 10.0892 10.0054 10.0937V10.9401C10.0054 11.0533 10.103 11.1451 10.2233 11.1451C10.3436 11.1451 10.4411 11.0533 10.4411 10.9401V10.0937C10.4411 9.86305 10.2418 9.67538 9.99674 9.67538C9.49323 9.67538 6.7546 9.67538 6.24862 9.67538C6.2456 9.67538 6.24264 9.67577 6.23962 9.67582C6.23967 9.67295 6.23994 9.67011 6.23994 9.66721V8.85984L7.077 9.42428C7.31846 9.58709 7.65577 9.42502 7.65577 9.14436V8.73663H9.50017C9.70544 8.73663 9.87245 8.5794 9.87245 8.38616V7.7293C9.87245 7.53606 9.70544 7.37883 9.50017 7.37883H7.65577V6.9711C7.65577 6.69101 7.31875 6.52812 7.077 6.69118L6.23994 7.25562V7.12691C6.23994 6.89623 6.04059 6.70857 5.79554 6.70857C5.46834 6.70857 3.07334 6.70857 2.74565 6.70857V5.29384H11.2538V12.6422H10.4407C10.4407 12.6394 10.4411 12.6368 10.4411 12.634V11.897C10.4411 11.7838 10.3436 11.692 10.2233 11.692ZM7.81044 11.2135V10.0855H8.43492V11.2135H7.81044ZM3.53078 11.6236H4.3122C4.50916 11.6236 4.66943 11.4728 4.66943 11.2873V10.0855H5.79556C5.80036 10.0855 5.80428 10.0892 5.80428 10.0937V12.634C5.80428 12.6385 5.80036 12.6422 5.79556 12.6422H2.04742C2.04263 12.6422 2.03874 12.6385 2.03874 12.634V10.0937C2.03874 10.0892 2.04263 10.0855 2.04742 10.0855H3.17355V11.2873C3.17358 11.4728 3.3338 11.6236 3.53078 11.6236ZM3.60927 11.2135V10.0855H4.23375V11.2135H3.60927ZM5.79554 9.67536C5.29203 9.67536 2.5534 9.67536 2.04742 9.67536C2.04263 9.67536 2.03874 9.67169 2.03874 9.66718V7.12688C2.03874 7.12237 2.04263 7.1187 2.04742 7.1187H3.17355V8.32053C3.17355 8.50596 3.3338 8.65681 3.53075 8.65681H4.31217C4.50913 8.65681 4.6694 8.50596 4.6694 8.32053V7.1187H5.79554C5.80033 7.1187 5.80425 7.12237 5.80425 7.12688V7.54938L5.46552 7.77778C5.26217 7.91488 5.26202 8.20044 5.46552 8.33765L5.80425 8.56606V9.66718C5.80425 9.67166 5.80033 9.67536 5.79554 9.67536ZM3.60927 8.24662V7.11868H4.23375V8.24662H3.60927ZM5.79859 8.0577C6.03252 7.89995 7.09922 7.18067 7.22008 7.09918V7.484C7.22008 7.65213 7.3654 7.78894 7.544 7.78894H9.43679V8.32644H7.54403C7.36543 8.32644 7.22011 8.46324 7.22011 8.63138V9.0162C7.07369 8.91749 6.04161 8.22155 5.79859 8.0577ZM0.435412 13.0524H13.5641V13.5899H0.435412V13.0524Z" fill="#6D7189"/>
</svg>
