<svg width="14" height="14" viewBox="0 0 14 14" fill="none" xmlns="http://www.w3.org/2000/svg">
<path d="M4.46572 11.184C3.6585 11.184 3.00415 11.8564 3.00415 12.6858C3.00415 13.5153 3.65853 14.1876 4.46572 14.1876C5.27295 14.1876 5.9273 13.5152 5.9273 12.6858C5.92733 11.8564 5.27295 11.184 4.46572 11.184ZM4.46572 13.5202C4.01727 13.5202 3.65375 13.1466 3.65375 12.6859C3.65375 12.2251 4.01727 11.8515 4.46572 11.8515C4.91417 11.8515 5.2777 12.2251 5.2777 12.6859C5.27773 13.1466 4.91417 13.5202 4.46572 13.5202Z" fill="#6D7189"/>
<path d="M10.6375 11.184C9.83026 11.184 9.1759 11.8564 9.1759 12.6858C9.1759 13.5153 9.83029 14.1876 10.6375 14.1876C11.4447 14.1876 12.0991 13.5152 12.0991 12.6858C12.0991 11.8564 11.4447 11.184 10.6375 11.184ZM10.6375 13.5202C10.189 13.5202 9.8255 13.1466 9.8255 12.6859C9.8255 12.2251 10.189 11.8515 10.6375 11.8515C11.0859 11.8515 11.4495 12.2251 11.4495 12.6859C11.4495 13.1466 11.0859 13.5202 10.6375 13.5202Z" fill="#6D7189"/>
<path d="M13.9335 2.42344C13.8659 2.34753 13.7734 2.3 13.6737 2.28994L3.10158 2.13976L2.80926 1.22199C2.60333 0.608472 2.04419 0.194286 1.41262 0.187419H0.324554C0.145167 0.187419 -0.000244141 0.33683 -0.000244141 0.521151C-0.000244141 0.705471 0.145167 0.854883 0.324554 0.854883H1.41262C1.76577 0.862899 2.07673 1.0959 2.19215 1.43892L4.25461 7.82987L4.09223 8.21365C3.9111 8.69357 3.9655 9.23373 4.23838 9.66538C4.50866 10.0893 4.96336 10.351 5.45638 10.3662H11.7737C11.9531 10.3662 12.0985 10.2168 12.0985 10.0325C12.0985 9.84817 11.9531 9.69876 11.7737 9.69876H5.45635C5.17793 9.69161 4.92164 9.54111 4.77427 9.29828C4.62855 9.05841 4.59862 8.76291 4.69308 8.49731L4.82301 8.19695L11.66 7.46273C12.411 7.37774 13.0287 6.81651 13.2028 6.06105L13.9823 2.70706C14.0174 2.61048 13.9988 2.50186 13.9335 2.42344ZM12.5694 5.91091C12.464 6.39721 12.0622 6.75592 11.5788 6.7953L4.82301 7.51281L3.3127 2.80722L13.2677 2.9574L12.5694 5.91091Z" fill="#6D7189"/>
</svg>
