<svg width="16" height="16" viewBox="0 0 16 16" fill="none" xmlns="http://www.w3.org/2000/svg">
<g clip-path="url(#clip0)">
<path d="M9.67818 4.38417L7.99944 6.54794L6.3207 4.38731C5.22779 4.31802 4.38684 5.19676 4.38684 6.19519V11.3574H5.41991V15.9999H10.5821V11.3542H11.612V6.19204C11.612 5.19676 10.8309 4.35582 9.67818 4.38417ZM8.25456 15.4834V12.6456H7.73802V15.4834H5.93015V11.3542H10.0593V15.4834H8.25456ZM11.0955 10.8377H4.90338V6.19204C4.90338 5.52117 5.41676 4.96999 6.07188 4.907L7.99944 7.38574L9.927 4.907C10.5821 4.96999 11.0955 5.52117 11.0955 6.19204V10.8377Z" fill="#6D7189"/>
<path d="M7.99964 0C6.86263 0 5.93665 0.925984 5.93665 2.06299C5.93665 3.20315 6.86263 4.12913 7.99964 4.12913C9.13665 4.12913 10.0626 3.20315 10.0626 2.06614C10.0626 0.925984 9.13665 0 7.99964 0ZM7.99964 3.61575C7.14609 3.61575 6.45003 2.91968 6.45003 2.06614C6.45003 1.2126 7.14609 0.516535 7.99964 0.516535C8.85318 0.516535 9.54924 1.2126 9.54924 2.06614C9.54924 2.91968 8.85318 3.61575 7.99964 3.61575Z" fill="#6D7189"/>
<path d="M14.1917 4.38428H11.6121V4.90081H14.1917C14.9035 4.90081 15.483 5.48034 15.483 6.19215V10.063H11.8704V10.5796H14.4499V14.7087H11.8704V11.6126H11.3539V15.2252H14.9665V10.5796H15.9996V6.19215C15.9996 5.19688 15.1901 4.38428 14.1917 4.38428Z" fill="#6D7189"/>
<path d="M13.4205 0.513275C12.4221 0.513275 11.6127 1.32272 11.6127 2.32115C11.6127 3.31957 12.4221 4.12902 13.4205 4.12902C14.4158 4.12902 15.2284 3.31957 15.2284 2.32115C15.2284 1.32587 14.419 0.513275 13.4205 0.513275ZM13.4205 3.61564C12.7087 3.61564 12.1292 3.03611 12.1292 2.3243C12.1292 1.61249 12.7087 1.03296 13.4205 1.03296C14.1324 1.03296 14.7119 1.61249 14.7119 2.3243C14.7119 3.03611 14.1324 3.61564 13.4205 3.61564Z" fill="#6D7189"/>
<path d="M4.12889 11.6126V14.7087H1.54936V10.5796H4.12889V10.063H0.516291V6.19215C0.516291 5.48034 1.09582 4.90081 1.80763 4.90081H4.38716V4.38428H1.80763C0.809205 4.38743 -0.000244141 5.19688 -0.000244141 6.19215V10.5796H1.03283V15.2252H4.64543V11.6126H4.12889Z" fill="#6D7189"/>
<path d="M2.57902 0.513275C1.58059 0.513275 0.774292 1.32587 0.774292 2.32115C0.774292 3.31957 1.58374 4.12902 2.57902 4.12902C3.57429 4.12902 4.38689 3.31957 4.38689 2.32115C4.38689 1.32587 3.57744 0.513275 2.57902 0.513275ZM2.57902 3.61564C1.86721 3.61564 1.28768 3.03611 1.28768 2.3243C1.29083 1.61249 1.86721 1.03296 2.57902 1.03296C3.29083 1.03296 3.87035 1.61249 3.87035 2.3243C3.87035 3.03611 3.29083 3.61564 2.57902 3.61564Z" fill="#6D7189"/>
<path d="M8.25824 7.74196H7.7417V8.2585H8.25824V7.74196Z" fill="#6D7189"/>
<path d="M8.25824 8.77493H7.7417V9.29146H8.25824V8.77493Z" fill="#6D7189"/>
<path d="M8.25824 9.80788H7.7417V10.3244H8.25824V9.80788Z" fill="#6D7189"/>
</g>
<defs>
<clipPath id="clip0">
<rect width="16" height="16" fill="white" transform="translate(-0.000244141)"/>
</clipPath>
</defs>
</svg>
