<svg width="16" height="16" viewBox="0 0 16 16" fill="none" xmlns="http://www.w3.org/2000/svg">
<g clip-path="url(#clip0)">
<path d="M14.996 6.88958C14.8922 6.78603 14.7241 6.78629 14.6206 6.8901C14.5172 6.9939 14.5173 7.16198 14.6212 7.26553L15.092 7.73466H13.5786C13.4321 7.73466 13.3132 7.8535 13.3132 8.00007C13.3132 8.14664 13.4321 8.26548 13.5786 8.26548H15.092L14.6213 8.73448C14.5175 8.83802 14.5173 9.0061 14.6208 9.11004C14.7244 9.21384 14.8925 9.2141 14.9963 9.11056L15.9218 8.18798C15.9718 8.13821 16 8.07057 16 8.00007C16 7.92944 15.9718 7.86179 15.9218 7.81203L14.996 6.88958Z" fill="#6977DF"/>
<path d="M0.907432 8.26548H2.42083C2.5674 8.26548 2.68624 8.14664 2.68624 8.00007C2.68624 7.8535 2.5674 7.73466 2.42083 7.73466H0.907432L1.37812 7.26553C1.48205 7.16198 1.48231 6.99403 1.37876 6.8901C1.27535 6.78629 1.10727 6.78603 1.00346 6.88958L0.0777714 7.81203C0.0278777 7.86179 -0.000244141 7.92944 -0.000244141 8.00007C-0.000244141 8.07057 0.0278777 8.13821 0.0777714 8.18798L1.00346 9.11056C1.10727 9.21397 1.27535 9.21371 1.37876 9.10991C1.48231 9.00611 1.48205 8.83802 1.37812 8.73448L0.907432 8.26548Z" fill="#6977DF"/>
<path d="M8.7338 14.6216L8.2648 15.0923V13.5789C8.2648 13.4323 8.14596 13.3135 7.99939 13.3135C7.85282 13.3135 7.73398 13.4323 7.73398 13.5789V15.0923L7.26485 14.6216C7.16131 14.5178 6.99322 14.5175 6.88942 14.6211C6.78561 14.7246 6.78535 14.8927 6.8889 14.9965L7.81135 15.9221C7.86111 15.9721 7.92876 16.0002 7.99939 16.0002C8.06989 16.0002 8.13754 15.9721 8.1873 15.9221L9.10988 14.9965C9.21342 14.8927 9.21316 14.7246 9.10936 14.6211C9.00543 14.5175 8.83734 14.5178 8.7338 14.6216Z" fill="#6977DF"/>
<path d="M7.99939 2.68648C8.14596 2.68648 8.2648 2.56764 8.2648 2.42107V0.907676L8.7338 1.37836C8.83734 1.4823 9.00543 1.48255 9.10923 1.37901C9.21304 1.27559 9.21329 1.10751 9.10988 1.00371L8.1873 0.0780155C8.13754 0.0281219 8.06989 0 7.99939 0C7.92876 0 7.86111 0.0281219 7.81135 0.0780155L6.8889 1.00371C6.78535 1.10751 6.78561 1.27559 6.88942 1.37901C6.99335 1.48255 7.16131 1.4823 7.26485 1.37836L7.73398 0.907676V2.42107C7.73398 2.56764 7.85282 2.68648 7.99939 2.68648Z" fill="#6977DF"/>
<path d="M13.4658 11.8968C13.3193 11.8971 13.2007 12.0162 13.2009 12.1628L13.202 12.8273L12.1319 11.7573C12.0279 11.6555 11.8615 11.6564 11.7587 11.7593C11.6558 11.8621 11.6549 12.0285 11.7566 12.1326L12.8267 13.2063L12.1621 13.2087H12.1616C12.0917 13.2078 12.0244 13.235 11.9745 13.2841C11.9247 13.3331 11.8964 13.4001 11.8962 13.4701C11.8959 13.6168 12.0145 13.736 12.1612 13.7366L13.468 13.7395H13.4685C13.6158 13.7372 13.734 13.6172 13.734 13.47L13.7318 12.1625C13.7319 12.0919 13.7039 12.0242 13.654 11.9743C13.6041 11.9246 13.5363 11.8967 13.4658 11.8968Z" fill="#6977DF"/>
<path d="M4.05471 4.32073C4.16201 4.32073 4.25882 4.25607 4.2999 4.1568C4.34098 4.05766 4.31817 3.94349 4.24236 3.86767L3.17217 2.79386L3.83673 2.79152H3.83725C3.90723 2.7923 3.97449 2.76509 4.02438 2.7161C4.07415 2.66699 4.1024 2.59998 4.10266 2.53013C4.10292 2.3833 3.98434 2.26408 3.83764 2.26356L2.53081 2.26071H2.53042C2.38307 2.26291 2.26501 2.38291 2.26501 2.53026L2.26722 3.84525C2.26683 3.99338 2.38463 4.11468 2.53263 4.11857H2.53314C2.68114 4.11468 2.79881 3.99312 2.79804 3.84499L2.79687 3.17668L3.86706 4.24492C3.91695 4.29417 3.98447 4.32151 4.05471 4.32073Z" fill="#6977DF"/>
<path d="M3.86718 11.7569L2.797 12.827L2.79816 12.1548C2.79894 12.0067 2.68127 11.8851 2.53314 11.8814H2.53263C2.38476 11.8849 2.26696 12.006 2.26722 12.1539L2.26502 13.4646C2.26489 13.5364 2.29275 13.6055 2.34277 13.6571C2.39215 13.708 2.45954 13.7375 2.53055 13.7392H2.53094L3.83777 13.7345C3.9325 13.7355 4.02036 13.6854 4.06793 13.6037C4.11562 13.5218 4.11549 13.4207 4.0678 13.3389C4.02011 13.257 3.93211 13.2072 3.83738 13.2084H3.83686L3.1723 13.2059L4.24249 12.1341C4.34487 12.0301 4.34448 11.8631 4.24145 11.7597C4.13855 11.6563 3.97151 11.655 3.86718 11.7569Z" fill="#6977DF"/>
<path d="M13.4657 4.11842H13.4663C13.6141 4.11479 13.7321 3.99362 13.7317 3.84576L13.7339 2.53517C13.734 2.46403 13.7061 2.39573 13.6561 2.34506C13.6064 2.29491 13.5387 2.26653 13.4679 2.2664L12.1611 2.26808C12.067 2.26717 11.9796 2.31681 11.9323 2.39819C11.885 2.47971 11.885 2.58027 11.9324 2.66153C11.9799 2.74291 12.0674 2.79242 12.1615 2.79138H12.162L12.8266 2.79371L11.7565 3.86571C11.6525 3.96926 11.6521 4.13773 11.7556 4.2418C11.8593 4.34586 12.0278 4.34625 12.1318 4.24257L13.2019 3.17252L13.2009 3.84485C13.1999 3.99298 13.3177 4.11454 13.4657 4.11842Z" fill="#6977DF"/>
<path d="M12.655 7.82381C12.7334 7.77702 12.7825 7.69357 12.7855 7.6022C12.7878 7.51162 12.7435 7.42595 12.6681 7.37554L11.574 6.64852L12.6691 5.9215C12.7446 5.87122 12.7894 5.78581 12.7875 5.6951C12.7857 5.60425 12.7378 5.52079 12.6602 5.47362L9.85937 3.77322C9.78018 3.72514 9.68169 3.72177 9.5994 3.76454L7.99982 4.59484L6.40012 3.76467C6.31782 3.72203 6.21933 3.72527 6.14015 3.77335L3.33937 5.47349C3.26148 5.52066 3.2134 5.60451 3.21172 5.69549C3.21003 5.78646 3.255 5.87186 3.33094 5.92202L4.43327 6.64852L3.33094 7.37502C3.255 7.42518 3.21003 7.51071 3.21172 7.60168C3.21327 7.69266 3.26148 7.77651 3.33911 7.82381L4.64904 8.61615V10.2122C4.64917 10.307 4.69984 10.3944 4.78188 10.4419L7.86647 12.2291C7.94863 12.2768 8.05011 12.2769 8.1324 12.2294L11.2227 10.442C11.3036 10.394 11.3524 10.3063 11.3506 10.2122V8.60954L12.655 7.82381ZM10.9785 8.22011L9.71202 8.99184L8.555 8.38404L11.0835 6.95955L12.027 7.58613L10.9785 8.22011ZM7.99995 5.19914L10.5554 6.64774L7.99995 8.0874L5.45356 6.64774L7.99995 5.19914ZM9.71163 4.30455L12.0277 5.71039L11.084 6.33724L8.5563 4.90419L9.71163 4.30455ZM6.28815 4.30455L7.44438 4.90457L4.92585 6.33737L3.97347 5.70961L6.28815 4.30455ZM4.92637 6.95942L7.44555 8.38365L6.2875 8.99184L5.0202 8.21959L3.97399 7.58691L4.92637 6.95942ZM5.17986 8.93922L6.13911 9.52343C6.21894 9.57203 6.31847 9.57514 6.40128 9.53173L7.73441 8.8314V11.5389L5.17986 10.0593V8.93922ZM8.26523 11.5398V8.8314L9.59823 9.53173C9.63634 9.55168 9.67871 9.56218 9.72174 9.56218C9.76891 9.56218 9.81505 9.5487 9.85496 9.52343L10.8198 8.93248V10.059L8.26523 11.5398Z" fill="#6977DF"/>
</g>
<defs>
<clipPath id="clip0">
<rect width="16" height="16" fill="white" transform="translate(-0.000244141)"/>
</clipPath>
</defs>
</svg>
