<svg width="12" height="14" viewBox="0 0 12 14" fill="none" xmlns="http://www.w3.org/2000/svg">
<path d="M6.53564 5.50746C6.68666 5.50746 6.80908 5.38504 6.80908 5.23403V4.14812C6.80908 3.99711 6.68666 3.87469 6.53564 3.87469C6.38463 3.87469 6.26221 3.99711 6.26221 4.14812V5.23403C6.26221 5.38504 6.38463 5.50746 6.53564 5.50746Z" fill="#6D7189"/>
<path d="M6.53564 3.32402C6.68666 3.32402 6.80908 3.2016 6.80908 3.05058V3.04902C6.80908 2.898 6.68666 2.77635 6.53564 2.77635C6.38463 2.77635 6.26221 2.89954 6.26221 3.05056C6.26221 3.20157 6.38463 3.32402 6.53564 3.32402Z" fill="#6D7189"/>
<path d="M11.3228 0H0.777883C0.440762 0 0.166504 0.274258 0.166504 0.611379V12.6965C0.166504 13.4152 0.751278 14 1.47009 14H11.3228C11.4738 14 11.5962 13.8776 11.5962 13.7266V0.273438C11.5962 0.122418 11.4738 0 11.3228 0ZM0.713379 0.611379C0.713379 0.576406 0.742938 0.546875 0.777883 0.546875H1.92914V11.3922H1.47009C1.18818 11.3922 0.926879 11.4822 0.713379 11.635V0.611379ZM11.0493 11.3922H6.86189C6.71088 11.3922 6.58846 11.5146 6.58846 11.6656C6.58846 11.8166 6.71088 11.939 6.86189 11.939H11.0493V13.4531H1.47009C1.05285 13.4531 0.713379 13.1137 0.713379 12.6965C0.713379 12.2788 1.05285 11.939 1.47009 11.939H4.40629C4.55731 11.939 4.67973 11.8166 4.67973 11.6656C4.67973 11.5146 4.55731 11.3922 4.40629 11.3922H2.47604V0.546875H11.0493V11.3922Z" fill="#6D7189"/>
<path d="M6.5357 6.74445C7.97083 6.74445 9.13841 5.5766 9.13841 4.14111C9.13841 2.70605 7.97083 1.53853 6.5357 1.53853C5.10056 1.53853 3.93298 2.70602 3.93298 4.14111C3.93301 5.5766 5.10056 6.74445 6.5357 6.74445ZM6.5357 2.08543C7.66929 2.08543 8.59154 3.00763 8.59154 4.14113C8.59154 5.27508 7.66929 6.1976 6.5357 6.1976C5.40211 6.1976 4.47986 5.27508 4.47986 4.14113C4.47989 3.0076 5.40211 2.08543 6.5357 2.08543Z" fill="#6D7189"/>
<path d="M4.29398 10.1688H8.52928C8.78093 10.1688 8.98565 9.96405 8.98565 9.7124V8.55675C8.98565 8.30554 8.78093 8.10117 8.52928 8.10117H4.29398C4.04275 8.10117 3.83838 8.30554 3.83838 8.55675V9.7124C3.83841 9.96405 4.04277 10.1688 4.29398 10.1688ZM4.38528 8.64805H8.4388V9.62189H4.38528V8.64805Z" fill="#6D7189"/>
<path d="M5.63416 11.3921C5.48314 11.3921 5.36072 11.5146 5.36072 11.6656C5.36072 11.8166 5.48314 11.939 5.63416 11.939H5.63571C5.78673 11.939 5.90839 11.8166 5.90839 11.6656C5.90839 11.5146 5.78517 11.3921 5.63416 11.3921Z" fill="#6D7189"/>
</svg>
