<svg width="16" height="16" viewBox="0 0 16 16" fill="none" xmlns="http://www.w3.org/2000/svg">
<g clip-path="url(#clip0)">
<path d="M8.00572 -3.17929e-05C4.77235 -3.17929e-05 1.85741 1.94769 0.620104 4.93494C-0.6172 7.92205 0.0666457 11.3605 2.35293 13.6469C4.37105 15.6734 7.31804 16.4673 10.0811 15.729C12.8441 14.9907 15.0022 12.8325 15.7406 10.0696C16.4788 7.30655 15.6848 4.35957 13.6584 2.34145C12.1625 0.837346 10.127 -0.00578413 8.00572 -3.17929e-05ZM3.68433 13.8649V13.1731C3.68433 10.7866 5.61904 8.85174 8.00572 8.85174C10.3924 8.85174 12.3271 10.7866 12.3271 13.1731V13.8649C9.75813 15.761 6.2533 15.761 3.68433 13.8649ZM13.0283 13.2771V13.1731C13.0283 10.4038 10.7752 8.15064 8.00572 8.15064C5.23623 8.15064 2.98309 10.4038 2.98309 13.1731V13.2771C1.53281 11.9027 0.711731 9.99222 0.712827 7.9941C0.712827 3.97279 3.98441 0.701207 8.00572 0.701207C12.027 0.701207 15.2986 3.97279 15.2986 7.9941C15.2996 9.99222 14.4788 11.9027 13.0283 13.2771Z" fill="#6D7189"/>
<path d="M8.02187 2.35437C6.52489 2.35437 5.31128 3.56798 5.31128 5.06496C5.31128 6.56194 6.52489 7.77555 8.02187 7.77555C9.51885 7.77555 10.7325 6.56194 10.7325 5.06496C10.7307 3.56866 9.51817 2.35615 8.02187 2.35437ZM8.02187 7.07431C6.91221 7.07431 6.01252 6.17462 6.01252 5.06496C6.01252 3.95517 6.91221 3.05561 8.02187 3.05561C9.13166 3.05561 10.0312 3.95517 10.0312 5.06496C10.03 6.17421 9.13111 7.07308 8.02187 7.07431Z" fill="#6D7189"/>
</g>
<defs>
<clipPath id="clip0">
<rect width="16" height="16" fill="white"/>
</clipPath>
</defs>
</svg>
