<svg width="14" height="14" viewBox="0 0 14 14" fill="none" xmlns="http://www.w3.org/2000/svg">
<path d="M1.67773 8.2021H1.89632C2.04734 8.2021 2.16976 8.07965 2.16976 7.92866C2.16976 7.77767 2.04734 7.65522 1.89632 7.65522H1.67773C1.52671 7.65522 1.4043 7.77767 1.4043 7.92866C1.4043 8.07965 1.52671 8.2021 1.67773 8.2021Z" fill="#6D7189"/>
<path d="M4.64927 8.2021C4.80029 8.2021 4.92271 8.07965 4.92271 7.92866C4.92271 7.77767 4.80029 7.65522 4.64927 7.65522H2.9906C2.83958 7.65522 2.71716 7.77767 2.71716 7.92866C2.71716 8.07965 2.83958 8.2021 2.9906 8.2021H4.64927Z" fill="#6D7189"/>
<path d="M1.67773 9.50007H4.6494C4.80042 9.50007 4.92284 9.37763 4.92284 9.22664C4.92284 9.07565 4.80042 8.9532 4.6494 8.9532H1.67773C1.52671 8.9532 1.4043 9.07565 1.4043 9.22664C1.4043 9.37763 1.52671 9.50007 1.67773 9.50007Z" fill="#6D7189"/>
<path d="M10.7382 5.65327V1.0672C10.7382 0.576734 10.3388 0.177734 9.8478 0.177734H0.889385C0.398838 0.177734 -0.000244141 0.576762 -0.000244141 1.0672V4.31777C-0.000244141 4.46876 0.122174 4.59121 0.273193 4.59121C0.424213 4.59121 0.546631 4.46876 0.546631 4.31777V1.0672C0.546631 0.878281 0.700385 0.724609 0.889385 0.724609H3.42563V4.27129C3.42563 4.37038 3.47925 4.46173 3.56576 4.51002C3.65228 4.55831 3.75818 4.55607 3.84254 4.50403L5.36859 3.56346L6.89465 4.50403C7.07386 4.6145 7.31156 4.48079 7.31156 4.27126V0.724609H9.8478C10.0372 0.724609 10.1913 0.878281 10.1913 1.0672V5.57337C10.0846 5.56508 9.97675 5.56076 9.86795 5.56076C7.58967 5.56076 5.73615 7.41382 5.73615 9.6915C5.73615 9.92135 5.75534 10.1468 5.79163 10.3665H0.889385C0.700385 10.3665 0.546631 10.2125 0.546631 10.0232V6.77258C0.546631 6.62159 0.424213 6.49914 0.273193 6.49914C0.122174 6.49914 -0.000244141 6.62159 -0.000244141 6.77258V10.0232C-0.000244141 10.5141 0.398838 10.9134 0.889385 10.9134H5.92069C6.44304 12.5964 8.01497 13.8223 9.86795 13.8223C12.1462 13.8223 13.9998 11.9692 13.9998 9.69153C13.9998 7.71222 12.6 6.05388 10.7382 5.65327ZM6.76468 3.78156L5.51206 3.00951C5.4241 2.95531 5.31308 2.95531 5.22512 3.00951L3.9725 3.78156V0.724609H6.76468V3.78156ZM9.86795 13.2754C7.89122 13.2754 6.28302 11.6677 6.28302 9.69153C6.28302 7.71539 7.89122 6.10766 9.86795 6.10766C11.8447 6.10766 13.4529 7.71537 13.4529 9.69153C13.4529 11.6677 11.8447 13.2754 9.86795 13.2754Z" fill="#6D7189"/>
<path d="M10.3648 8.10776H9.32024L9.80775 7.62079C9.91458 7.51407 9.91469 7.34093 9.80797 7.23407C9.70124 7.12721 9.52813 7.12716 9.42124 7.23385L8.46635 8.18771C8.36094 8.29219 8.36094 8.47017 8.46635 8.57462L9.42124 9.52851C9.47465 9.58183 9.54456 9.60849 9.61448 9.60849C9.68451 9.60849 9.75454 9.58175 9.80794 9.52829C9.91466 9.42146 9.91458 9.24832 9.80775 9.14157L9.32024 8.65458H10.3648C11.0265 8.65458 11.5648 9.19273 11.5648 9.85417C11.5648 10.5161 11.0265 11.0545 10.3648 11.0545H7.89771C7.74669 11.0545 7.62427 11.177 7.62427 11.328C7.62427 11.479 7.74669 11.6014 7.89771 11.6014H10.3648C11.328 11.6014 12.1117 10.8176 12.1117 9.85417C12.1116 8.89121 11.328 8.10776 10.3648 8.10776Z" fill="#6D7189"/>
<path d="M0.273193 5.81937C0.424213 5.81937 0.546631 5.69616 0.546631 5.54517C0.546631 5.39417 0.424213 5.27173 0.273193 5.27173C0.122174 5.27173 -0.000244141 5.39417 -0.000244141 5.54517V5.54672C-0.000244141 5.69772 0.122174 5.81937 0.273193 5.81937Z" fill="#6D7189"/>
</svg>
