<svg width="150" height="20" viewBox="0 0 150 20" fill="none" xmlns="http://www.w3.org/2000/svg">
<g clip-path="url(#clip0)">
<path d="M8.67773 11.2021H8.89632C9.04734 11.2021 9.16976 11.0797 9.16976 10.9287C9.16976 10.7777 9.04734 10.6552 8.89632 10.6552H8.67773C8.52671 10.6552 8.4043 10.7777 8.4043 10.9287C8.4043 11.0797 8.52671 11.2021 8.67773 11.2021Z" fill="#6D7189"/>
<path d="M11.6493 11.2021C11.8003 11.2021 11.9227 11.0797 11.9227 10.9287C11.9227 10.7777 11.8003 10.6552 11.6493 10.6552H9.9906C9.83958 10.6552 9.71716 10.7777 9.71716 10.9287C9.71716 11.0797 9.83958 11.2021 9.9906 11.2021H11.6493Z" fill="#6D7189"/>
<path d="M8.67773 12.5001H11.6494C11.8004 12.5001 11.9228 12.3776 11.9228 12.2266C11.9228 12.0756 11.8004 11.9532 11.6494 11.9532H8.67773C8.52671 11.9532 8.4043 12.0756 8.4043 12.2266C8.4043 12.3776 8.52671 12.5001 8.67773 12.5001Z" fill="#6D7189"/>
<path d="M17.7382 8.65327V4.0672C17.7382 3.57673 17.3388 3.17773 16.8478 3.17773H7.88938C7.39884 3.17773 6.99976 3.57676 6.99976 4.0672V7.31777C6.99976 7.46876 7.12217 7.59121 7.27319 7.59121C7.42421 7.59121 7.54663 7.46876 7.54663 7.31777V4.0672C7.54663 3.87828 7.70038 3.72461 7.88938 3.72461H10.4256V7.27129C10.4256 7.37038 10.4792 7.46173 10.5658 7.51002C10.6523 7.55831 10.7582 7.55607 10.8425 7.50403L12.3686 6.56346L13.8946 7.50403C14.0739 7.6145 14.3116 7.48079 14.3116 7.27126V3.72461H16.8478C17.0372 3.72461 17.1913 3.87828 17.1913 4.0672V8.57337C17.0846 8.56508 16.9768 8.56076 16.868 8.56076C14.5897 8.56076 12.7361 10.4138 12.7361 12.6915C12.7361 12.9214 12.7553 13.1468 12.7916 13.3665H7.88938C7.70038 13.3665 7.54663 13.2125 7.54663 13.0232V9.77258C7.54663 9.62159 7.42421 9.49914 7.27319 9.49914C7.12217 9.49914 6.99976 9.62159 6.99976 9.77258V13.0232C6.99976 13.5141 7.39884 13.9134 7.88938 13.9134H12.9207C13.443 15.5964 15.015 16.8223 16.868 16.8223C19.1462 16.8223 20.9998 14.9692 20.9998 12.6915C20.9998 10.7122 19.6 9.05388 17.7382 8.65327ZM13.7647 6.78156L12.5121 6.00951C12.4241 5.95531 12.3131 5.95531 12.2251 6.00951L10.9725 6.78156V3.72461H13.7647V6.78156ZM16.868 16.2754C14.8912 16.2754 13.283 14.6677 13.283 12.6915C13.283 10.7154 14.8912 9.10766 16.868 9.10766C18.8447 9.10766 20.4529 10.7154 20.4529 12.6915C20.4529 14.6677 18.8447 16.2754 16.868 16.2754Z" fill="#6D7189"/>
<path d="M17.3648 11.1078H16.3202L16.8077 10.6208C16.9146 10.5141 16.9147 10.3409 16.808 10.2341C16.7012 10.1272 16.5281 10.1272 16.4212 10.2339L15.4663 11.1877C15.3609 11.2922 15.3609 11.4702 15.4663 11.5746L16.4212 12.5285C16.4746 12.5818 16.5446 12.6085 16.6145 12.6085C16.6845 12.6085 16.7545 12.5817 16.8079 12.5283C16.9147 12.4215 16.9146 12.2483 16.8077 12.1416L16.3202 11.6546H17.3648C18.0265 11.6546 18.5648 12.1927 18.5648 12.8542C18.5648 13.5161 18.0265 14.0545 17.3648 14.0545H14.8977C14.7467 14.0545 14.6243 14.177 14.6243 14.328C14.6243 14.479 14.7467 14.6014 14.8977 14.6014H17.3648C18.328 14.6014 19.1117 13.8176 19.1117 12.8542C19.1116 11.8912 18.328 11.1078 17.3648 11.1078Z" fill="#6D7189"/>
<path d="M7.27319 8.81937C7.42421 8.81937 7.54663 8.69616 7.54663 8.54517C7.54663 8.39417 7.42421 8.27173 7.27319 8.27173C7.12217 8.27173 6.99976 8.39417 6.99976 8.54517V8.54672C6.99976 8.69772 7.12217 8.81937 7.27319 8.81937Z" fill="#6D7189"/>
</g>
<path d="M28.7224 13V5.89062H31.1589C31.963 5.89062 32.575 6.05176 32.9949 6.37402C33.4148 6.69629 33.6248 7.17643 33.6248 7.81445C33.6248 8.13997 33.5369 8.43294 33.3611 8.69336C33.1853 8.95378 32.9281 9.1556 32.5896 9.29883C32.9737 9.40299 33.2699 9.59993 33.4783 9.88965C33.6899 10.1761 33.7957 10.5212 33.7957 10.9248C33.7957 11.5921 33.5808 12.1048 33.1511 12.4629C32.7247 12.821 32.1127 13 31.3152 13H28.7224ZM29.9578 9.79199V12.0137H31.3298C31.7172 12.0137 32.0199 11.9176 32.238 11.7256C32.4561 11.5335 32.5652 11.2666 32.5652 10.9248C32.5652 10.1859 32.1876 9.80827 31.4324 9.79199H29.9578ZM29.9578 8.88379H31.1687C31.5528 8.88379 31.8523 8.79753 32.0671 8.625C32.2852 8.44922 32.3943 8.20182 32.3943 7.88281C32.3943 7.53125 32.2934 7.27734 32.0916 7.12109C31.893 6.96484 31.5821 6.88672 31.1589 6.88672H29.9578V8.88379ZM34.7941 10.3096C34.7941 9.79199 34.8966 9.3265 35.1017 8.91309C35.3068 8.49642 35.5949 8.17741 35.966 7.95605C36.3371 7.73145 36.7635 7.61914 37.2453 7.61914C37.9582 7.61914 38.536 7.84863 38.9787 8.30762C39.4246 8.7666 39.6655 9.37533 39.7013 10.1338L39.7062 10.4121C39.7062 10.9329 39.6053 11.3984 39.4035 11.8086C39.2049 12.2188 38.9184 12.5361 38.5441 12.7607C38.173 12.9854 37.7433 13.0977 37.255 13.0977C36.5096 13.0977 35.9123 12.8503 35.463 12.3555C35.0171 11.8574 34.7941 11.195 34.7941 10.3682V10.3096ZM35.9806 10.4121C35.9806 10.9557 36.0929 11.3822 36.3175 11.6914C36.5421 11.9974 36.8546 12.1504 37.255 12.1504C37.6554 12.1504 37.9663 11.9941 38.1876 11.6816C38.4123 11.3691 38.5246 10.9118 38.5246 10.3096C38.5246 9.77572 38.409 9.35254 38.1779 9.04004C37.95 8.72754 37.6391 8.57129 37.2453 8.57129C36.8579 8.57129 36.5503 8.72591 36.3224 9.03516C36.0945 9.34115 35.9806 9.80013 35.9806 10.4121ZM44.8111 9.16211C44.8111 9.39648 44.7395 9.61296 44.5962 9.81152C44.4563 10.0068 44.2577 10.1631 44.0005 10.2803C44.606 10.4919 44.9087 10.9004 44.9087 11.5059C44.9087 11.9909 44.7118 12.3783 44.3179 12.668C43.924 12.9544 43.3967 13.0977 42.7359 13.0977C42.3322 13.0977 41.9644 13.0309 41.6324 12.8975C41.3003 12.7607 41.0416 12.5687 40.856 12.3213C40.6705 12.0706 40.5777 11.7744 40.5777 11.4326H41.7593C41.7593 11.6475 41.8554 11.8281 42.0474 11.9746C42.2395 12.1178 42.482 12.1895 42.775 12.1895C43.0647 12.1895 43.2942 12.1227 43.4634 11.9893C43.636 11.8525 43.7222 11.6751 43.7222 11.457C43.7222 11.1999 43.6473 11.0143 43.4976 10.9004C43.3479 10.7865 43.1167 10.7295 42.8042 10.7295H41.9546V9.875H42.8335C43.3641 9.86849 43.6294 9.65039 43.6294 9.2207C43.6294 9.00586 43.5529 8.83822 43.4 8.71777C43.247 8.59733 43.037 8.53711 42.7701 8.53711C42.5097 8.53711 42.2899 8.60221 42.1109 8.73242C41.9319 8.85938 41.8423 9.02051 41.8423 9.21582H40.6607C40.6607 8.75033 40.856 8.36947 41.2466 8.07324C41.6373 7.77376 42.1337 7.62402 42.7359 7.62402C43.3902 7.62402 43.8996 7.75749 44.2642 8.02441C44.6288 8.29134 44.8111 8.67057 44.8111 9.16211ZM46.1074 13V7.7168H48.2509C48.9736 7.7168 49.5237 7.84375 49.9013 8.09766C50.2789 8.34831 50.4677 8.70964 50.4677 9.18164C50.4677 9.42578 50.3912 9.64551 50.2382 9.84082C50.0885 10.0329 49.8655 10.181 49.5693 10.2852C49.9143 10.3568 50.1878 10.5016 50.3896 10.7197C50.5914 10.9378 50.6923 11.195 50.6923 11.4912C50.6923 11.9827 50.51 12.3571 50.1455 12.6143C49.7841 12.8714 49.2633 13 48.583 13H46.1074ZM47.2939 10.749V12.0625H48.5927C49.2014 12.0625 49.5058 11.8444 49.5058 11.4082C49.5058 10.9688 49.1966 10.749 48.5781 10.749H47.2939ZM47.2939 9.89941H48.2705C48.9443 9.89941 49.2812 9.70085 49.2812 9.30371C49.2812 8.88704 48.9622 8.6722 48.3242 8.65918H47.2939V9.89941ZM56.4466 10.4121C56.4466 11.2292 56.2611 11.8818 55.89 12.3701C55.5189 12.8551 55.0208 13.0977 54.3958 13.0977C53.8164 13.0977 53.3526 12.9072 53.0042 12.5264V15.0312H51.8177V7.7168H52.9115L52.9603 8.25391C53.3086 7.83073 53.7822 7.61914 54.3812 7.61914C55.0257 7.61914 55.5303 7.86003 55.8949 8.3418C56.2627 8.82031 56.4466 9.486 56.4466 10.3389V10.4121ZM55.265 10.3096C55.265 9.78223 55.1592 9.36393 54.9476 9.05469C54.7393 8.74544 54.4398 8.59082 54.0492 8.59082C53.5641 8.59082 53.2158 8.79102 53.0042 9.19141V11.5352C53.2191 11.9453 53.5707 12.1504 54.0589 12.1504C54.4365 12.1504 54.7311 11.999 54.9427 11.6963C55.1576 11.3903 55.265 10.9281 55.265 10.3096ZM60.7117 13C60.6596 12.8991 60.614 12.7347 60.575 12.5068C60.1973 12.9007 59.7351 13.0977 59.1882 13.0977C58.6576 13.0977 58.2247 12.9463 57.8894 12.6436C57.5541 12.3408 57.3865 11.9665 57.3865 11.5205C57.3865 10.9574 57.5948 10.526 58.0115 10.2266C58.4314 9.92383 59.0304 9.77246 59.8083 9.77246H60.5359V9.42578C60.5359 9.15234 60.4594 8.93424 60.3064 8.77148C60.1534 8.60547 59.9207 8.52246 59.6082 8.52246C59.338 8.52246 59.1166 8.59082 58.9441 8.72754C58.7716 8.861 58.6853 9.0319 58.6853 9.24023H57.4988C57.4988 8.95052 57.5948 8.68034 57.7869 8.42969C57.9789 8.17578 58.2393 7.97721 58.5681 7.83398C58.9001 7.69076 59.2696 7.61914 59.6765 7.61914C60.295 7.61914 60.7882 7.77539 61.156 8.08789C61.5238 8.39714 61.7126 8.83333 61.7224 9.39648V11.7793C61.7224 12.2546 61.7891 12.6338 61.9226 12.917V13H60.7117ZM59.408 12.1455C59.6423 12.1455 59.8621 12.0885 60.0671 11.9746C60.2755 11.8607 60.4317 11.7077 60.5359 11.5156V10.5195H59.8962C59.4568 10.5195 59.1264 10.596 58.905 10.749C58.6837 10.902 58.573 11.1185 58.573 11.3984C58.573 11.6263 58.6479 11.8086 58.7976 11.9453C58.9506 12.0788 59.1541 12.1455 59.408 12.1455ZM67.1447 8.65918H65.4308V13H64.2443V8.65918H62.5499V7.7168H67.1447V8.65918ZM74.7861 8.65918H73.0722V13H71.8857V8.65918H70.1914V7.7168H74.7861V8.65918ZM75.3109 10.3096C75.3109 9.79199 75.4134 9.3265 75.6185 8.91309C75.8236 8.49642 76.1117 8.17741 76.4828 7.95605C76.8539 7.73145 77.2803 7.61914 77.7621 7.61914C78.475 7.61914 79.0528 7.84863 79.4955 8.30762C79.9414 8.7666 80.1823 9.37533 80.2181 10.1338L80.223 10.4121C80.223 10.9329 80.1221 11.3984 79.9203 11.8086C79.7217 12.2188 79.4352 12.5361 79.0609 12.7607C78.6898 12.9854 78.2601 13.0977 77.7718 13.0977C77.0264 13.0977 76.4291 12.8503 75.9798 12.3555C75.5339 11.8574 75.3109 11.195 75.3109 10.3682V10.3096ZM76.4974 10.4121C76.4974 10.9557 76.6097 11.3822 76.8343 11.6914C77.0589 11.9974 77.3714 12.1504 77.7718 12.1504C78.1722 12.1504 78.4831 11.9941 78.7044 11.6816C78.9291 11.3691 79.0414 10.9118 79.0414 10.3096C79.0414 9.77572 78.9258 9.35254 78.6947 9.04004C78.4668 8.72754 78.1559 8.57129 77.7621 8.57129C77.3747 8.57129 77.0671 8.72591 76.8392 9.03516C76.6113 9.34115 76.4974 9.80013 76.4974 10.4121ZM81.4167 13V7.7168H83.5603C84.283 7.7168 84.8331 7.84375 85.2107 8.09766C85.5883 8.34831 85.7771 8.70964 85.7771 9.18164C85.7771 9.42578 85.7006 9.64551 85.5476 9.84082C85.3979 10.0329 85.1749 10.181 84.8787 10.2852C85.2237 10.3568 85.4972 10.5016 85.699 10.7197C85.9008 10.9378 86.0017 11.195 86.0017 11.4912C86.0017 11.9827 85.8194 12.3571 85.4548 12.6143C85.0935 12.8714 84.5727 13 83.8923 13H81.4167ZM82.6033 10.749V12.0625H83.9021C84.5108 12.0625 84.8152 11.8444 84.8152 11.4082C84.8152 10.9688 84.5059 10.749 83.8875 10.749H82.6033ZM82.6033 9.89941H83.5798C84.2537 9.89941 84.5906 9.70085 84.5906 9.30371C84.5906 8.88704 84.2716 8.6722 83.6335 8.65918H82.6033V9.89941ZM90.2863 13C90.2342 12.8991 90.1886 12.7347 90.1496 12.5068C89.772 12.9007 89.3097 13.0977 88.7628 13.0977C88.2322 13.0977 87.7993 12.9463 87.464 12.6436C87.1287 12.3408 86.9611 11.9665 86.9611 11.5205C86.9611 10.9574 87.1694 10.526 87.5861 10.2266C88.006 9.92383 88.605 9.77246 89.383 9.77246H90.1105V9.42578C90.1105 9.15234 90.034 8.93424 89.881 8.77148C89.728 8.60547 89.4953 8.52246 89.1828 8.52246C88.9126 8.52246 88.6912 8.59082 88.5187 8.72754C88.3462 8.861 88.2599 9.0319 88.2599 9.24023H87.0734C87.0734 8.95052 87.1694 8.68034 87.3615 8.42969C87.5535 8.17578 87.8139 7.97721 88.1427 7.83398C88.4748 7.69076 88.8442 7.61914 89.2511 7.61914C89.8696 7.61914 90.3628 7.77539 90.7306 8.08789C91.0985 8.39714 91.2873 8.83333 91.297 9.39648V11.7793C91.297 12.2546 91.3638 12.6338 91.4972 12.917V13H90.2863ZM88.9826 12.1455C89.2169 12.1455 89.4367 12.0885 89.6417 11.9746C89.8501 11.8607 90.0063 11.7077 90.1105 11.5156V10.5195H89.4708C89.0314 10.5195 88.701 10.596 88.4796 10.749C88.2583 10.902 88.1476 11.1185 88.1476 11.3984C88.1476 11.6263 88.2225 11.8086 88.3722 11.9453C88.5252 12.0788 88.7287 12.1455 88.9826 12.1455ZM97.2662 10.4121C97.2662 11.2292 97.0806 11.8818 96.7095 12.3701C96.3384 12.8551 95.8404 13.0977 95.2154 13.0977C94.636 13.0977 94.1721 12.9072 93.8238 12.5264V15.0312H92.6373V7.7168H93.731L93.7798 8.25391C94.1281 7.83073 94.6018 7.61914 95.2007 7.61914C95.8453 7.61914 96.3498 7.86003 96.7144 8.3418C97.0822 8.82031 97.2662 9.486 97.2662 10.3389V10.4121ZM96.0845 10.3096C96.0845 9.78223 95.9787 9.36393 95.7671 9.05469C95.5588 8.74544 95.2593 8.59082 94.8687 8.59082C94.3837 8.59082 94.0354 8.79102 93.8238 9.19141V11.5352C94.0386 11.9453 94.3902 12.1504 94.8785 12.1504C95.2561 12.1504 95.5507 11.999 95.7623 11.6963C95.9771 11.3903 96.0845 10.9281 96.0845 10.3096ZM101.531 13C101.479 12.8991 101.434 12.7347 101.394 12.5068C101.017 12.9007 100.555 13.0977 100.008 13.0977C99.4772 13.0977 99.0442 12.9463 98.7089 12.6436C98.3737 12.3408 98.206 11.9665 98.206 11.5205C98.206 10.9574 98.4143 10.526 98.831 10.2266C99.2509 9.92383 99.8499 9.77246 100.628 9.77246H101.355V9.42578C101.355 9.15234 101.279 8.93424 101.126 8.77148C100.973 8.60547 100.74 8.52246 100.428 8.52246C100.158 8.52246 99.9362 8.59082 99.7636 8.72754C99.5911 8.861 99.5048 9.0319 99.5048 9.24023H98.3183C98.3183 8.95052 98.4143 8.68034 98.6064 8.42969C98.7985 8.17578 99.0589 7.97721 99.3876 7.83398C99.7197 7.69076 100.089 7.61914 100.496 7.61914C101.115 7.61914 101.608 7.77539 101.976 8.08789C102.343 8.39714 102.532 8.83333 102.542 9.39648V11.7793C102.542 12.2546 102.609 12.6338 102.742 12.917V13H101.531ZM100.227 12.1455C100.462 12.1455 100.682 12.0885 100.887 11.9746C101.095 11.8607 101.251 11.7077 101.355 11.5156V10.5195H100.716C100.276 10.5195 99.9459 10.596 99.7246 10.749C99.5032 10.902 99.3925 11.1185 99.3925 11.3984C99.3925 11.6263 99.4674 11.8086 99.6171 11.9453C99.7701 12.0788 99.9736 12.1455 100.227 12.1455Z" fill="#8D91A5"/>
<defs>
<clipPath id="clip0">
<rect width="14" height="14" fill="white" transform="translate(6.99976 3)"/>
</clipPath>
</defs>
</svg>
