<svg width="14" height="14" viewBox="0 0 14 14" fill="none" xmlns="http://www.w3.org/2000/svg">
<g clip-path="url(#clip0)">
<path d="M11.3748 14H2.62484C1.821 14 1.1665 13.3455 1.1665 12.5417V1.45833C1.1665 0.6545 1.821 0 2.62484 0H11.3748C12.1787 0 12.8332 0.6545 12.8332 1.45833V12.5417C12.8332 13.3455 12.1787 14 11.3748 14ZM2.62484 0.583333C2.14242 0.583333 1.74984 0.975917 1.74984 1.45833V12.5417C1.74984 13.0241 2.14242 13.4167 2.62484 13.4167H11.3748C11.8573 13.4167 12.2498 13.0241 12.2498 12.5417V1.45833C12.2498 0.975917 11.8573 0.583333 11.3748 0.583333H2.62484Z" fill="#6D7189"/>
<path d="M10.7913 7H9.62467C9.46367 7 9.33301 6.86933 9.33301 6.70833C9.33301 6.54732 9.46367 6.41666 9.62467 6.41666H10.7913C10.9523 6.41666 11.083 6.54732 11.083 6.70833C11.083 6.86933 10.9523 7 10.7913 7Z" fill="#6D7189"/>
<path d="M10.7913 5.25001H9.62467C9.46367 5.25001 9.33301 5.11934 9.33301 4.95834C9.33301 4.79734 9.46367 4.66667 9.62467 4.66667H10.7913C10.9523 4.66667 11.083 4.79734 11.083 4.95834C11.083 5.11934 10.9523 5.25001 10.7913 5.25001Z" fill="#6D7189"/>
<path d="M10.7913 8.75H9.62467C9.46367 8.75 9.33301 8.61933 9.33301 8.45834C9.33301 8.29734 9.46367 8.16667 9.62467 8.16667H10.7913C10.9523 8.16667 11.083 8.29734 11.083 8.45834C11.083 8.61933 10.9523 8.75 10.7913 8.75Z" fill="#6D7189"/>
<path d="M10.7913 10.5H9.62467C9.46367 10.5 9.33301 10.3693 9.33301 10.2083C9.33301 10.0473 9.46367 9.91666 9.62467 9.91666H10.7913C10.9523 9.91666 11.083 10.0473 11.083 10.2083C11.083 10.3693 10.9523 10.5 10.7913 10.5Z" fill="#6D7189"/>
<path d="M10.7915 12.25H3.20817C3.04717 12.25 2.9165 12.1193 2.9165 11.9583C2.9165 11.7973 3.04717 11.6667 3.20817 11.6667H10.7915C10.9525 11.6667 11.0832 11.7973 11.0832 11.9583C11.0832 12.1193 10.9525 12.25 10.7915 12.25Z" fill="#6D7189"/>
<path d="M5.83317 10.5C4.22492 10.5 2.9165 9.19159 2.9165 7.58334C2.9165 5.97509 4.22492 4.66667 5.83317 4.66667C7.44142 4.66667 8.74984 5.97509 8.74984 7.58334C8.74984 9.19159 7.44142 10.5 5.83317 10.5ZM5.83317 5.25C4.54634 5.25 3.49984 6.2965 3.49984 7.58334C3.49984 8.87017 4.54634 9.91667 5.83317 9.91667C7.12001 9.91667 8.16651 8.87017 8.16651 7.58334C8.16651 6.2965 7.12001 5.25 5.83317 5.25Z" fill="#6D7189"/>
<path d="M3.97699 9.73117C3.90233 9.73117 3.82766 9.70259 3.77049 9.64601C3.65674 9.53226 3.65674 9.34734 3.77049 9.23359L5.54149 7.46259V4.95834C5.54149 4.79734 5.67216 4.66667 5.83316 4.66667C5.99416 4.66667 6.12483 4.79734 6.12483 4.95834V7.58334C6.12483 7.66092 6.09391 7.73501 6.03966 7.78984L4.18349 9.64601C4.12633 9.70259 4.05166 9.73117 3.97699 9.73117Z" fill="#6D7189"/>
</g>
<defs>
<clipPath id="clip0">
<rect width="14" height="14" fill="white" transform="translate(-0.000244141)"/>
</clipPath>
</defs>
</svg>
