<svg width="16" height="16" viewBox="0 0 16 16" fill="none" xmlns="http://www.w3.org/2000/svg">
<g clip-path="url(#clip0)">
<path d="M13.6566 2.34316C12.1456 0.832125 10.1366 0 7.99976 0C6.27554 0 4.58532 0.564062 3.20963 1.59269C3.02641 1.47359 2.80816 1.40409 2.57382 1.40409C1.92869 1.40409 1.40385 1.92894 1.40385 2.57406C1.40385 3.21919 1.92869 3.74403 2.57382 3.74403C3.21894 3.74403 3.74379 3.21919 3.74379 2.57406C3.74379 2.40056 3.70554 2.23597 3.63751 2.08775C4.90588 1.14822 6.40776 0.653063 7.99979 0.653063C12.0509 0.653063 15.3467 3.94891 15.3467 8C15.3467 12.0511 12.0508 15.3469 7.99976 15.3469C3.94866 15.3469 0.652818 12.0511 0.652818 8C0.652818 7.81966 0.506631 7.67347 0.326287 7.67347C0.145943 7.67347 -0.000244141 7.81966 -0.000244141 8C-0.000244141 10.1369 0.831881 12.1459 2.34291 13.6568C3.85391 15.1678 5.86288 16 7.99976 16C10.1366 16 12.1456 15.1679 13.6566 13.6568C15.1676 12.1458 15.9998 10.1369 15.9998 8C15.9998 5.86312 15.1676 3.85413 13.6566 2.34316ZM2.57379 3.09094C2.28879 3.09094 2.05688 2.85906 2.05688 2.57403C2.05688 2.289 2.28879 2.05713 2.57379 2.05713C2.85879 2.05713 3.09069 2.28903 3.09069 2.57403C3.09069 2.85903 2.85882 3.09094 2.57379 3.09094Z" fill="#6977DF"/>
<path d="M10.519 1.70506C10.4618 1.68219 10.4035 1.65975 10.3457 1.63841C10.1764 1.57591 9.98869 1.66253 9.92629 1.83175C9.86385 2.00097 9.95041 2.18872 10.1196 2.25113C10.1719 2.27041 10.2246 2.29066 10.2762 2.31135C10.316 2.32728 10.357 2.33481 10.3975 2.33481C10.527 2.33481 10.6496 2.25719 10.7007 2.1296C10.7677 1.96219 10.6863 1.77213 10.519 1.70506Z" fill="#6977DF"/>
<path d="M13.8723 4.61219C13.2974 3.61769 12.473 2.77904 11.4882 2.18691C11.3337 2.09397 11.1331 2.14394 11.0402 2.29844C10.9472 2.45297 10.9972 2.65363 11.1517 2.74654C13.0137 3.86623 14.1254 5.83019 14.1254 8.00016C14.1254 8.18051 14.2716 8.32669 14.452 8.32669C14.6323 8.32669 14.7785 8.18051 14.7785 8.00016C14.7785 6.80913 14.4651 5.63757 13.8723 4.61219Z" fill="#6977DF"/>
<path d="M9.74076 8.13845C9.26245 7.6538 8.67892 7.41139 7.99014 7.41139H6.50258V5.3068H9.77429C9.93876 5.3068 10.0756 5.16999 10.0756 5.00546C10.0756 4.84067 9.9377 4.70889 9.77429 4.70889H6.20601C6.12304 4.70889 6.05298 4.73758 5.99558 4.79499C5.93817 4.85236 5.90948 4.92255 5.90948 5.00542V7.70792C5.90948 7.79089 5.93817 7.86095 5.99558 7.91836C6.05295 7.97577 6.12304 8.00445 6.20601 8.00445H7.99014C8.50673 8.00445 8.94992 8.19098 9.31986 8.56411C9.68973 8.92452 9.8747 9.36614 9.8747 9.88908C9.8747 10.4121 9.68973 10.857 9.31986 11.2236C8.94989 11.5935 8.5067 11.7784 7.99014 11.7784C7.47989 11.7784 7.03508 11.5935 6.65564 11.2236C6.28889 10.857 6.10558 10.4121 6.10558 9.88908C6.10558 9.72536 5.97276 9.59252 5.80901 9.59252C5.64526 9.59252 5.51245 9.72536 5.51245 9.88908C5.51245 10.5778 5.75317 11.1646 6.2347 11.6493C6.7257 12.1308 7.31092 12.3715 7.99014 12.3715C8.6757 12.3715 9.25923 12.1308 9.74076 11.6493C10.2286 11.1614 10.4726 10.5747 10.4726 9.88908C10.4726 9.20673 10.2286 8.6232 9.74076 8.13845Z" fill="#6977DF"/>
</g>
<defs>
<clipPath id="clip0">
<rect width="16" height="16" fill="white" transform="translate(-0.000244141)"/>
</clipPath>
</defs>
</svg>
