<svg width="16" height="16" viewBox="0 0 16 16" fill="none" xmlns="http://www.w3.org/2000/svg">
<g clip-path="url(#clip0)">
<path d="M13.8055 3.9455C14.3713 3.59175 14.7498 2.965 14.7498 2.25C14.7498 1.14725 13.8525 0.25 12.7498 0.25C11.647 0.25 10.7498 1.14725 10.7498 2.25C10.7498 2.965 11.1283 3.59175 11.694 3.9455C10.5598 4.374 9.74976 5.46775 9.74976 6.75V7.75H8.74976V4.75H4.74976V7.75H1.74976V10.75C0.922506 10.75 0.249756 11.4228 0.249756 12.25C0.249756 13.0772 0.922506 13.75 1.74976 13.75V15.75H10.2498V13.75C10.523 13.75 10.7788 13.6753 10.9998 13.547V14.75C10.9998 15.3015 11.4483 15.75 11.9998 15.75C12.3 15.75 12.5663 15.6145 12.7498 15.4045C12.9333 15.6145 13.1995 15.75 13.4998 15.75C14.0513 15.75 14.4998 15.3015 14.4998 14.75V9.75H14.7498C15.3013 9.75 15.7498 9.3015 15.7498 8.75V6.75C15.7498 5.46775 14.9398 4.374 13.8055 3.9455ZM12.7498 4.25C12.9193 4.25 13.0848 4.26725 13.2448 4.29975C13.2195 4.55175 13.0085 4.75 12.7498 4.75C12.491 4.75 12.28 4.55175 12.2548 4.29975C12.4148 4.26725 12.5803 4.25 12.7498 4.25ZM11.2498 2.25C11.2498 1.42275 11.9225 0.75 12.7498 0.75C13.577 0.75 14.2498 1.42275 14.2498 2.25C14.2498 3.07725 13.577 3.75 12.7498 3.75C11.9225 3.75 11.2498 3.07725 11.2498 2.25ZM10.9998 10.953C10.7788 10.8247 10.523 10.75 10.2498 10.75V9.611C10.3975 9.697 10.5668 9.75 10.7498 9.75H10.9998V10.953ZM9.74976 8.75V10.75H9.24976V9.75H7.24976V10.75H6.74976V8.25H7.24976V9.25H9.24976V8.25H9.74976V8.75ZM8.99976 13C8.58626 13 8.24976 12.6635 8.24976 12.25C8.24976 11.8365 8.58626 11.5 8.99976 11.5C9.41326 11.5 9.74976 11.8365 9.74976 12.25C9.74976 12.6635 9.41326 13 8.99976 13ZM7.74976 12.25C7.74976 12.6602 7.95126 13.022 8.25751 13.25H7.24201C7.54826 13.022 7.74976 12.6602 7.74976 12.25C7.74976 11.8398 7.54826 11.478 7.24201 11.25H8.25751C7.95126 11.478 7.74976 11.8398 7.74976 12.25ZM4.24976 10.75H3.24976V10.25H4.24976V10.75ZM2.99976 11.5C3.41326 11.5 3.74976 11.8365 3.74976 12.25C3.74976 12.6635 3.41326 13 2.99976 13C2.58626 13 2.24976 12.6635 2.24976 12.25C2.24976 11.8365 2.58626 11.5 2.99976 11.5ZM4.24976 12.25C4.24976 11.8398 4.04826 11.478 3.74201 11.25H5.75751C5.45126 11.478 5.24976 11.8398 5.24976 12.25C5.24976 12.6602 5.45126 13.022 5.75751 13.25H3.74201C4.04826 13.022 4.24976 12.6602 4.24976 12.25ZM7.74976 8.25H8.74976V8.75H7.74976V8.25ZM7.24976 7.75H6.24976V7.25H7.24976V7.75ZM6.24976 8.25V10.75H5.74976V8.25H6.24976ZM6.49976 13C6.08626 13 5.74976 12.6635 5.74976 12.25C5.74976 11.8365 6.08626 11.5 6.49976 11.5C6.91326 11.5 7.24976 11.8365 7.24976 12.25C7.24976 12.6635 6.91326 13 6.49976 13ZM8.74976 10.75H7.74976V10.25H8.74976V10.75ZM6.24976 5.25H7.24976V5.75H6.24976V5.25ZM5.24976 5.25H5.74976V6.25H7.74976V5.25H8.24976V7.75H7.74976V6.75H5.74976V7.75H5.24976V5.25ZM3.24976 8.25H4.24976V8.75H3.24976V8.25ZM2.24976 8.25H2.74976V9.25H4.74976V8.25H5.24976V10.75H4.74976V9.75H2.74976V10.75H2.24976V8.25ZM0.749756 12.25C0.749756 11.6985 1.19826 11.25 1.74976 11.25H2.25751C1.95126 11.478 1.74976 11.8398 1.74976 12.25C1.74976 12.6602 1.95126 13.022 2.25751 13.25H1.74976C1.19826 13.25 0.749756 12.8015 0.749756 12.25ZM9.74976 15.25H2.24976V13.75H9.74976V15.25ZM10.2498 13.25H9.74201C10.0483 13.022 10.2498 12.6602 10.2498 12.25C10.2498 11.8398 10.0483 11.478 9.74201 11.25H10.2498C10.8013 11.25 11.2498 11.6985 11.2498 12.25C11.2498 12.8015 10.8013 13.25 10.2498 13.25ZM15.2498 8.75C15.2498 9.02575 15.0255 9.25 14.7498 9.25H14.4998V5.75H13.9998V14.75C13.9998 15.0258 13.7755 15.25 13.4998 15.25C13.224 15.25 12.9998 15.0258 12.9998 14.75V8.5H12.4998V14.75C12.4998 15.0258 12.2755 15.25 11.9998 15.25C11.724 15.25 11.4998 15.0258 11.4998 14.75V13.0775C11.6575 12.84 11.7498 12.5557 11.7498 12.25C11.7498 11.9443 11.6575 11.66 11.4998 11.4225V5.75H10.9998V9.25H10.7498C10.474 9.25 10.2498 9.02575 10.2498 8.75V7.75V6.75C10.2498 5.71925 10.8773 4.83225 11.77 4.4505C11.863 4.90625 12.267 5.25 12.7498 5.25C13.2328 5.25 13.6365 4.90625 13.7295 4.4505C14.6223 4.83225 15.2498 5.71925 15.2498 6.75V8.75Z" fill="#6977DF"/>
<path d="M8.99976 12.5C9.13783 12.5 9.24976 12.3881 9.24976 12.25C9.24976 12.1119 9.13783 12 8.99976 12C8.86168 12 8.74976 12.1119 8.74976 12.25C8.74976 12.3881 8.86168 12.5 8.99976 12.5Z" fill="#6977DF"/>
<path d="M6.49976 12.5C6.63783 12.5 6.74976 12.3881 6.74976 12.25C6.74976 12.1119 6.63783 12 6.49976 12C6.36168 12 6.24976 12.1119 6.24976 12.25C6.24976 12.3881 6.36168 12.5 6.49976 12.5Z" fill="#6977DF"/>
<path d="M2.99976 12.5C3.13783 12.5 3.24976 12.3881 3.24976 12.25C3.24976 12.1119 3.13783 12 2.99976 12C2.86168 12 2.74976 12.1119 2.74976 12.25C2.74976 12.3881 2.86168 12.5 2.99976 12.5Z" fill="#6977DF"/>
<path d="M4.24976 3.25H0.249756V6.75H4.24976V3.25ZM1.74976 3.75H2.74976V4.25H1.74976V3.75ZM2.74976 6.25H1.74976V5.75H2.74976V6.25ZM3.74976 6.25H3.24976V5.25H1.24976V6.25H0.749756V3.75H1.24976V4.75H3.24976V3.75H3.74976V6.25Z" fill="#6977DF"/>
</g>
<defs>
<clipPath id="clip0">
<rect width="16" height="16" fill="white" transform="translate(-0.000244141)"/>
</clipPath>
</defs>
</svg>
