<svg width="14" height="14" viewBox="0 0 14 14" fill="none" xmlns="http://www.w3.org/2000/svg">
<g clip-path="url(#clip0)">
<path d="M13.9998 10.1993V7.76533C13.9998 7.69281 13.9709 7.62325 13.9196 7.57198L11.5661 5.21886C11.4628 5.11558 11.3255 5.05871 11.1794 5.05871H9.84351V4.49042C9.84351 3.88733 9.35285 3.39667 8.74976 3.39667H5.67624C5.719 3.22848 5.74192 3.05244 5.74192 2.87112C5.74192 1.69507 4.78516 0.738312 3.6091 0.738312C2.43305 0.738312 1.47629 1.69507 1.47629 2.87112C1.47629 3.05892 1.50093 3.24103 1.54673 3.41464C1.03699 3.50739 0.64917 3.95432 0.64917 4.49042V10.1993C0.64917 10.8024 1.13983 11.2931 1.74292 11.2931H2.4628C2.32365 11.4955 2.24194 11.7403 2.24194 12.0039C2.24194 12.2676 2.32365 12.5125 2.46288 12.7149H0.273193C0.122201 12.7149 -0.000244141 12.8373 -0.000244141 12.9883C-0.000244141 13.1393 0.122201 13.2617 0.273193 13.2617H5.18763C5.33862 13.2617 5.46107 13.1393 5.46107 12.9883C5.46107 12.8373 5.33862 12.7149 5.18763 12.7149H4.53663C4.67584 12.5125 4.75757 12.2676 4.75757 12.0039C4.75757 11.7403 4.67587 11.4955 4.53671 11.2931H9.68158C9.5424 11.4955 9.46069 11.7403 9.46069 12.0039C9.46069 12.2676 9.5424 12.5124 9.6816 12.7148H7.17292C7.02193 12.7148 6.89949 12.8373 6.89949 12.9883C6.89949 13.1393 7.02193 13.2617 7.17292 13.2617H13.7263C13.8773 13.2617 13.9998 13.1393 13.9998 12.9883C13.9998 12.8373 13.8773 12.7148 13.7263 12.7148H11.7554C11.8946 12.5124 11.9763 12.2676 11.9763 12.0039C11.9763 11.7403 11.8946 11.4955 11.7554 11.2931H12.906C13.5091 11.2931 13.9998 10.8024 13.9998 10.1993ZM3.6091 1.28519C4.48358 1.28519 5.19504 1.99664 5.19504 2.87112C5.19504 3.7456 4.48358 4.45706 3.6091 4.45706C2.73462 4.45706 2.02317 3.7456 2.02317 2.87112C2.02317 1.99664 2.73462 1.28519 3.6091 1.28519ZM3.49976 12.7149C3.10773 12.7149 2.78882 12.396 2.78882 12.0039C2.78882 11.613 3.10603 11.2948 3.49661 11.2931H3.50293C3.89348 11.2948 4.21069 11.613 4.21069 12.0039C4.21069 12.396 3.89178 12.7149 3.49976 12.7149ZM9.29663 4.70316H7.05444C6.90345 4.70316 6.78101 4.8256 6.78101 4.97659C6.78101 5.12758 6.90345 5.25003 7.05444 5.25003H9.29663V10.1993C9.29663 10.5009 9.0513 10.7462 8.74976 10.7462H1.74292C1.44137 10.7462 1.19604 10.5009 1.19604 10.1993V10.1992V8.01175H2.23371L1.94354 8.30192C1.83676 8.4087 1.83676 8.58184 1.94354 8.68864C1.99694 8.74202 2.06692 8.76873 2.13689 8.76873C2.20686 8.76873 2.27683 8.74202 2.33024 8.68864L3.08722 7.93166C3.194 7.82488 3.194 7.65174 3.08722 7.54494L2.33024 6.78795C2.22343 6.6812 2.05035 6.6812 1.94351 6.78795C1.83674 6.89473 1.83674 7.06787 1.94351 7.17467L2.23371 7.46487H1.19604V4.49042C1.19604 4.18887 1.44137 3.94355 1.74292 3.94355H1.76668C2.13689 4.5771 2.82387 5.00394 3.6091 5.00394C4.39433 5.00394 5.08132 4.5771 5.45153 3.94355H8.74976C9.0513 3.94355 9.29663 4.18887 9.29663 4.49042V4.70316ZM13.4529 7.87861V8.01175H12.4724L13.0292 7.45498L13.4529 7.87861ZM11.1704 5.60558H11.1794L11.9998 6.42578L11.6189 6.80668C11.5121 6.91346 11.5121 7.0866 11.6189 7.1934C11.6723 7.24675 11.7423 7.27347 11.8123 7.27347C11.8823 7.27347 11.9522 7.24675 12.0056 7.19338L12.3865 6.81245L12.6424 7.06831L11.6998 8.01087C11.4064 8.00158 11.1704 7.76057 11.1704 7.46487V5.60558ZM10.7196 12.7148H10.7175C10.3259 12.7143 10.0076 12.3956 10.0076 12.0039C10.0076 11.613 10.3248 11.2948 10.7153 11.2931H10.7217C11.1122 11.2948 11.4294 11.613 11.4294 12.0039C11.4294 12.3956 11.1111 12.7143 10.7196 12.7148ZM9.69634 10.7462C9.78972 10.5852 9.84351 10.3985 9.84351 10.1993V5.60558H10.6235V7.46487C10.6235 8.06797 11.1142 8.55862 11.7173 8.55862H13.4529V10.1993C13.4529 10.5009 13.2076 10.7462 12.906 10.7462H9.69634Z" fill="#6D7189"/>
<path d="M6.24477 12.7148H6.24121C6.09022 12.7148 5.96777 12.8373 5.96777 12.9883C5.96777 13.1392 6.09022 13.2617 6.24121 13.2617H6.24477C6.39576 13.2617 6.5182 13.1392 6.5182 12.9883C6.5182 12.8373 6.39576 12.7148 6.24477 12.7148Z" fill="#6D7189"/>
<path d="M4.73934 8.26633H4.58723C4.80828 8.01223 5.01278 7.68785 5.01278 7.35742C5.01278 6.94038 4.73259 6.66019 4.31554 6.66019C3.93106 6.66019 3.61831 6.97294 3.61831 7.35742C3.61831 7.50842 3.74075 7.63086 3.89174 7.63086C4.04273 7.63086 4.16518 7.50842 4.16518 7.35742C4.16518 7.27452 4.23264 7.20706 4.31554 7.20706C4.44195 7.20706 4.46591 7.25992 4.46591 7.35742C4.46591 7.6736 3.96978 8.14222 3.72976 8.31949C3.63458 8.38952 3.59509 8.51273 3.63192 8.62503C3.66878 8.7373 3.77356 8.81323 3.89174 8.81323H4.73934C4.89036 8.81321 5.01278 8.69076 5.01278 8.53977C5.01278 8.38878 4.89033 8.26633 4.73934 8.26633Z" fill="#6D7189"/>
<path d="M6.70652 7.47115V6.93362C6.70652 6.78263 6.58407 6.66019 6.43308 6.66019C6.28209 6.66019 6.15965 6.78263 6.15965 6.93362V7.46398H5.84473V6.93362C5.84473 6.78263 5.72228 6.66019 5.57129 6.66019C5.4203 6.66019 5.29785 6.78263 5.29785 6.93362V7.73742C5.29785 7.88841 5.4203 8.01085 5.57129 8.01085H6.15965V8.54296C6.15965 8.69395 6.28209 8.8164 6.43308 8.8164C6.58407 8.8164 6.70652 8.69395 6.70652 8.54296V8.00369C6.8279 7.97577 6.91854 7.86727 6.91854 7.73742C6.91854 7.60756 6.82793 7.49906 6.70652 7.47115Z" fill="#6D7189"/>
<path d="M7.94003 7.4686C7.89715 7.4686 7.85524 7.47282 7.81457 7.48053V6.93362C7.81457 6.78263 7.69213 6.66019 7.54114 6.66019C7.39015 6.66019 7.2677 6.78263 7.2677 6.93362V8.14091V8.31541V8.53977C7.2677 8.69076 7.39015 8.81321 7.54114 8.81321C7.69213 8.81321 7.81457 8.69076 7.81457 8.53977V8.31541V8.14091C7.81457 8.07175 7.87088 8.01548 7.94003 8.01548C8.00918 8.01548 8.06545 8.07175 8.06545 8.14091V8.53977C8.06545 8.69076 8.1879 8.81321 8.33889 8.81321C8.48988 8.81321 8.61233 8.69076 8.61233 8.53977V8.14091C8.61233 7.77018 8.31073 7.4686 7.94003 7.4686Z" fill="#6D7189"/>
<path d="M4.20154 2.63411H3.84607V1.97821C3.84607 1.82722 3.72362 1.70477 3.57263 1.70477C3.42164 1.70477 3.29919 1.82722 3.29919 1.97821V2.90754C3.29919 3.05853 3.42164 3.18098 3.57263 3.18098H4.20154C4.35253 3.18098 4.47498 3.05853 4.47498 2.90754C4.47498 2.75655 4.35253 2.63411 4.20154 2.63411Z" fill="#6D7189"/>
<path d="M6.15399 4.78324C6.10315 4.73238 6.03261 4.70312 5.96069 4.70312C5.88878 4.70312 5.81823 4.73236 5.76737 4.78324C5.71651 4.83413 5.68726 4.90465 5.68726 4.97656C5.68726 5.04848 5.71649 5.11902 5.76737 5.16986C5.81823 5.22074 5.88878 5.25 5.96069 5.25C6.03261 5.25 6.10315 5.22074 6.15399 5.16986C6.20487 5.11902 6.23413 5.04848 6.23413 4.97656C6.23413 4.90465 6.20487 4.8341 6.15399 4.78324Z" fill="#6D7189"/>
</g>
<defs>
<clipPath id="clip0">
<rect width="14" height="14" fill="white" transform="translate(-0.000244141)"/>
</clipPath>
</defs>
</svg>
