<svg width="14" height="11" viewBox="0 0 14 11" fill="none" xmlns="http://www.w3.org/2000/svg">
<path d="M13.9769 3.35154L13.77 2.5489C13.689 2.23517 13.4062 2.01607 13.0822 2.01607H12.1507C12.0609 2.01607 11.9743 2.0346 11.8952 2.0693L11.7452 1.53655C11.5516 0.848044 10.8759 0.642996 10.5078 0.533268C9.67774 0.242281 8.62688 0.147372 8.21282 0.120029C8.06262 0.110268 7.93195 0.22418 7.92197 0.374868C7.91204 0.525557 8.02612 0.655766 8.17678 0.665719C8.56938 0.69164 9.5653 0.78108 10.3325 1.05131C10.3367 1.05279 10.3409 1.05416 10.3452 1.05544C10.8268 1.19899 11.1241 1.34796 11.2187 1.68467L11.5467 2.84965C11.6091 3.07307 11.5627 3.35189 11.3767 3.50485C11.1814 3.66558 10.8927 3.69218 10.6501 3.69218H3.34802C3.04019 3.69218 2.63006 3.64329 2.48484 3.32715C2.41337 3.17151 2.41569 2.9841 2.46105 2.82163L2.78294 1.68453C2.84657 1.45807 3.02072 1.27602 3.24884 1.19752C3.25691 1.19473 3.26478 1.19161 3.27244 1.18817C3.36822 1.1506 4.28543 0.804048 5.81364 0.673457C5.96411 0.660605 6.07567 0.528209 6.06279 0.377739C6.04991 0.227269 5.91749 0.115928 5.76707 0.128588C4.09419 0.271566 3.12807 0.656313 3.05807 0.684941C2.66654 0.824228 2.36743 1.14168 2.25661 1.53611L2.10562 2.06949C2.02635 2.03466 1.93962 2.01604 1.84955 2.01604H0.917281C0.593291 2.01604 0.310507 2.23514 0.229598 2.54888L0.0226097 3.35151C-0.0326511 3.56575 0.013395 3.78895 0.148908 3.96384C0.284421 4.13872 0.489031 4.23905 0.710293 4.23905H1.46108C1.41742 4.34142 1.36855 4.44456 1.31431 4.54789C1.20239 4.76106 1.05482 4.94382 0.898579 5.13733C0.732523 5.34336 0.619486 5.57187 0.619486 5.8424V8.12494C0.619486 8.67207 1.06463 9.11722 1.61177 9.11722H2.15886V9.94477C2.15886 10.387 2.51869 10.7469 2.96097 10.7469H4.34378C4.78605 10.7469 5.14589 10.387 5.14589 9.94477V9.11722H8.85364V9.94477C8.85364 10.387 9.21345 10.7469 9.65575 10.7469H11.0386C11.4809 10.7469 11.8407 10.387 11.8407 9.94477V9.11722H12.3863C12.9335 9.11722 13.3786 8.67207 13.3786 8.12494V5.84246C13.3786 5.57695 13.2706 5.31747 13.0856 5.12746C12.8333 4.86819 12.6554 4.53848 12.533 4.2391H13.2892C13.5105 4.2391 13.7151 4.13881 13.8506 3.96389C13.9861 3.78895 14.0322 3.56577 13.9769 3.35154ZM0.581205 3.62891C0.562885 3.60526 0.534749 3.55555 0.552167 3.48809L0.759155 2.68546C0.777776 2.6133 0.842798 2.56293 0.917309 2.56293H1.84958C1.93527 2.56293 1.94164 2.6463 1.9245 2.70941L1.65716 3.65341L1.64617 3.69221H0.710293C0.64065 3.69221 0.599525 3.65256 0.581205 3.62891ZM4.59905 9.94479C4.59905 10.0855 4.48454 10.2 4.3438 10.2H2.961C2.82026 10.2 2.70575 10.0855 2.70575 9.94479V9.11725H4.59905V9.94479ZM11.2938 9.94479C11.2938 10.0855 11.1793 10.2 11.0386 10.2H9.65578C9.51504 10.2 9.40053 10.0855 9.40053 9.94479V9.11725H11.2938V9.94479ZM12.8043 5.68523C12.8225 5.73606 12.8318 5.78895 12.8318 5.84246V8.12499C12.8318 8.36643 12.6278 8.57041 12.3863 8.57041H1.6118C1.37036 8.57041 1.16638 8.36643 1.16638 8.12499V5.84246C1.16638 5.73571 1.20425 5.62983 1.27299 5.54433C1.50352 5.25838 1.71937 4.97474 1.87903 4.64195C2.00401 4.3814 2.09553 4.11245 2.17403 3.8353C2.4735 4.15472 2.92972 4.23918 3.3481 4.23918H10.65C11.0678 4.23918 11.5267 4.15237 11.8242 3.83461C11.996 4.44459 12.2449 5.04753 12.6937 5.50884C12.7428 5.55926 12.781 5.62026 12.8043 5.68523ZM13.4184 3.62891C13.4 3.65256 13.3589 3.69221 13.2892 3.69221H12.3523L12.066 2.67485C12.0503 2.61931 12.0932 2.56293 12.1507 2.56293H13.0822C13.1568 2.56293 13.2218 2.61333 13.2404 2.68546L13.4473 3.48812C13.4648 3.55555 13.4367 3.60528 13.4184 3.62891Z" fill="#6D7189"/>
<path d="M3.28517 5.65295H2.90245C2.31355 5.65295 1.83447 6.13203 1.83447 6.72093V6.77613C1.83447 7.36502 2.31355 7.84411 2.90245 7.84411H3.28517C3.87406 7.84411 4.35314 7.36502 4.35314 6.77613V6.72093C4.35314 6.13206 3.87406 5.65295 3.28517 5.65295ZM3.80628 6.77613C3.80628 7.06348 3.57252 7.29724 3.28517 7.29724H2.90245C2.6151 7.29724 2.38134 7.06348 2.38134 6.77613V6.72093C2.38134 6.43358 2.6151 6.19982 2.90245 6.19982H3.28517C3.57252 6.19982 3.80628 6.43358 3.80628 6.72093V6.77613Z" fill="#6D7189"/>
<path d="M11.0972 5.65295H10.7145C10.1256 5.65295 9.64648 6.13203 9.64648 6.72093V6.77613C9.64648 7.36502 10.1256 7.84411 10.7145 7.84411H11.0972C11.686 7.84411 12.1652 7.36502 12.1652 6.77613V6.72093C12.1652 6.13206 11.686 5.65295 11.0972 5.65295ZM11.6183 6.77613C11.6183 7.06348 11.3845 7.29724 11.0972 7.29724H10.7145C10.4271 7.29724 10.1933 7.06348 10.1933 6.77613V6.72093C10.1933 6.43358 10.4271 6.19982 10.7145 6.19982H11.0972C11.3845 6.19982 11.6183 6.43358 11.6183 6.72093V6.77613Z" fill="#6D7189"/>
<path d="M7.94287 5.84747H6.0138C5.50043 5.84747 5.08276 6.26514 5.08276 6.77851C5.08276 7.29188 5.50043 7.70954 6.0138 7.70954H7.94287C8.45624 7.70954 8.87393 7.29188 8.87393 6.77851C8.87393 6.26514 8.45624 5.84747 7.94287 5.84747ZM7.94287 7.16265H6.0138C5.80197 7.16265 5.62963 6.99031 5.62963 6.77848C5.62963 6.56665 5.80197 6.39431 6.0138 6.39431H7.94287C8.15472 6.39431 8.32707 6.56665 8.32707 6.77848C8.32707 6.99031 8.15472 7.16265 7.94287 7.16265Z" fill="#6D7189"/>
<path d="M6.76214 0.45417C6.8588 0.686181 7.20314 0.669064 7.27621 0.429014C7.34667 0.197494 7.08991 -0.00709145 6.88013 0.111799C6.76171 0.178901 6.70959 0.32817 6.76214 0.45417Z" fill="#6D7189"/>
</svg>
