<svg width="16" height="16" viewBox="0 0 16 16" fill="none" xmlns="http://www.w3.org/2000/svg">
<g clip-path="url(#clip0)">
<path d="M9.68726 6.125C8.1709 6.125 6.93726 7.35864 6.93726 8.875C6.93726 10.3914 8.1709 11.625 9.68726 11.625C11.2036 11.625 12.4373 10.3914 12.4373 8.875C12.4373 7.35864 11.2036 6.125 9.68726 6.125ZM9.68726 11C8.5155 11 7.56226 10.0468 7.56226 8.875C7.56226 7.70325 8.5155 6.75 9.68726 6.75C10.859 6.75 11.8123 7.70325 11.8123 8.875C11.8123 10.0468 10.859 11 9.68726 11Z" fill="#6977DF"/>
<path d="M9.68726 7.46869C9.51465 7.46869 9.37476 7.60858 9.37476 7.78119C9.37476 7.9538 9.51465 8.09369 9.68726 8.09369C10.1179 8.09369 10.4684 8.44415 10.4684 8.87482C10.4684 9.04742 10.6083 9.18732 10.7809 9.18732C10.9535 9.18732 11.0934 9.04742 11.0934 8.87482C11.0934 8.09943 10.4626 7.46869 9.68726 7.46869Z" fill="#6977DF"/>
<path d="M1.92616 3.23124C1.84681 3.07805 1.65834 3.01811 1.50502 3.09733C1.35169 3.17668 1.29176 3.36528 1.3711 3.5186L2.21229 5.1436C2.26673 5.24882 2.37684 5.31315 2.49452 5.31242C2.61293 5.31059 2.72023 5.24199 2.77149 5.13518L3.28077 4.07487L3.83387 5.1436C3.88771 5.24736 3.99476 5.31242 4.11146 5.31242H4.1161C4.23463 5.31059 4.34181 5.24199 4.3932 5.13518L5.1736 3.51018C5.2483 3.35466 5.18275 3.16789 5.02723 3.09318C4.87159 3.01848 4.68495 3.08403 4.61024 3.23967L4.10096 4.29997L3.54774 3.23124C3.4933 3.12602 3.38343 3.06145 3.26564 3.06242C3.14711 3.06425 3.03981 3.13286 2.98854 3.23967L2.47938 4.29997L1.92616 3.23124Z" fill="#6977DF"/>
<path d="M3.93664 1.5C4.01892 1.5 4.09949 1.46655 4.15759 1.40845C4.21582 1.35034 4.24914 1.26965 4.24914 1.1875C4.24914 1.10535 4.21582 1.02466 4.15759 0.966553C4.09949 0.908447 4.01892 0.875 3.93664 0.875C3.85449 0.875 3.77393 0.908447 3.71582 0.966553C3.65759 1.02466 3.62415 1.10535 3.62415 1.1875C3.62415 1.26965 3.65759 1.35034 3.71582 1.40845C3.77393 1.46655 3.85449 1.5 3.93664 1.5Z" fill="#6977DF"/>
<path d="M15.9998 6.25V2.125C15.9998 1.43579 15.439 0.875 14.7498 0.875H5.24939C5.0769 0.875 4.93689 1.01489 4.93689 1.1875C4.93689 1.36011 5.0769 1.5 5.24939 1.5H14.7498C15.0944 1.5 15.3748 1.7804 15.3748 2.125V6.25C15.3748 6.5946 15.0944 6.875 14.7498 6.875H13.2498C13.2407 6.875 13.2319 6.87561 13.2231 6.87634C12.7408 6.02649 11.9612 5.36682 11.0265 5.03955L11.4897 4.07507L12.043 5.14368C12.0967 5.24756 12.2037 5.3125 12.3204 5.3125H12.3252C12.4436 5.31067 12.5509 5.24207 12.6022 5.13525L13.3826 3.51025C13.4573 3.35474 13.3917 3.16809 13.2362 3.09338C13.0807 3.01855 12.8939 3.08411 12.8192 3.23975L12.3101 4.30005L11.7568 3.23132C11.7024 3.1261 11.5927 3.06152 11.4746 3.06262C11.3561 3.06433 11.2489 3.13293 11.1976 3.23975L10.6884 4.30005L10.1353 3.23132C10.0559 3.07812 9.86731 3.01819 9.71399 3.09753C9.56067 3.17688 9.50085 3.36536 9.58008 3.51868L10.2717 4.85474C10.0809 4.82715 9.88586 4.8125 9.6875 4.8125C9.30334 4.8125 8.9314 4.86621 8.57886 4.96631L9.2782 3.51025C9.35291 3.35474 9.28735 3.16809 9.13171 3.09338C8.9762 3.01855 8.78943 3.08411 8.71484 3.23975L8.20557 4.30005L7.65234 3.23132C7.5979 3.1261 7.48865 3.06152 7.37012 3.06262C7.25171 3.06433 7.14441 3.13293 7.09314 3.23975L6.58398 4.30005L6.03076 3.23132C5.95142 3.07812 5.76294 3.01819 5.60962 3.09753C5.4563 3.17688 5.39636 3.36536 5.47571 3.51868L6.31689 5.14368C6.37134 5.2489 6.48096 5.31323 6.59912 5.3125C6.71753 5.31067 6.82483 5.24207 6.8761 5.13525L7.38538 4.07507L7.93848 5.14368C7.94775 5.16162 7.95911 5.17786 7.97144 5.19336C7.20508 5.552 6.56836 6.14282 6.15247 6.875H1.24976C0.905151 6.875 0.624756 6.5946 0.624756 6.25V2.125C0.624756 1.7804 0.905151 1.5 1.24976 1.5H2.53076C2.70337 1.5 2.84326 1.36011 2.84326 1.1875C2.84326 1.01489 2.70337 0.875 2.53076 0.875H1.24976C0.560547 0.875 -0.000244141 1.43579 -0.000244141 2.125V6.25C-0.000244141 6.93933 0.560547 7.5 1.24976 7.5H5.86462C5.70959 7.92969 5.62488 8.39258 5.62488 8.875C5.62488 11.1151 7.44727 12.9375 9.68738 12.9375C10.4235 12.9375 11.1145 12.7407 11.7106 12.397L14.1908 14.8772C14.3973 15.0837 14.6687 15.187 14.9401 15.187C15.2114 15.187 15.4828 15.0837 15.6893 14.8772C16.1025 14.464 16.1025 13.7917 15.6893 13.3785L14.7148 12.4041C14.5928 12.2821 14.3949 12.282 14.2729 12.4041C14.1509 12.5261 14.1509 12.7239 14.2729 12.8459L15.2474 13.8206C15.4169 13.99 15.4169 14.2657 15.2474 14.4353C15.078 14.6047 14.8022 14.6047 14.6328 14.4353L12.2347 12.0371C13.1581 11.2919 13.7499 10.1514 13.7499 8.875C13.7499 8.39258 13.6652 7.92969 13.5101 7.5H14.7498C15.4391 7.5 15.9998 6.93921 15.9998 6.25ZM9.68738 12.3125C7.79199 12.3125 6.24988 10.7704 6.24988 8.875C6.24988 6.97961 7.79199 5.4375 9.68738 5.4375C11.5828 5.4375 13.1249 6.97961 13.1249 8.875C13.1249 10.7704 11.5829 12.3125 9.68738 12.3125Z" fill="#6977DF"/>
<path d="M13.5316 11.6631C13.4735 11.7212 13.4401 11.8017 13.4401 11.884C13.4401 11.9662 13.4735 12.0467 13.5316 12.1049C13.5901 12.1631 13.6704 12.1965 13.7526 12.1965C13.8347 12.1965 13.9154 12.1631 13.9735 12.1049C14.032 12.0467 14.0651 11.9662 14.0651 11.884C14.0651 11.8017 14.032 11.7212 13.9735 11.6631C13.9154 11.6049 13.8351 11.5715 13.7526 11.5715C13.6704 11.5715 13.5897 11.6049 13.5316 11.6631Z" fill="#6977DF"/>
</g>
<defs>
<clipPath id="clip0">
<rect width="16" height="16" fill="white" transform="translate(-0.000244141)"/>
</clipPath>
</defs>
</svg>
