<svg width="60" height="60" viewBox="0 0 60 60" fill="none" xmlns="http://www.w3.org/2000/svg">
<path d="M24.1672 32.9228C24.0942 32.3748 23.5862 31.9887 23.0421 32.0666C22.495 32.1397 22.112 32.6437 22.186 33.1918C23.2431 40.9905 20.4288 48.8694 14.6592 54.2669C14.2562 54.6439 14.2352 55.277 14.6132 55.681C14.8092 55.891 15.0752 55.997 15.3432 55.997C15.5883 55.997 15.8332 55.908 16.0262 55.7269C22.268 49.8875 25.3113 41.3626 24.1672 32.9228Z" fill="#6977DF"/>
<path d="M9.67427 34.091C9.66431 34.044 9.6513 33.999 9.63524 33.954C9.43319 32.9158 9.31025 31.8608 9.26618 30.8147C9.24415 30.2627 8.77219 29.8376 8.22604 29.8566C7.67403 29.8786 7.24496 30.3446 7.26794 30.8967C7.31798 32.0948 7.46401 33.3029 7.70192 34.4891C7.71095 34.5352 7.72396 34.5802 7.7399 34.6241C8.39199 38.1135 7.12179 41.6938 4.40359 43.9961C3.98249 44.3541 3.92951 44.9851 4.28662 45.4062C4.48563 45.6403 4.76667 45.7603 5.05064 45.7603C5.27965 45.7603 5.50866 45.6822 5.69676 45.5222C9.00612 42.7188 10.5303 38.3384 9.67427 34.091Z" fill="#6977DF"/>
<path d="M15.2962 42.056C14.7811 41.8559 14.201 42.111 14.001 42.626C12.9288 45.3874 11.1518 47.8375 8.86344 49.7118C8.43637 50.0608 8.37343 50.6919 8.72339 51.1188C8.92145 51.3599 9.20848 51.4849 9.49749 51.4849C9.72052 51.4849 9.94554 51.4109 10.1315 51.2588C12.6848 49.1666 14.668 46.4323 15.8661 43.35C16.0662 42.8361 15.8102 42.2559 15.2962 42.056Z" fill="#6977DF"/>
<path d="M6.00042 13.7097C6.17845 13.8396 6.38448 13.9027 6.58946 13.9027C6.89746 13.9027 7.20148 13.7606 7.39755 13.4917C11.53 7.83013 17.5915 3.94966 24.4662 2.56355C30.5658 1.33237 36.7364 2.1285 42.308 4.86382C42.8051 5.10888 43.4042 4.90179 43.6462 4.40674C43.8902 3.91075 43.6852 3.31163 43.1891 3.06856C37.2196 0.13729 30.6079 -0.714748 24.0712 0.602337C16.7045 2.08748 10.2099 6.24595 5.78243 12.3125C5.45638 12.7586 5.55436 13.3847 6.00042 13.7097Z" fill="#6977DF"/>
<path d="M2.58308 35.5239C2.57804 35.4999 2.5621 35.4819 2.55506 35.4579C1.30994 29.2093 2.18108 22.9166 5.0793 17.2551C5.33128 16.764 5.13731 16.1611 4.64531 15.909C4.15331 15.6559 3.55126 15.852 3.29916 16.344C0.181782 22.4316 -0.750303 29.2013 0.604871 35.92C0.61284 35.9571 0.633819 35.9871 0.644836 36.022C0.72582 36.4171 0.811845 36.808 0.906893 37.1961C1.01987 37.6521 1.42796 37.9561 1.87801 37.9561C1.957 37.9561 2.03704 37.9471 2.11803 37.9281C2.6541 37.7951 2.98214 37.253 2.85006 36.717C2.75301 36.324 2.66301 35.926 2.58308 35.5239Z" fill="#6977DF"/>
<path d="M25.501 7.6999C16.2351 9.56805 9.20139 16.7919 7.58217 26.1027C7.48817 26.6468 7.85219 27.1648 8.39623 27.2598C8.9473 27.3538 9.45829 26.9888 9.55334 26.4458C11.0295 17.9529 17.4452 11.3653 25.897 9.66005C37.1101 7.4028 48.0692 14.6825 50.3285 25.8937C50.3344 25.9257 50.3424 25.9557 50.3514 25.9857C50.5325 26.8928 50.6885 27.7909 50.8154 28.657C50.8884 29.154 51.3155 29.511 51.8035 29.511C51.8525 29.511 51.9015 29.508 51.9505 29.5C52.4965 29.4199 52.8746 28.9119 52.7946 28.3659C52.6585 27.4368 52.4895 26.4726 52.2945 25.4995C52.2874 25.4675 52.2795 25.4345 52.2695 25.4035C49.7494 13.1645 37.7612 5.22875 25.501 7.6999Z" fill="#6977DF"/>
<path d="M38.0948 28.3603C37.6587 26.1971 36.4067 24.3329 34.5684 23.1118C32.7303 21.8897 30.526 21.4597 28.3638 21.8937C25.1164 22.5487 22.5822 25.066 21.9061 28.3073C21.7931 28.8484 22.1401 29.3783 22.6802 29.4913C23.2233 29.6034 23.7513 29.2573 23.8643 28.7163C24.3763 26.2591 26.2975 24.3509 28.7587 23.8547C30.3989 23.5258 32.0681 23.8517 33.4612 24.7769C34.8213 25.6809 35.7575 27.0491 36.1085 28.6393C36.1125 28.6792 36.1175 28.7193 36.1255 28.7593C36.6325 31.2685 36.8926 33.8298 36.8996 36.371C36.9016 36.923 37.3486 37.3691 37.8997 37.3691H37.9017C38.4547 37.368 38.9017 36.919 38.8997 36.367C38.8927 33.7367 38.6277 31.0865 38.1117 28.4893C38.1088 28.4464 38.1028 28.4034 38.0948 28.3603Z" fill="#6977DF"/>
<path d="M30.9839 29.7953C30.8749 29.2542 30.3479 28.9062 29.8058 29.0121C29.2647 29.1211 28.9137 29.6492 29.0227 30.1902C30.9909 39.9522 28.3446 49.8462 21.763 57.337C21.399 57.752 21.44 58.384 21.854 58.7491C22.0439 58.9152 22.28 58.9971 22.514 58.9971C22.792 58.9971 23.068 58.8831 23.2661 58.658C30.2629 50.6934 33.0761 40.1743 30.9839 29.7953Z" fill="#6977DF"/>
<path d="M59.4023 24.0647C59.3963 24.0347 59.3762 24.0117 59.3672 23.9817C57.8271 16.4499 53.5177 9.87129 47.223 5.45381C46.771 5.1348 46.146 5.24579 45.8299 5.69782C45.5129 6.14986 45.6219 6.77395 46.0739 7.09097C51.9706 11.2294 56.0019 17.399 57.4261 24.4627C57.4311 24.4897 57.447 24.5108 57.4541 24.5367C57.8501 26.5268 58.0321 28.552 57.9941 30.5582C57.9842 31.1103 58.4232 31.5664 58.9752 31.5773H58.9952C59.5383 31.5773 59.9843 31.1412 59.9944 30.5962C60.0353 28.4182 59.8363 26.222 59.4023 24.0647Z" fill="#6977DF"/>
<path d="M45.1939 26.9302C44.3758 22.8698 42.0255 19.3725 38.5762 17.0813C35.1269 14.7891 30.9925 13.9799 26.9331 14.797C18.5543 16.4862 13.1107 24.679 14.8009 33.0578C14.8128 33.1168 14.8298 33.1728 14.8509 33.2268C15.1719 34.898 15.2429 36.5922 15.062 38.2663C15.003 38.8154 15.4 39.3084 15.9501 39.3684C16.4871 39.4225 16.9922 39.0304 17.0512 38.4803C17.2592 36.5441 17.1672 34.5859 16.7781 32.6587C16.7662 32.6007 16.7492 32.5446 16.7281 32.4917C15.3639 25.253 20.0874 18.2182 27.3282 16.7581C30.8635 16.0451 34.4658 16.7511 37.4692 18.7474C40.4555 20.7315 42.4957 23.7539 43.2207 27.2632C43.2238 27.2841 43.2267 27.3062 43.2307 27.3272C44.3428 32.8367 44.4469 38.4212 43.5407 43.9228C43.4516 44.4688 43.8207 44.9829 44.3658 45.0729C44.4207 45.0808 44.4748 45.0859 44.5288 45.0859C45.0098 45.0859 45.4339 44.7378 45.5149 44.2478C46.456 38.5272 46.3519 32.7236 45.2049 26.9961C45.2019 26.9743 45.1989 26.9522 45.1939 26.9302Z" fill="#6977DF"/>
<path d="M52.2245 32.0772C51.6735 32.1123 51.2545 32.5873 51.2894 33.1384C51.6505 38.872 51.0834 44.5964 49.6033 50.152C49.4612 50.685 49.7782 51.2332 50.3123 51.3751C50.3983 51.3981 50.4853 51.4102 50.5704 51.4102C51.0125 51.4102 51.4164 51.1141 51.5365 50.6661C53.0726 44.9015 53.6607 38.9619 53.2856 33.0124C53.2517 32.4613 52.7886 32.0423 52.2245 32.0772Z" fill="#6977DF"/>
<path d="M43.8103 47.6308C43.2733 47.4858 42.7282 47.8038 42.5861 48.3378C41.8241 51.1811 40.7849 53.9643 39.4948 56.6107C39.2528 57.1077 39.4597 57.7058 39.9558 57.9478C40.0979 58.0169 40.2459 58.0489 40.3939 58.0489C40.7639 58.0489 41.12 57.8428 41.293 57.4868C42.6391 54.7254 43.7232 51.8212 44.5172 48.8549C44.6614 48.3218 44.3444 47.7728 43.8103 47.6308Z" fill="#6977DF"/>
<path d="M37.7606 39.9713C37.2155 39.9093 36.7156 40.3024 36.6536 40.8513C35.9395 47.105 33.6733 53.1735 30.0979 58.3991C29.7859 58.8542 29.902 59.4761 30.358 59.7882C30.531 59.9072 30.7271 59.9632 30.9221 59.9632C31.2411 59.9632 31.5552 59.8112 31.7482 59.5282C35.5076 54.0346 37.8908 47.655 38.6409 41.0783C38.7028 40.5294 38.3086 40.0333 37.7606 39.9713Z" fill="#6977DF"/>
</svg>
